SplineFontDB: 3.2
FontName: IRElham
FullName: IRElham
FamilyName: IRElham
Weight: Book
Copyright: Copyright (c) 2022, Information Technology Organization of Iran (ito.gov.ir)
Version: 1.001
ItalicAngle: 0
UnderlinePosition: -100
UnderlineWidth: 60
Ascent: 1638
Descent: 410
InvalidEm: 0
sfntRevision: 0x00010042
LayerCount: 2
Layer: 0 1 "Back" 1
Layer: 1 1 "Fore" 0
XUID: [1021 420 722297922 16717138]
StyleMap: 0x0040
FSType: 0
OS2Version: 3
OS2_WeightWidthSlopeOnly: 0
OS2_UseTypoMetrics: 0
CreationTime: 1353210952
ModificationTime: 1662614799
PfmFamily: 17
TTFWeight: 400
TTFWidth: 5
LineGap: 100
VLineGap: 0
Panose: 2 0 5 6 0 0 0 2 0 2
OS2TypoAscent: 1800
OS2TypoAOffset: 0
OS2TypoDescent: -900
OS2TypoDOffset: 0
OS2TypoLinegap: 1500
OS2WinAscent: 1800
OS2WinAOffset: 0
OS2WinDescent: 900
OS2WinDOffset: 0
HheadAscent: 1800
HheadAOffset: 0
HheadDescent: -900
HheadDOffset: 0
OS2SubXSize: 1434
OS2SubYSize: 1331
OS2SubXOff: 0
OS2SubYOff: 293
OS2SupXSize: 1434
OS2SupYSize: 1331
OS2SupXOff: 0
OS2SupYOff: 930
OS2StrikeYSize: 50
OS2StrikeYPos: 250
OS2CapHeight: 1608
OS2XHeight: 436
OS2FamilyClass: 2048
OS2Vendor: 'PARS'
OS2CodePages: 20000041.00000000
OS2UnicodeRanges: 00002003.00000000.00000000.00000000
Lookup: 1 1 0 "'isol' Isolated Forms in Arabic lookup 0" { "'isol' Isolated Forms in Arabic lookup 0 subtable"  } ['isol' ('arab' <'dflt' > ) ]
Lookup: 1 1 0 "'init' Initial Forms in Arabic lookup 1" { "'init' Initial Forms in Arabic lookup 1 subtable"  } ['init' ('arab' <'dflt' > ) ]
Lookup: 1 1 0 "'fina' Terminal Forms in Arabic lookup 2" { "'fina' Terminal Forms in Arabic lookup 2 subtable"  } ['fina' ('arab' <'dflt' > ) ]
Lookup: 1 1 0 "'medi' Medial Forms in Arabic lookup 3" { "'medi' Medial Forms in Arabic lookup 3 subtable"  } ['medi' ('arab' <'dflt' > ) ]
Lookup: 4 1 0 "'ccmp' Glyph Composition/Decomposition in Arabic lookup 4" { "'ccmp' Glyph Composition/Decomposition in Arabic lookup 4 subtable"  } ['ccmp' ('arab' <'dflt' > ) ]

StartChar: quotedbl
Encoding: 34 34 4
Width: 1022
Flags: W
LayerCount: 2
Fore
SplineSet
231 1393 m 0,0,1
 231 1474 231 1474 315 1474 c 0,2,3
 357 1472 357 1472 377.5 1448 c 128,-1,4
 398 1424 398 1424 398 1393 c 0,5,6
 398 1313 398 1313 377 1165.5 c 128,-1,7
 356 1018 356 1018 356 945 c 1,8,-1
 270 945 l 1,9,10
 270 1018 270 1018 250.5 1165.5 c 128,-1,11
 231 1313 231 1313 231 1393 c 0,0,1
531 1393 m 0,12,13
 531 1474 531 1474 615 1474 c 0,14,15
 657 1472 657 1472 677.5 1448 c 128,-1,16
 698 1424 698 1424 698 1393 c 0,17,18
 698 1313 698 1313 677 1165.5 c 128,-1,19
 656 1018 656 1018 656 945 c 1,20,-1
 570 945 l 1,21,22
 570 1018 570 1018 550.5 1165.5 c 128,-1,23
 531 1313 531 1313 531 1393 c 0,12,13
EndSplineSet
EndChar

StartChar: quotesingle
Encoding: 39 39 5
Width: 586
Flags: W
LayerCount: 2
Fore
SplineSet
231 1393 m 0,0,1
 231 1474 231 1474 315 1474 c 0,2,3
 357 1472 357 1472 377.5 1448 c 128,-1,4
 398 1424 398 1424 398 1393 c 0,5,6
 398 1313 398 1313 377 1165.5 c 128,-1,7
 356 1018 356 1018 356 945 c 1,8,-1
 270 945 l 1,9,10
 270 1018 270 1018 250.5 1165.5 c 128,-1,11
 231 1313 231 1313 231 1393 c 0,0,1
EndSplineSet
EndChar

StartChar: asterisk
Encoding: 42 42 6
Width: 1126
Flags: W
LayerCount: 2
Fore
SplineSet
568 347 m 1,0,-1
 574 687 l 1,1,-1
 355 467 l 1,2,-1
 250 467 l 1,3,-1
 527 746 l 1,4,-1
 203 746 l 1,5,-1
 223 839 l 1,6,-1
 547 839 l 1,7,-1
 277 1104 l 1,8,-1
 370 1104 l 1,9,-1
 579 899 l 1,10,-1
 585 1199 l 1,11,-1
 704 1239 l 1,12,-1
 699 912 l 1,13,-1
 905 1104 l 1,14,-1
 1013 1104 l 1,15,-1
 730 839 l 1,16,-1
 1065 839 l 1,17,-1
 1043 746 l 1,18,-1
 729 746 l 1,19,-1
 1002 467 l 1,20,-1
 910 467 l 1,21,-1
 696 687 l 1,22,-1
 688 386 l 1,23,-1
 568 347 l 1,0,-1
EndSplineSet
EndChar

StartChar: plus
Encoding: 43 43 7
Width: 1117
GlyphClass: 2
Flags: W
LayerCount: 2
Fore
SplineSet
999 429 m 1,0,-1
 621 429 l 1,1,-1
 621 49 l 1,2,-1
 496 49 l 1,3,-1
 496 429 l 1,4,-1
 117 429 l 1,5,-1
 117 549 l 1,6,-1
 496 549 l 1,7,-1
 496 927 l 1,8,-1
 621 927 l 1,9,-1
 621 549 l 1,10,-1
 999 549 l 1,11,-1
 999 429 l 1,0,-1
EndSplineSet
EndChar

StartChar: hyphen
Encoding: 45 45 8
Width: 1127
Flags: W
LayerCount: 2
Fore
SplineSet
952 407 m 1,0,-1
 203 407 l 1,1,-1
 203 565 l 1,2,-1
 952 565 l 1,3,-1
 952 407 l 1,0,-1
EndSplineSet
EndChar

StartChar: period
Encoding: 46 46 9
Width: 524
GlyphClass: 2
Flags: W
LayerCount: 2
Fore
SplineSet
188 125 m 0,0,1
 188 152 188 152 198 175 c 128,-1,2
 208 198 208 198 225.5 215 c 128,-1,3
 243 232 243 232 266 242 c 128,-1,4
 289 252 289 252 315 252 c 256,5,6
 341 252 341 252 364.5 242 c 128,-1,7
 388 232 388 232 405.5 215 c 128,-1,8
 423 198 423 198 433 175 c 128,-1,9
 443 152 443 152 443 125 c 0,10,11
 443 99 443 99 433 76 c 128,-1,12
 423 53 423 53 405.5 36 c 128,-1,13
 388 19 388 19 364.5 9 c 128,-1,14
 341 -1 341 -1 315 -1 c 256,15,16
 289 -1 289 -1 266 9 c 128,-1,17
 243 19 243 19 225.5 36 c 128,-1,18
 208 53 208 53 198 76 c 128,-1,19
 188 99 188 99 188 125 c 0,0,1
EndSplineSet
EndChar

StartChar: slash
Encoding: 47 47 10
Width: 767
Flags: W
LayerCount: 2
Fore
SplineSet
673 1107 m 1,0,-1
 261 -68 l 1,1,-1
 113 -68 l 1,2,-1
 525 1107 l 1,3,-1
 673 1107 l 1,0,-1
EndSplineSet
EndChar

StartChar: less
Encoding: 60 60 11
Width: 935
Flags: W
LayerCount: 2
Fore
SplineSet
790 513 m 1,0,-1
 452 341 l 1,1,-1
 790 169 l 1,2,-1
 790 -71 l 1,3,-1
 96 339 l 1,4,-1
 790 753 l 1,5,-1
 790 513 l 1,0,-1
EndSplineSet
EndChar

StartChar: equal
Encoding: 61 61 12
Width: 933
Flags: W
LayerCount: 2
Fore
SplineSet
776 432 m 1,0,-1
 176 432 l 1,1,-1
 176 557 l 1,2,-1
 776 557 l 1,3,-1
 776 432 l 1,0,-1
775 231 m 1,4,-1
 175 231 l 1,5,-1
 175 356 l 1,6,-1
 775 356 l 1,7,-1
 775 231 l 1,4,-1
EndSplineSet
EndChar

StartChar: greater
Encoding: 62 62 13
Width: 935
Flags: W
LayerCount: 2
Fore
SplineSet
136 753 m 1,0,-1
 830 339 l 1,1,-1
 136 -71 l 1,2,-1
 136 169 l 1,3,-1
 474 341 l 1,4,-1
 136 513 l 1,5,-1
 136 753 l 1,0,-1
EndSplineSet
EndChar

StartChar: bracketleft
Encoding: 91 91 14
Width: 600
GlyphClass: 2
Flags: W
LayerCount: 2
Fore
SplineSet
521 -147 m 1,0,-1
 176 -147 l 1,1,-1
 176 1496 l 1,2,-1
 521 1496 l 1,3,-1
 521 1406 l 1,4,-1
 306 1406 l 1,5,-1
 306 -58 l 1,6,-1
 521 -58 l 1,7,-1
 521 -147 l 1,0,-1
EndSplineSet
EndChar

StartChar: bracketright
Encoding: 93 93 15
Width: 600
GlyphClass: 2
Flags: W
LayerCount: 2
Fore
SplineSet
196 -58 m 1,0,-1
 412 -58 l 1,1,-1
 412 1406 l 1,2,-1
 196 1406 l 1,3,-1
 196 1496 l 1,4,-1
 541 1496 l 1,5,-1
 541 -147 l 1,6,-1
 196 -147 l 1,7,-1
 196 -58 l 1,0,-1
EndSplineSet
EndChar

StartChar: braceleft
Encoding: 123 123 17
Width: 510
GlyphClass: 2
Flags: W
LayerCount: 2
Fore
SplineSet
510 -157 m 1,0,-1
 171 -157 l 1,1,-1
 171 1137 l 1,2,-1
 510 1137 l 1,3,-1
 510 975 l 1,4,-1
 339 975 l 1,5,-1
 339 4 l 1,6,-1
 510 4 l 1,7,-1
 510 -157 l 1,0,-1
EndSplineSet
EndChar

StartChar: bar
Encoding: 124 124 18
Width: 789
Flags: W
LayerCount: 2
Fore
SplineSet
242 1002 m 1,0,-1
 792 71 l 1,1,-1
 685 -3 l 1,2,-1
 131 931 l 1,3,-1
 242 1002 l 1,0,-1
EndSplineSet
EndChar

StartChar: asciitilde
Encoding: 126 126 19
Width: 913
Flags: W
LayerCount: 2
Fore
SplineSet
136 309 m 1,0,1
 197 549 197 549 366 549 c 0,2,3
 418 549 418 549 535 481 c 2,4,-1
 613 436 l 2,5,6
 710 381 710 381 760 381 c 0,7,8
 841 381 841 381 900 517 c 1,9,-1
 944 517 l 1,10,11
 874 287 874 287 710 287 c 0,12,13
 645 287 645 287 544 345 c 2,14,-1
 466 390 l 2,15,16
 357 454 357 454 319 454 c 0,17,18
 237 454 237 454 179 309 c 1,19,-1
 136 309 l 1,0,1
EndSplineSet
EndChar

StartChar: agrave
Encoding: 224 224 20
Width: 1075
Flags: W
LayerCount: 2
Fore
SplineSet
741 331 m 1,0,1
 720 266 720 266 690.5 213 c 128,-1,2
 661 160 661 160 626 114 c 0,3,4
 519 -19 519 -19 400 -19 c 0,5,6
 208 -19 208 -19 159 214 c 0,7,8
 133 334 133 334 157 451 c 128,-1,9
 181 568 181 568 252 683 c 0,10,11
 325 801 325 801 433 860 c 128,-1,12
 541 919 541 919 684 919 c 0,13,14
 712 919 712 919 746 918.5 c 128,-1,15
 780 918 780 918 815.5 916 c 128,-1,16
 851 914 851 914 886 912 c 128,-1,17
 921 910 921 910 952 908 c 1,18,-1
 946 646 l 1,19,-1
 946 647 l 1,20,-1
 950 254 l 2,21,22
 952 209 952 209 954.5 179.5 c 128,-1,23
 957 150 957 150 958 139 c 0,24,25
 961 114 961 114 985 114 c 0,26,27
 1053 114 1053 114 1214 346 c 1,28,-1
 1218 179 l 1,29,30
 1073 -19 1073 -19 925 -19 c 0,31,32
 785 -19 785 -19 753 126 c 0,33,34
 749 146 749 146 747 182 c 128,-1,35
 745 218 745 218 745 264 c 2,36,-1
 741 331 l 1,0,1
737 758 m 1,37,38
 688 775 688 775 647 783.5 c 128,-1,39
 606 792 606 792 561 792 c 0,40,41
 497 792 497 792 453.5 749.5 c 128,-1,42
 410 707 410 707 387 625 c 0,43,44
 362 522 362 522 357 425 c 128,-1,45
 352 328 352 328 368 248 c 0,46,47
 388 146 388 146 437 146 c 0,48,49
 493 146 493 146 589 280 c 0,50,51
 637 352 637 352 674 430 c 128,-1,52
 711 508 711 508 739 599 c 1,53,-1
 737 758 l 1,37,38
EndSplineSet
EndChar

StartChar: ocircumflex.001
Encoding: 65539 -1 26
Width: 1112
Flags: W
LayerCount: 2
Fore
SplineSet
416 -19 m 0,0,1
 301 -19 301 -19 205 70 c 0,2,3
 110 160 110 160 85 288 c 0,4,5
 32 528 32 528 170 726 c 0,6,7
 307 928 307 928 522 928 c 0,8,9
 643 928 643 928 742 842 c 1,10,11
 837 753 837 753 864 626 c 0,12,13
 890 499 890 499 869 388.5 c 128,-1,14
 848 278 848 278 781 179 c 0,15,16
 711 79 711 79 619.5 30 c 128,-1,17
 528 -19 528 -19 416 -19 c 0,0,1
483 98 m 0,18,19
 536 98 536 98 573.5 133 c 128,-1,20
 611 168 611 168 637 236 c 0,21,22
 665 310 665 310 668.5 393.5 c 128,-1,23
 672 477 672 477 652 574 c 0,24,25
 602 813 602 813 466 813 c 0,26,27
 365 813 365 813 313 670 c 0,28,29
 284 595 284 595 281 510.5 c 128,-1,30
 278 426 278 426 298 332 c 0,31,32
 324 213 324 213 370 155.5 c 128,-1,33
 416 98 416 98 483 98 c 0,18,19
EndSplineSet
EndChar

StartChar: dagger
Encoding: 8224 8224 30
Width: 932
Flags: W
LayerCount: 2
Fore
SplineSet
347 -231 m 1,0,-1
 567 622 l 1,1,-1
 248 592 l 1,2,-1
 297 700 l 1,3,-1
 576 668 l 1,4,-1
 607 1066 l 1,5,-1
 755 1093 l 1,6,-1
 621 668 l 1,7,-1
 941 700 l 1,8,-1
 895 592 l 1,9,-1
 612 622 l 1,10,-1
 496 -213 l 1,11,-1
 347 -231 l 1,0,-1
EndSplineSet
EndChar

StartChar: degree
Encoding: 176 176 31
Width: 409
Flags: W
LayerCount: 2
Fore
SplineSet
395 844 m 0,0,1
 344 844 344 844 307.5 880 c 128,-1,2
 271 916 271 916 271 968 c 0,3,4
 271 1021 271 1021 307.5 1057 c 128,-1,5
 344 1093 344 1093 395 1093 c 0,6,7
 447 1093 447 1093 483 1057 c 128,-1,8
 519 1021 519 1021 519 968 c 0,9,10
 519 916 519 916 483 880 c 128,-1,11
 447 844 447 844 395 844 c 0,0,1
395 888 m 256,12,13
 427 888 427 888 450.5 912 c 128,-1,14
 474 936 474 936 474 968 c 256,15,16
 474 1000 474 1000 450.5 1024 c 128,-1,17
 427 1048 427 1048 395 1048 c 256,18,19
 363 1048 363 1048 339 1024 c 128,-1,20
 315 1000 315 1000 315 968 c 256,21,22
 315 936 315 936 339 912 c 128,-1,23
 363 888 363 888 395 888 c 256,12,13
EndSplineSet
EndChar

StartChar: bullet
Encoding: 8226 8226 32
Width: 931
Flags: W
LayerCount: 2
Fore
SplineSet
817 662 m 256,0,1
 817 517 817 517 713.5 414 c 128,-1,2
 610 311 610 311 465 311 c 256,3,4
 320 311 320 311 217 414 c 128,-1,5
 114 517 114 517 114 662 c 256,6,7
 114 807 114 807 217 910 c 128,-1,8
 320 1013 320 1013 465 1013 c 256,9,10
 610 1013 610 1013 713.5 910 c 128,-1,11
 817 807 817 807 817 662 c 256,0,1
EndSplineSet
EndChar

StartChar: registered
Encoding: 174 174 33
Width: 897
Flags: W
LayerCount: 2
Fore
SplineSet
580 445 m 0,0,1
 448 445 448 445 354.5 538.5 c 128,-1,2
 261 632 261 632 261 764 c 256,3,4
 261 896 261 896 354.5 990 c 128,-1,5
 448 1084 448 1084 580 1084 c 0,6,7
 714 1084 714 1084 807 990 c 128,-1,8
 900 896 900 896 900 764 c 256,9,10
 900 632 900 632 806.5 538.5 c 128,-1,11
 713 445 713 445 580 445 c 0,0,1
580 484 m 0,12,13
 695 484 695 484 777.5 567 c 128,-1,14
 860 650 860 650 860 764 c 256,15,16
 860 878 860 878 777.5 961 c 128,-1,17
 695 1044 695 1044 580 1044 c 0,18,19
 466 1044 466 1044 383.5 961 c 128,-1,20
 301 878 301 878 301 764 c 256,21,22
 301 650 301 650 383.5 567 c 128,-1,23
 466 484 466 484 580 484 c 0,12,13
529 737 m 1,24,-1
 501 596 l 1,25,-1
 394 596 l 1,26,-1
 403 639 l 1,27,-1
 456 639 l 1,28,-1
 511 915 l 1,29,-1
 458 915 l 1,30,-1
 466 959 l 1,31,-1
 598 959 l 2,32,33
 751 959 751 959 751 875 c 0,34,35
 751 800 751 800 650 750 c 1,36,-1
 685 639 l 1,37,-1
 747 639 l 1,38,-1
 738 596 l 1,39,-1
 641 596 l 1,40,-1
 591 737 l 1,41,-1
 529 737 l 1,24,-1
538 782 m 1,42,-1
 574 782 l 2,43,44
 697 782 697 782 697 866 c 0,45,46
 697 915 697 915 607 915 c 2,47,-1
 564 915 l 1,48,-1
 538 782 l 1,42,-1
EndSplineSet
EndChar

StartChar: copyright
Encoding: 169 169 34
Width: 1244
Flags: W
LayerCount: 2
Fore
SplineSet
725 -27 m 0,0,1
 495 -27 495 -27 330.5 137 c 128,-1,2
 166 301 166 301 166 533 c 256,3,4
 166 765 166 765 330.5 929 c 128,-1,5
 495 1093 495 1093 725 1093 c 0,6,7
 958 1093 958 1093 1122 929 c 128,-1,8
 1286 765 1286 765 1286 533 c 256,9,10
 1286 301 1286 301 1122 137 c 128,-1,11
 958 -27 958 -27 725 -27 c 0,0,1
725 18 m 0,12,13
 939 18 939 18 1090 169 c 128,-1,14
 1241 320 1241 320 1241 533 c 256,15,16
 1241 746 1241 746 1090 897 c 128,-1,17
 939 1048 939 1048 725 1048 c 0,18,19
 513 1048 513 1048 362 897 c 128,-1,20
 211 746 211 746 211 533 c 256,21,22
 211 320 211 320 362 169 c 128,-1,23
 513 18 513 18 725 18 c 0,12,13
890 246 m 1,24,25
 785 213 785 213 704 213 c 0,26,27
 580 213 580 213 508 279.5 c 128,-1,28
 436 346 436 346 436 462 c 0,29,30
 436 625 436 625 541 734.5 c 128,-1,31
 646 844 646 844 805 844 c 0,32,33
 896 844 896 844 1003 814 c 1,34,-1
 967 675 l 1,35,-1
 915 684 l 1,36,-1
 923 766 l 1,37,38
 854 798 854 798 792 798 c 0,39,40
 688 798 688 798 616 700 c 128,-1,41
 544 602 544 602 544 462 c 0,42,43
 544 271 544 271 722 271 c 0,44,45
 823 271 823 271 902 307 c 1,46,-1
 890 246 l 1,24,25
EndSplineSet
EndChar

StartChar: trademark
Encoding: 8482 8482 35
Width: 1333
Flags: W
LayerCount: 2
Fore
SplineSet
440 1021 m 1,0,-1
 307 1021 l 1,1,-1
 288 923 l 1,2,-1
 225 923 l 1,3,-1
 254 1066 l 1,4,-1
 751 1066 l 1,5,-1
 723 923 l 1,6,-1
 661 923 l 1,7,-1
 679 1021 l 1,8,-1
 546 1021 l 1,9,-1
 456 569 l 1,10,-1
 554 569 l 1,11,-1
 545 524 l 1,12,-1
 243 524 l 1,13,-1
 253 569 l 1,14,-1
 350 569 l 1,15,-1
 440 1021 l 1,0,-1
1011 569 m 1,16,-1
 942 956 l 1,17,-1
 857 524 l 1,18,-1
 688 524 l 1,19,-1
 697 569 l 1,20,-1
 794 569 l 1,21,-1
 884 1021 l 1,22,-1
 787 1021 l 1,23,-1
 796 1066 l 1,24,-1
 1036 1066 l 1,25,-1
 1092 747 l 1,26,-1
 1265 1066 l 1,27,-1
 1481 1066 l 1,28,-1
 1473 1021 l 1,29,-1
 1375 1021 l 1,30,-1
 1285 569 l 1,31,-1
 1383 569 l 1,32,-1
 1373 524 l 1,33,-1
 1178 524 l 1,34,-1
 1270 985 l 1,35,-1
 1041 569 l 1,36,-1
 1011 569 l 1,16,-1
EndSplineSet
EndChar

StartChar: logicalnot
Encoding: 172 172 39
Width: 932
Flags: W
LayerCount: 2
Fore
SplineSet
177 510 m 1,0,-1
 193 590 l 1,1,-1
 975 590 l 1,2,-1
 906 248 l 1,3,-1
 814 248 l 1,4,-1
 866 510 l 1,5,-1
 177 510 l 1,0,-1
EndSplineSet
EndChar

StartChar: florin
Encoding: 402 402 40
Width: 679
Flags: W
LayerCount: 2
Fore
SplineSet
158 -231 m 1,0,-1
 210 -18 l 1,1,-1
 286 364 l 1,2,-1
 108 364 l 1,3,-1
 117 409 l 1,4,-1
 294 409 l 1,5,-1
 298 427 l 2,6,7
 330 586 330 586 463 692.5 c 128,-1,8
 596 799 596 799 761 799 c 0,9,10
 818 799 818 799 860 784 c 1,11,-1
 764 678 l 1,12,13
 712 729 712 729 643 729 c 0,14,15
 500 729 500 729 457 512 c 2,16,-1
 436 409 l 1,17,-1
 623 409 l 1,18,-1
 614 364 l 1,19,-1
 427 364 l 1,20,-1
 313 -213 l 1,21,-1
 158 -231 l 1,0,-1
EndSplineSet
EndChar

StartChar: ellipsis
Encoding: 8230 8230 41
Width: 1827
Flags: W
LayerCount: 2
Fore
SplineSet
758 113 m 0,0,1
 758 144 758 144 809.5 245.5 c 128,-1,2
 861 347 861 347 876 355 c 0,3,4
 907 369 907 369 964.5 307.5 c 128,-1,5
 1022 246 1022 246 1026 211 c 1,6,7
 1026 166 1026 166 977.5 79.5 c 128,-1,8
 929 -7 929 -7 908 -7 c 0,9,10
 899 -7 899 -7 851 26.5 c 128,-1,11
 803 60 803 60 778 79 c 0,12,13
 758 96 758 96 758 113 c 0,0,1
1308 113 m 0,14,15
 1308 144 1308 144 1359 245.5 c 128,-1,16
 1410 347 1410 347 1426 355 c 0,17,18
 1457 369 1457 369 1514.5 307.5 c 128,-1,19
 1572 246 1572 246 1575 211 c 0,20,21
 1575 166 1575 166 1527 79.5 c 128,-1,22
 1479 -7 1479 -7 1458 -7 c 0,23,24
 1449 -7 1449 -7 1401 26.5 c 128,-1,25
 1353 60 1353 60 1328 79 c 0,26,27
 1308 96 1308 96 1308 113 c 0,14,15
211 113 m 0,28,29
 211 144 211 144 262 245.5 c 128,-1,30
 313 347 313 347 329 355 c 0,31,32
 360 369 360 369 417.5 307.5 c 128,-1,33
 475 246 475 246 478 211 c 0,34,35
 478 166 478 166 430 79.5 c 128,-1,36
 382 -7 382 -7 361 -7 c 0,37,38
 352 -7 352 -7 304 26.5 c 128,-1,39
 256 60 256 60 231 79 c 0,40,41
 211 96 211 96 211 113 c 0,28,29
EndSplineSet
EndChar

StartChar: endash
Encoding: 8211 8211 42
Width: 434
Flags: W
LayerCount: 2
Fore
SplineSet
434 154 m 1,0,-1
 0 154 l 1,1,-1
 0 234 l 1,2,-1
 434 234 l 1,3,-1
 434 154 l 1,0,-1
EndSplineSet
EndChar

StartChar: emdash
Encoding: 8212 8212 43
Width: 1862
Flags: W
LayerCount: 2
Fore
SplineSet
1866 572 m 1,0,-1
 -4 572 l 1,1,-1
 -4 732 l 1,2,-1
 1866 732 l 1,3,-1
 1866 572 l 1,0,-1
EndSplineSet
EndChar

StartChar: quotedblleft
Encoding: 8220 8220 44
Width: 797
Flags: W
LayerCount: 2
Fore
SplineSet
418 1104 m 0,0,1
 422 1196 422 1196 483.5 1285.5 c 128,-1,2
 545 1375 545 1375 621 1411 c 1,3,-1
 664 1327 l 1,4,5
 643 1315 643 1315 612.5 1281.5 c 128,-1,6
 582 1248 582 1248 565 1196 c 1,7,8
 657 1155 657 1155 655 1080 c 0,9,10
 655 1057 655 1057 646 1036 c 128,-1,11
 637 1015 637 1015 621 999 c 128,-1,12
 605 983 605 983 584.5 974 c 128,-1,13
 564 965 564 965 541 965 c 0,14,15
 512 965 512 965 489.5 977.5 c 128,-1,16
 467 990 467 990 451 1009.5 c 128,-1,17
 435 1029 435 1029 426.5 1054 c 128,-1,18
 418 1079 418 1079 418 1104 c 0,0,1
111 1104 m 0,19,20
 115 1196 115 1196 176.5 1285.5 c 128,-1,21
 238 1375 238 1375 313 1411 c 1,22,-1
 356 1327 l 1,23,24
 336 1315 336 1315 305 1281.5 c 128,-1,25
 274 1248 274 1248 258 1196 c 1,26,27
 350 1155 350 1155 348 1080 c 0,28,29
 348 1057 348 1057 338.5 1036 c 128,-1,30
 329 1015 329 1015 313.5 999 c 128,-1,31
 298 983 298 983 277 974 c 128,-1,32
 256 965 256 965 233 965 c 0,33,34
 205 965 205 965 182.5 977.5 c 128,-1,35
 160 990 160 990 144 1009.5 c 128,-1,36
 128 1029 128 1029 119.5 1054 c 128,-1,37
 111 1079 111 1079 111 1104 c 0,19,20
EndSplineSet
EndChar

StartChar: quotedblright
Encoding: 8221 8221 45
Width: 750
Flags: W
LayerCount: 2
Fore
SplineSet
356 1276 m 0,0,1
 354 1184 354 1184 292.5 1095 c 128,-1,2
 231 1006 231 1006 154 969 c 1,3,-1
 111 1051 l 1,4,5
 133 1063 133 1063 164 1097 c 128,-1,6
 195 1131 195 1131 209 1184 c 1,7,8
 117 1223 117 1223 121 1301 c 0,9,10
 121 1324 121 1324 130 1344.5 c 128,-1,11
 139 1365 139 1365 154 1380 c 128,-1,12
 169 1395 169 1395 189.5 1404 c 128,-1,13
 210 1413 210 1413 233 1413 c 0,14,15
 262 1413 262 1413 285 1401 c 128,-1,16
 308 1389 308 1389 323.5 1370 c 128,-1,17
 339 1351 339 1351 347.5 1326 c 128,-1,18
 356 1301 356 1301 356 1276 c 0,0,1
664 1276 m 0,19,20
 662 1184 662 1184 600.5 1095 c 128,-1,21
 539 1006 539 1006 461 969 c 1,22,-1
 418 1051 l 1,23,24
 440 1063 440 1063 471 1097 c 128,-1,25
 502 1131 502 1131 516 1184 c 1,26,27
 424 1223 424 1223 428 1301 c 0,28,29
 428 1324 428 1324 437 1344.5 c 128,-1,30
 446 1365 446 1365 461.5 1380 c 128,-1,31
 477 1395 477 1395 497.5 1404 c 128,-1,32
 518 1413 518 1413 541 1413 c 0,33,34
 570 1413 570 1413 593 1401 c 128,-1,35
 616 1389 616 1389 631.5 1370 c 128,-1,36
 647 1351 647 1351 655.5 1326 c 128,-1,37
 664 1301 664 1301 664 1276 c 0,19,20
EndSplineSet
EndChar

StartChar: divide
Encoding: 247 247 46
Width: 1093
Flags: W
LayerCount: 2
Fore
SplineSet
624 674 m 1,0,-1
 466 674 l 1,1,-1
 466 855 l 1,2,-1
 624 855 l 1,3,-1
 624 674 l 1,0,-1
933 383 m 1,4,-1
 157 383 l 1,5,-1
 157 489 l 1,6,-1
 933 489 l 1,7,-1
 933 383 l 1,4,-1
624 17 m 1,8,-1
 466 17 l 1,9,-1
 466 198 l 1,10,-1
 624 198 l 1,11,-1
 624 17 l 1,8,-1
EndSplineSet
EndChar

StartChar: lozenge
Encoding: 9674 9674 47
Width: 1118
Flags: W
LayerCount: 2
Fore
SplineSet
1003 699 m 1,0,-1
 560 197 l 1,1,-1
 117 699 l 1,2,-1
 560 1202 l 1,3,-1
 1003 699 l 1,0,-1
848 699 m 1,4,-1
 560 1036 l 1,5,-1
 271 699 l 1,6,-1
 560 364 l 1,7,-1
 848 699 l 1,4,-1
EndSplineSet
EndChar

StartChar: fraction
Encoding: 8260 8260 48
Width: 742
Flags: W
LayerCount: 2
Fore
SplineSet
740 1101 m 1,0,-1
 101 -82 l 1,1,-1
 -9 -82 l 1,2,-1
 629 1101 l 1,3,-1
 740 1101 l 1,0,-1
EndSplineSet
EndChar

StartChar: guilsinglleft
Encoding: 8249 8249 49
Width: 1117
Flags: W
LayerCount: 2
Fore
SplineSet
955 58 m 1,0,-1
 150 444 l 1,1,-1
 150 534 l 1,2,-1
 955 918 l 1,3,-1
 955 784 l 1,4,-1
 331 489 l 1,5,-1
 955 192 l 1,6,-1
 955 58 l 1,0,-1
EndSplineSet
EndChar

StartChar: daggerdbl
Encoding: 8225 8225 52
Width: 932
Flags: W
LayerCount: 2
Fore
SplineSet
349 -231 m 1,0,-1
 481 185 l 1,1,-1
 161 154 l 1,2,-1
 211 261 l 1,3,-1
 490 229 l 1,4,-1
 567 616 l 1,5,-1
 247 586 l 1,6,-1
 297 693 l 1,7,-1
 575 661 l 1,8,-1
 608 1066 l 1,9,-1
 758 1093 l 1,10,-1
 620 661 l 1,11,-1
 940 693 l 1,12,-1
 889 586 l 1,13,-1
 611 616 l 1,14,-1
 535 229 l 1,15,-1
 855 261 l 1,16,-1
 804 154 l 1,17,-1
 525 185 l 1,18,-1
 499 -213 l 1,19,-1
 349 -231 l 1,0,-1
EndSplineSet
EndChar

StartChar: middot.001
Encoding: 8729 8729 53
Width: 620
Flags: W
LayerCount: 2
Fore
SplineSet
429 516 m 1,0,-1
 190 516 l 1,1,-1
 190 789 l 1,2,-1
 429 789 l 1,3,-1
 429 516 l 1,0,-1
EndSplineSet
EndChar

StartChar: quotesinglbase
Encoding: 8218 8218 54
Width: 418
Flags: W
LayerCount: 2
Fore
SplineSet
103 128 m 1,0,-1
 247 231 l 1,1,-1
 353 90 l 1,2,3
 345 -56 345 -56 262.5 -134.5 c 128,-1,4
 180 -213 180 -213 36 -213 c 1,5,-1
 76 -168 l 1,6,7
 189 -158 189 -158 211 -18 c 1,8,-1
 103 128 l 1,0,-1
EndSplineSet
EndChar

StartChar: quotedblbase
Encoding: 8222 8222 55
Width: 684
Flags: W
LayerCount: 2
Fore
SplineSet
91 92 m 1,0,-1
 204 178 l 1,1,-1
 292 64 l 1,2,3
 270 -213 270 -213 31 -213 c 1,4,-1
 60 -168 l 1,5,6
 166 -148 166 -148 179 -16 c 1,7,-1
 91 92 l 1,0,-1
401 92 m 1,8,-1
 516 178 l 1,9,-1
 602 64 l 1,10,11
 581 -213 581 -213 341 -213 c 1,12,-1
 372 -168 l 1,13,14
 476 -148 476 -148 490 -16 c 1,15,-1
 401 92 l 1,8,-1
EndSplineSet
EndChar

StartChar: perthousand
Encoding: 8240 8240 56
Width: 1571
Flags: W
LayerCount: 2
Fore
SplineSet
385 533 m 0,0,1
 304 533 304 533 254.5 584.5 c 128,-1,2
 205 636 205 636 205 722 c 0,3,4
 205 865 205 865 286.5 965.5 c 128,-1,5
 368 1066 368 1066 483 1066 c 0,6,7
 567 1066 567 1066 617.5 1014.5 c 128,-1,8
 668 963 668 963 668 877 c 0,9,10
 668 733 668 733 585.5 633 c 128,-1,11
 503 533 503 533 385 533 c 0,0,1
311 715 m 0,12,13
 311 578 311 578 398 578 c 0,14,15
 463 578 463 578 517 671.5 c 128,-1,16
 571 765 571 765 571 881 c 0,17,18
 571 1022 571 1022 483 1022 c 0,19,20
 416 1022 416 1022 363.5 928 c 128,-1,21
 311 834 311 834 311 715 c 0,12,13
850 0 m 0,22,23
 769 0 769 0 719.5 51.5 c 128,-1,24
 670 103 670 103 670 189 c 0,25,26
 670 331 670 331 751 432 c 128,-1,27
 832 533 832 533 947 533 c 0,28,29
 1031 533 1031 533 1081.5 481.5 c 128,-1,30
 1132 430 1132 430 1132 344 c 0,31,32
 1132 200 1132 200 1049.5 100 c 128,-1,33
 967 0 967 0 850 0 c 0,22,23
776 182 m 0,34,35
 776 44 776 44 862 44 c 0,36,37
 929 44 929 44 982 138 c 128,-1,38
 1035 232 1035 232 1035 348 c 0,39,40
 1035 490 1035 490 948 490 c 0,41,42
 880 490 880 490 828 395.5 c 128,-1,43
 776 301 776 301 776 182 c 0,34,35
131 -27 m 1,44,-1
 1111 1093 l 1,45,-1
 1206 1093 l 1,46,-1
 225 -27 l 1,47,-1
 131 -27 l 1,44,-1
1376 0 m 0,48,49
 1294 0 1294 0 1244.5 51.5 c 128,-1,50
 1195 103 1195 103 1195 189 c 0,51,52
 1195 331 1195 331 1276.5 432 c 128,-1,53
 1358 533 1358 533 1473 533 c 0,54,55
 1557 533 1557 533 1607.5 481.5 c 128,-1,56
 1658 430 1658 430 1658 344 c 0,57,58
 1658 200 1658 200 1575.5 100 c 128,-1,59
 1493 0 1493 0 1376 0 c 0,48,49
1301 183 m 0,60,61
 1301 44 1301 44 1389 44 c 0,62,63
 1453 44 1453 44 1507 138 c 128,-1,64
 1561 232 1561 232 1561 347 c 0,65,66
 1561 490 1561 490 1473 490 c 0,67,68
 1406 490 1406 490 1353.5 395.5 c 128,-1,69
 1301 301 1301 301 1301 183 c 0,60,61
EndSplineSet
EndChar

StartChar: multiply
Encoding: 215 215 60
Width: 1159
Flags: W
LayerCount: 2
Fore
SplineSet
963 123 m 1,0,-1
 891 51 l 1,1,-1
 612 332 l 1,2,-1
 334 51 l 1,3,-1
 262 123 l 1,4,-1
 542 401 l 1,5,-1
 262 680 l 1,6,-1
 334 752 l 1,7,-1
 612 471 l 1,8,-1
 891 752 l 1,9,-1
 963 680 l 1,10,-1
 683 401 l 1,11,-1
 963 123 l 1,0,-1
EndSplineSet
EndChar

StartChar: macron
Encoding: 175 175 61
Width: 1118
Flags: W
LayerCount: 2
Fore
SplineSet
1134 1259 m 1,0,-1
 -16 1259 l 1,1,-1
 -16 1389 l 1,2,-1
 1134 1389 l 1,3,-1
 1134 1259 l 1,0,-1
EndSplineSet
EndChar

StartChar: periodcentered
Encoding: 183 183 62
Width: 724
Flags: W
LayerCount: 2
Fore
SplineSet
482 832 m 1,0,-1
 243 832 l 1,1,-1
 243 1117 l 1,2,-1
 482 1117 l 1,3,-1
 482 832 l 1,0,-1
EndSplineSet
EndChar

StartChar: H22073
Encoding: 9633 9633 63
Width: 1237
Flags: W
LayerCount: 2
Fore
SplineSet
146 944 m 1,0,-1
 1090 944 l 1,1,-1
 1090 0 l 1,2,-1
 146 0 l 1,3,-1
 146 944 l 1,0,-1
222 868 m 1,4,-1
 222 76 l 1,5,-1
 1014 76 l 1,6,-1
 1014 868 l 1,7,-1
 222 868 l 1,4,-1
EndSplineSet
EndChar

StartChar: H18543
Encoding: 9642 9642 64
Width: 1089
Flags: W
LayerCount: 2
Fore
SplineSet
886 894 m 1,0,-1
 886 200 l 1,1,-1
 192 200 l 1,2,-1
 192 894 l 1,3,-1
 886 894 l 1,0,-1
EndSplineSet
EndChar

StartChar: H18551
Encoding: 9643 9643 65
Width: 1089
Flags: W
LayerCount: 2
Fore
SplineSet
888 930 m 1,0,-1
 888 235 l 1,1,-1
 193 235 l 1,2,-1
 193 930 l 1,3,-1
 888 930 l 1,0,-1
774 816 m 1,4,-1
 307 816 l 1,5,-1
 307 349 l 1,6,-1
 774 349 l 1,7,-1
 774 816 l 1,4,-1
EndSplineSet
EndChar

StartChar: H18533
Encoding: 9679 9679 66
Width: 1339
Flags: W
LayerCount: 2
Fore
SplineSet
204 775 m 0,0,1
 204 976 204 976 345 1117 c 128,-1,2
 486 1258 486 1258 685 1258 c 0,3,4
 885 1258 885 1258 1026 1117 c 128,-1,5
 1167 976 1167 976 1167 775 c 0,6,7
 1167 577 1167 577 1026 436 c 128,-1,8
 885 295 885 295 685 295 c 0,9,10
 486 295 486 295 345 436 c 128,-1,11
 204 577 204 577 204 775 c 0,0,1
EndSplineSet
EndChar

StartChar: openbullet
Encoding: 9702 9702 67
Width: 1089
Flags: W
LayerCount: 2
Fore
SplineSet
544 1392 m 0,0,1
 700 1392 700 1392 810.5 1281.5 c 128,-1,2
 921 1171 921 1171 921 1015 c 256,3,4
 921 859 921 859 810.5 749 c 128,-1,5
 700 639 700 639 544 639 c 256,6,7
 388 639 388 639 278 749 c 128,-1,8
 168 859 168 859 168 1015 c 256,9,10
 168 1171 168 1171 277.5 1281.5 c 128,-1,11
 387 1392 387 1392 544 1392 c 0,0,1
544 1278 m 0,12,13
 435 1278 435 1278 358.5 1200.5 c 128,-1,14
 282 1123 282 1123 282 1015 c 0,15,16
 282 906 282 906 359 829.5 c 128,-1,17
 436 753 436 753 544 753 c 256,18,19
 652 753 652 753 729.5 829.5 c 128,-1,20
 807 906 807 906 807 1015 c 0,21,22
 807 1123 807 1123 730.5 1200.5 c 128,-1,23
 654 1278 654 1278 544 1278 c 0,12,13
EndSplineSet
EndChar

StartChar: uniFFFC
Encoding: 65532 65532 68
Width: 2048
Flags: W
LayerCount: 2
Fore
SplineSet
2048 1150 m 1,0,-1
 1948 1150 l 1,1,-1
 1948 1373 l 1,2,-1
 1725 1373 l 1,3,-1
 1725 1473 l 1,4,-1
 2048 1473 l 1,5,-1
 2048 1150 l 1,0,-1
1473 1373 m 1,6,-1
 1150 1373 l 1,7,-1
 1150 1473 l 1,8,-1
 1473 1473 l 1,9,-1
 1473 1373 l 1,6,-1
2048 575 m 1,10,-1
 1948 575 l 1,11,-1
 1948 898 l 1,12,-1
 2048 898 l 1,13,-1
 2048 575 l 1,10,-1
1782 611 m 2,14,15
 1782 370 1782 370 1571 370 c 0,16,17
 1485 370 1485 370 1433 415 c 1,18,-1
 1506 494 l 1,19,20
 1531 468 1531 468 1571 468 c 0,21,22
 1666 468 1666 468 1666 606 c 2,23,-1
 1666 1090 l 1,24,-1
 1782 1090 l 1,25,-1
 1782 611 l 2,14,15
898 1373 m 1,26,-1
 575 1373 l 1,27,-1
 575 1473 l 1,28,-1
 898 1473 l 1,29,-1
 898 1373 l 1,26,-1
2048 0 m 1,30,-1
 1725 0 l 1,31,-1
 1725 100 l 1,32,-1
 1948 100 l 1,33,-1
 1948 323 l 1,34,-1
 2048 323 l 1,35,-1
 2048 0 l 1,30,-1
1423 591 m 0,36,37
 1423 382 1423 382 1149 382 c 2,38,-1
 909 382 l 1,39,-1
 909 1090 l 1,40,-1
 1144 1090 l 2,41,42
 1393 1090 1393 1090 1393 904 c 0,43,44
 1393 813 1393 813 1304 759 c 1,45,46
 1423 713 1423 713 1423 591 c 0,36,37
323 1373 m 1,47,-1
 100 1373 l 1,48,-1
 100 1150 l 1,49,-1
 0 1150 l 1,50,-1
 0 1473 l 1,51,-1
 323 1473 l 1,52,-1
 323 1373 l 1,47,-1
1473 0 m 1,53,-1
 1150 0 l 1,54,-1
 1150 100 l 1,55,-1
 1473 100 l 1,56,-1
 1473 0 l 1,53,-1
854 735 m 0,57,58
 854 562 854 562 772 466 c 128,-1,59
 690 370 690 370 537 370 c 256,60,61
 384 370 384 370 303.5 466 c 128,-1,62
 223 562 223 562 223 735 c 0,63,64
 223 910 223 910 303.5 1006 c 128,-1,65
 384 1102 384 1102 537 1102 c 256,66,67
 690 1102 690 1102 772 1006 c 128,-1,68
 854 910 854 910 854 735 c 0,57,58
100 575 m 1,69,-1
 0 575 l 1,70,-1
 0 898 l 1,71,-1
 100 898 l 1,72,-1
 100 575 l 1,69,-1
898 0 m 1,73,-1
 575 0 l 1,74,-1
 575 100 l 1,75,-1
 898 100 l 1,76,-1
 898 0 l 1,73,-1
323 0 m 1,77,-1
 0 0 l 1,78,-1
 0 323 l 1,79,-1
 100 323 l 1,80,-1
 100 100 l 1,81,-1
 323 100 l 1,82,-1
 323 0 l 1,77,-1
1277 893 m 0,83,84
 1277 992 1277 992 1114 992 c 2,85,-1
 1025 992 l 1,86,-1
 1025 798 l 1,87,-1
 1126 798 l 2,88,89
 1277 798 1277 798 1277 893 c 0,83,84
1307 591 m 0,90,91
 1307 700 1307 700 1136 700 c 2,92,-1
 1025 700 l 1,93,-1
 1025 480 l 1,94,-1
 1149 480 l 2,95,96
 1307 480 1307 480 1307 591 c 0,90,91
738 735 m 0,97,98
 738 1004 738 1004 537 1004 c 0,99,100
 339 1004 339 1004 339 735 c 0,101,102
 339 468 339 468 537 468 c 0,103,104
 738 468 738 468 738 735 c 0,97,98
EndSplineSet
EndChar

StartChar: zerowidthnonjoiner
Encoding: 8204 8204 88
Width: 0
GlyphClass: 2
Flags: W
LayerCount: 2
Fore
SplineSet
36 1289 m 1,0,-1
 36 -275 l 1,1,-1
 -36 -275 l 1,2,-1
 -36 1289 l 1,3,-1
 36 1289 l 1,0,-1
EndSplineSet
EndChar

StartChar: zerowidthjoiner
Encoding: 8205 8205 89
Width: 0
GlyphClass: 2
Flags: W
LayerCount: 2
Fore
SplineSet
36 -275 m 1,0,-1
 -36 -275 l 1,1,-1
 -36 1114 l 1,2,-1
 -170 978 l 1,3,-1
 -219 1027 l 1,4,-1
 -48 1196 l 1,5,-1
 -219 1364 l 1,6,-1
 -170 1413 l 1,7,-1
 0 1242 l 1,8,-1
 170 1413 l 1,9,-1
 219 1364 l 1,10,-1
 48 1196 l 1,11,-1
 219 1027 l 1,12,-1
 170 978 l 1,13,-1
 36 1114 l 1,14,-1
 36 -275 l 1,0,-1
EndSplineSet
EndChar

StartChar: lefttorightmark
Encoding: 8206 8206 90
Width: 0
GlyphClass: 2
Flags: W
LayerCount: 2
Fore
SplineSet
430 1198 m 1,0,-1
 213 984 l 1,1,-1
 164 1033 l 1,2,-1
 301 1163 l 1,3,-1
 35 1163 l 1,4,-1
 35 -275 l 1,5,-1
 -36 -275 l 1,6,-1
 -36 1234 l 1,7,-1
 301 1234 l 1,8,-1
 164 1364 l 1,9,-1
 213 1413 l 1,10,-1
 430 1198 l 1,0,-1
EndSplineSet
EndChar

StartChar: righttoleftmark
Encoding: 8207 8207 91
Width: 0
GlyphClass: 2
Flags: W
LayerCount: 2
Fore
SplineSet
35 -275 m 1,0,-1
 -36 -275 l 1,1,-1
 -36 1163 l 1,2,-1
 -302 1163 l 1,3,-1
 -165 1033 l 1,4,-1
 -214 984 l 1,5,-1
 -431 1198 l 1,6,-1
 -214 1413 l 1,7,-1
 -165 1364 l 1,8,-1
 -302 1234 l 1,9,-1
 35 1234 l 1,10,-1
 35 -275 l 1,0,-1
EndSplineSet
EndChar

StartChar: afii57388.001
Encoding: 1644 1644 92
Width: 353
GlyphClass: 2
Flags: W
LayerCount: 2
Fore
SplineSet
210 654 m 0,0,1
 200 627 200 627 185 603 c 0,2,3
 180 597 180 597 173.5 593.5 c 128,-1,4
 167 590 167 590 162 590 c 128,-1,5
 157 590 157 590 154.5 593 c 128,-1,6
 152 596 152 596 155 603 c 0,7,8
 187 660 187 660 202.5 713.5 c 128,-1,9
 218 767 218 767 218 800 c 1,10,11
 194 806 194 806 179 816 c 128,-1,12
 164 826 164 826 155 837.5 c 128,-1,13
 146 849 146 849 143 859 c 128,-1,14
 140 869 140 869 140 874 c 0,15,16
 140 890 140 890 145.5 907 c 128,-1,17
 151 924 151 924 160.5 937.5 c 128,-1,18
 170 951 170 951 183.5 959.5 c 128,-1,19
 197 968 197 968 213 968 c 0,20,21
 272 968 272 968 272 874 c 0,22,23
 272 859 272 859 268 835 c 128,-1,24
 264 811 264 811 256 781.5 c 128,-1,25
 248 752 248 752 236.5 719.5 c 128,-1,26
 225 687 225 687 210 654 c 0,0,1
EndSplineSet
EndChar

StartChar: afii57409
Encoding: 1569 1569 93
Width: 518
GlyphClass: 2
Flags: W
AnchorPoint: "Anchor-1" 345 -255 basechar 0
AnchorPoint: "Anchor-0" 360 525 basechar 0
LayerCount: 2
Fore
SplineSet
518 -1 m 1,0,-1
 178 -1 l 1,1,-1
 178 105 l 1,2,-1
 246 105 l 1,3,-1
 246 166 l 2,4,5
 246 228 246 228 290 269 c 128,-1,6
 334 310 334 310 396 310 c 2,7,-1
 518 310 l 1,8,-1
 518 206 l 1,9,-1
 431 206 l 2,10,11
 352 206 352 206 352 153 c 2,12,-1
 352 105 l 1,13,-1
 518 105 l 1,14,-1
 518 -1 l 1,0,-1
EndSplineSet
EndChar

StartChar: afii57440
Encoding: 1600 1600 94
Width: 476
GlyphClass: 2
Flags: W
LayerCount: 2
Fore
SplineSet
476 0 m 1,0,-1
 -69 0 l 1,1,-1
 -69 216 l 1,2,-1
 476 216 l 1,3,-1
 476 0 l 1,0,-1
EndSplineSet
EndChar

StartChar: afii57453
Encoding: 1613 1613 95
Width: 0
GlyphClass: 4
Flags: W
AnchorPoint: "Anchor-3" 0 0 mark 0
AnchorPoint: "Anchor-1" 0 0 mark 0
LayerCount: 2
Fore
SplineSet
196 45 m 1,0,-1
 -180 45 l 1,1,-1
 -180 124 l 1,2,-1
 196 124 l 1,3,-1
 196 45 l 1,0,-1
193 -127 m 1,4,-1
 -183 -127 l 1,5,-1
 -183 -48 l 1,6,-1
 193 -48 l 1,7,-1
 193 -127 l 1,4,-1
EndSplineSet
EndChar

StartChar: afii57381
Encoding: 1642 1642 96
Width: 805
GlyphClass: 2
Flags: W
LayerCount: 2
Fore
SplineSet
718 160 m 256,0,1
 718 115 718 115 685.5 82.5 c 128,-1,2
 653 50 653 50 608 50 c 256,3,4
 563 50 563 50 530.5 82.5 c 128,-1,5
 498 115 498 115 498 160 c 256,6,7
 498 205 498 205 530.5 237 c 128,-1,8
 563 269 563 269 608 269 c 256,9,10
 653 269 653 269 685.5 237 c 128,-1,11
 718 205 718 205 718 160 c 256,0,1
715 950 m 1,12,-1
 155 5 l 1,13,-1
 75 60 l 1,14,-1
 632 1003 l 1,15,-1
 715 950 l 1,12,-1
300 814 m 256,16,17
 300 769 300 769 267.5 736.5 c 128,-1,18
 235 704 235 704 190 704 c 256,19,20
 145 704 145 704 112.5 736.5 c 128,-1,21
 80 769 80 769 80 814 c 256,22,23
 80 859 80 859 112.5 891 c 128,-1,24
 145 923 145 923 190 923 c 256,25,26
 235 923 235 923 267.5 891 c 128,-1,27
 300 859 300 859 300 814 c 256,16,17
EndSplineSet
EndChar

StartChar: afii57461
Encoding: 1643 1643 97
Width: 1061
GlyphClass: 2
Flags: W
LayerCount: 2
Fore
SplineSet
86 -667 m 1,0,-1
 754 485 l 1,1,-1
 902 485 l 1,2,-1
 235 -667 l 1,3,-1
 86 -667 l 1,0,-1
EndSplineSet
EndChar

StartChar: afii63167
Encoding: 1645 1645 98
Width: 1118
GlyphClass: 2
Flags: W
LayerCount: 2
Fore
SplineSet
694 729 m 1,0,-1
 1057 733 l 1,1,-1
 1057 610 l 1,2,-1
 702 612 l 1,3,-1
 971 352 l 1,4,-1
 883 264 l 1,5,-1
 616 539 l 1,6,-1
 623 168 l 1,7,-1
 498 168 l 1,8,-1
 502 539 l 1,9,-1
 236 264 l 1,10,-1
 147 352 l 1,11,-1
 422 614 l 1,12,-1
 63 610 l 1,13,-1
 63 733 l 1,14,-1
 420 729 l 1,15,-1
 170 975 l 1,16,-1
 258 1065 l 1,17,-1
 502 817 l 1,18,-1
 498 1176 l 1,19,-1
 623 1176 l 1,20,-1
 616 813 l 1,21,-1
 860 1065 l 1,22,-1
 948 975 l 1,23,-1
 694 729 l 1,0,-1
EndSplineSet
EndChar

StartChar: afii57459
Encoding: 65543 -1 99
Width: 890
GlyphClass: 2
Flags: W
LayerCount: 2
Fore
SplineSet
890 161 m 2,0,1
 890 0 890 0 715 0 c 2,2,-1
 -70 0 l 1,3,-1
 -70 216 l 1,4,-1
 217 216 l 1,5,-1
 217 483 l 2,6,7
 217 644 217 644 392 644 c 2,8,-1
 715 644 l 2,9,10
 890 644 890 644 890 483 c 2,11,-1
 890 161 l 2,0,1
665 269 m 2,12,-1
 665 377 l 2,13,14
 665 429 665 429 608 429 c 2,15,-1
 495 429 l 2,16,17
 438 429 438 429 438 377 c 2,18,-1
 438 269 l 2,19,20
 438 216 438 216 495 216 c 2,21,-1
 608 216 l 2,22,23
 665 216 665 216 665 269 c 2,12,-1
EndSplineSet
EndChar

StartChar: afii57543
Encoding: 65544 -1 100
Width: 546
Flags: W
LayerCount: 2
Fore
SplineSet
546 0 m 1,0,-1
 -70 0 l 1,1,-1
 -70 216 l 1,2,-1
 220 216 l 1,3,-1
 220 642 l 1,4,-1
 439 642 l 1,5,-1
 439 216 l 1,6,-1
 546 216 l 1,7,-1
 546 0 l 1,0,-1
EndSplineSet
EndChar

StartChar: afii57534
Encoding: 1749 1749 101
Width: 828
GlyphClass: 2
Flags: W
LayerCount: 2
Fore
SplineSet
828 0 m 1,0,-1
 352 0 l 2,1,2
 177 0 177 0 177 160 c 2,3,-1
 177 482 l 2,4,5
 177 644 177 644 352 644 c 2,6,-1
 828 644 l 1,7,-1
 828 0 l 1,0,-1
621 215 m 1,8,-1
 621 429 l 1,9,-1
 454 429 l 2,10,11
 397 429 397 429 397 377 c 2,12,-1
 397 269 l 2,13,14
 397 215 397 215 454 215 c 2,15,-1
 621 215 l 1,8,-1
EndSplineSet
EndChar

StartChar: afii64240
Encoding: 65546 -1 103
Width: 551
Flags: W
LayerCount: 2
Fore
SplineSet
368 114 m 256,0,1
 368 69 368 69 335.5 36.5 c 128,-1,2
 303 4 303 4 258 4 c 256,3,4
 213 4 213 4 180.5 36.5 c 128,-1,5
 148 69 148 69 148 114 c 256,6,7
 148 159 148 159 180.5 191 c 128,-1,8
 213 223 213 223 258 223 c 256,9,10
 303 223 303 223 335.5 191 c 128,-1,11
 368 159 368 159 368 114 c 256,0,1
EndSplineSet
EndChar

StartChar: afii64241
Encoding: 65547 -1 104
Width: 714
Flags: W
LayerCount: 2
Fore
SplineSet
590 106 m 256,0,1
 590 60 590 60 558 28 c 128,-1,2
 526 -4 526 -4 480 -4 c 0,3,4
 435 -4 435 -4 403.5 28.5 c 128,-1,5
 372 61 372 61 372 106 c 256,6,7
 372 151 372 151 403.5 183.5 c 128,-1,8
 435 216 435 216 480 216 c 0,9,10
 526 216 526 216 558 184 c 128,-1,11
 590 152 590 152 590 106 c 256,0,1
340 106 m 256,12,13
 340 61 340 61 308 28.5 c 128,-1,14
 276 -4 276 -4 231 -4 c 256,15,16
 186 -4 186 -4 154 28.5 c 128,-1,17
 122 61 122 61 122 106 c 256,18,19
 122 151 122 151 154 183.5 c 128,-1,20
 186 216 186 216 231 216 c 256,21,22
 276 216 276 216 308 183.5 c 128,-1,23
 340 151 340 151 340 106 c 256,12,13
EndSplineSet
EndChar

StartChar: afii63954
Encoding: 65548 -1 105
Width: 754
Flags: W
LayerCount: 2
Fore
SplineSet
506 315 m 256,0,1
 506 269 506 269 474 237 c 128,-1,2
 442 205 442 205 396 205 c 0,3,4
 351 205 351 205 319 237.5 c 128,-1,5
 287 270 287 270 287 315 c 256,6,7
 287 360 287 360 319 392 c 128,-1,8
 351 424 351 424 396 424 c 0,9,10
 442 424 442 424 474 392.5 c 128,-1,11
 506 361 506 361 506 315 c 256,0,1
629 117 m 256,12,13
 629 72 629 72 597 39.5 c 128,-1,14
 565 7 565 7 520 7 c 256,15,16
 475 7 475 7 443 39.5 c 128,-1,17
 411 72 411 72 411 117 c 256,18,19
 411 162 411 162 443 194.5 c 128,-1,20
 475 227 475 227 520 227 c 256,21,22
 565 227 565 227 597 194.5 c 128,-1,23
 629 162 629 162 629 117 c 256,12,13
380 117 m 256,24,25
 380 72 380 72 347.5 39.5 c 128,-1,26
 315 7 315 7 270 7 c 256,27,28
 225 7 225 7 193 39.5 c 128,-1,29
 161 72 161 72 161 117 c 256,30,31
 161 162 161 162 193 194.5 c 128,-1,32
 225 227 225 227 270 227 c 256,33,34
 315 227 315 227 347.5 194.5 c 128,-1,35
 380 162 380 162 380 117 c 256,24,25
EndSplineSet
EndChar

StartChar: afii57382
Encoding: 65549 -1 106
Width: 721
Flags: W
LayerCount: 2
Fore
SplineSet
598 -114 m 256,0,1
 598 -159 598 -159 565.5 -191.5 c 128,-1,2
 533 -224 533 -224 488 -224 c 256,3,4
 443 -224 443 -224 410.5 -191.5 c 128,-1,5
 378 -159 378 -159 378 -114 c 256,6,7
 378 -69 378 -69 410.5 -36.5 c 128,-1,8
 443 -4 443 -4 488 -4 c 256,9,10
 533 -4 533 -4 565.5 -36.5 c 128,-1,11
 598 -69 598 -69 598 -114 c 256,0,1
348 -114 m 256,12,13
 348 -159 348 -159 315.5 -191.5 c 128,-1,14
 283 -224 283 -224 238 -224 c 256,15,16
 193 -224 193 -224 160.5 -191.5 c 128,-1,17
 128 -159 128 -159 128 -114 c 256,18,19
 128 -69 128 -69 160.5 -36.5 c 128,-1,20
 193 -4 193 -4 238 -4 c 256,21,22
 283 -4 283 -4 315.5 -36.5 c 128,-1,23
 348 -69 348 -69 348 -114 c 256,12,13
474 -311 m 256,24,25
 474 -356 474 -356 441.5 -388.5 c 128,-1,26
 409 -421 409 -421 364 -421 c 256,27,28
 319 -421 319 -421 287 -388.5 c 128,-1,29
 255 -356 255 -356 255 -311 c 256,30,31
 255 -266 255 -266 287 -233.5 c 128,-1,32
 319 -201 319 -201 364 -201 c 256,33,34
 409 -201 409 -201 441.5 -233.5 c 128,-1,35
 474 -266 474 -266 474 -311 c 256,24,25
EndSplineSet
EndChar

StartChar: afii64242
Encoding: 65550 -1 107
Width: 492
Flags: W
LayerCount: 2
Fore
SplineSet
439 217 m 2,0,1
 439 0 439 0 216 0 c 2,2,-1
 -70 0 l 1,3,-1
 -70 216 l 1,4,-1
 82 216 l 2,5,6
 161 215 161 215 180 223 c 0,7,8
 220 241 220 241 220 313 c 2,9,-1
 220 642 l 1,10,-1
 439 642 l 1,11,-1
 439 217 l 2,0,1
EndSplineSet
EndChar

StartChar: afii57373
Encoding: 65551 -1 112
Width: 0
Flags: W
LayerCount: 2
Fore
SplineSet
399 579 m 1,0,-1
 84 579 l 1,1,-1
 84 678 l 1,2,-1
 147 678 l 1,3,-1
 147 734 l 2,4,5
 147 792 147 792 187 829.5 c 128,-1,6
 227 867 227 867 284 867 c 2,7,-1
 399 867 l 1,8,-1
 399 771 l 1,9,-1
 316 771 l 2,10,11
 245 771 245 771 245 723 c 2,12,-1
 245 678 l 1,13,-1
 399 678 l 1,14,-1
 399 579 l 1,0,-1
EndSplineSet
EndChar

StartChar: afii57374
Encoding: 65552 -1 113
Width: 1001
GlyphClass: 2
Flags: W
LayerCount: 2
Fore
SplineSet
1001 0 m 1,0,-1
 -70 0 l 1,1,-1
 -70 216 l 1,2,-1
 226 216 l 1,3,-1
 226 482 l 2,4,5
 226 644 226 644 401 644 c 2,6,-1
 723 644 l 2,7,8
 899 644 899 644 899 482 c 2,9,-1
 899 216 l 1,10,-1
 1001 216 l 1,11,-1
 1001 0 l 1,0,-1
675 268 m 2,12,-1
 675 377 l 2,13,14
 675 429 675 429 618 429 c 2,15,-1
 505 429 l 2,16,17
 448 429 448 429 448 377 c 2,18,-1
 448 268 l 2,19,20
 448 215 448 215 505 215 c 2,21,-1
 618 215 l 2,22,23
 675 215 675 215 675 268 c 2,12,-1
EndSplineSet
EndChar

StartChar: afii57375
Encoding: 1619 1619 114
Width: 635
GlyphClass: 2
Flags: W
LayerCount: 2
Fore
SplineSet
560 1210 m 1,0,1
 487 1172 487 1172 444 1177 c 1,2,3
 399 1177 399 1177 331 1195 c 128,-1,4
 263 1213 263 1213 220 1213 c 0,5,6
 147 1213 147 1213 147 1143 c 1,7,-1
 45 1157 l 1,8,9
 45 1373 45 1373 183 1373 c 0,10,11
 230 1373 230 1373 314 1354.5 c 128,-1,12
 398 1336 398 1336 446 1336 c 0,13,14
 482 1333 482 1333 560 1365 c 1,15,-1
 560 1210 l 1,0,1
EndSplineSet
EndChar

StartChar: afii57391
Encoding: 59450 59450 115
Width: 1024
GlyphClass: 2
Flags: W
LayerCount: 2
Fore
SplineSet
1024 0 m 1,0,-1
 -70 0 l 1,1,-1
 -70 188 l 1,2,-1
 1024 188 l 1,3,-1
 1024 0 l 1,0,-1
EndSplineSet
EndChar

StartChar: afii57471
Encoding: 65553 -1 116
Width: 1422
Flags: W
LayerCount: 2
Fore
SplineSet
1422 0 m 1,0,-1
 400 0 l 2,1,2
 177 0 177 0 177 216 c 2,3,-1
 177 642 l 1,4,-1
 397 642 l 1,5,-1
 397 314 l 2,6,7
 397 240 397 240 428 224 c 0,8,9
 446 215 446 215 538 215 c 2,10,-1
 1099 215 l 1,11,-1
 1099 642 l 1,12,-1
 1318 642 l 1,13,-1
 1318 216 l 1,14,-1
 1422 216 l 1,15,-1
 1422 0 l 1,0,-1
EndSplineSet
EndChar

StartChar: afii52258
Encoding: 65554 -1 117
Width: 1650
GlyphClass: 2
Flags: W
LayerCount: 2
Fore
SplineSet
1650 0 m 1,0,-1
 400 0 l 2,1,2
 177 0 177 0 177 217 c 2,3,-1
 177 644 l 1,4,-1
 397 644 l 1,5,-1
 397 313 l 2,6,7
 397 240 397 240 436 223 c 0,8,9
 454 215 454 215 538 215 c 2,10,-1
 874 215 l 1,11,-1
 874 482 l 2,12,13
 874 644 874 644 1049 644 c 2,14,-1
 1372 644 l 2,15,16
 1547 644 1547 644 1547 482 c 2,17,-1
 1547 216 l 1,18,-1
 1650 216 l 1,19,-1
 1650 0 l 1,0,-1
1325 268 m 2,20,-1
 1325 377 l 2,21,22
 1325 429 1325 429 1268 429 c 2,23,-1
 1154 429 l 2,24,25
 1097 429 1097 429 1097 377 c 2,26,-1
 1097 268 l 2,27,28
 1097 215 1097 215 1154 215 c 2,29,-1
 1268 215 l 2,30,31
 1325 215 1325 215 1325 268 c 2,20,-1
EndSplineSet
EndChar

StartChar: afii62889
Encoding: 65555 -1 123
Width: 1319
Flags: W
LayerCount: 2
Fore
SplineSet
1319 0 m 1,0,-1
 1217 0 l 1,1,2
 1217 -220 1217 -220 1067.5 -364 c 128,-1,3
 918 -508 918 -508 697 -508 c 0,4,5
 481 -508 481 -508 329 -356 c 128,-1,6
 177 -204 177 -204 177 12 c 2,7,-1
 177 523 l 1,8,-1
 397 523 l 1,9,-1
 397 -1 l 2,10,11
 397 -117 397 -117 487.5 -208 c 128,-1,12
 578 -299 578 -299 694 -299 c 0,13,14
 815 -299 815 -299 904 -210.5 c 128,-1,15
 993 -122 993 -122 993 -1 c 1,16,-1
 719 -1 l 2,17,18
 543 -1 543 -1 543 160 c 2,19,-1
 543 481 l 2,20,21
 543 643 543 643 719 643 c 2,22,-1
 1041 643 l 2,23,24
 1217 643 1217 643 1217 481 c 2,25,-1
 1217 216 l 1,26,-1
 1319 216 l 1,27,-1
 1319 0 l 1,0,-1
993 268 m 2,28,-1
 993 376 l 2,29,30
 993 428 993 428 936 428 c 2,31,-1
 823 428 l 2,32,33
 766 428 766 428 766 376 c 2,34,-1
 766 268 l 2,35,36
 766 215 766 215 823 215 c 2,37,-1
 936 215 l 2,38,39
 993 215 993 215 993 268 c 2,28,-1
EndSplineSet
EndChar

StartChar: afii62887
Encoding: 65556 -1 124
Width: 1320
Flags: W
LayerCount: 2
Fore
SplineSet
1318 217 m 2,0,1
 1318 0 1318 0 1095 0 c 2,2,-1
 400 0 l 2,3,4
 177 0 177 0 177 217 c 2,5,-1
 177 642 l 1,6,-1
 397 642 l 1,7,-1
 397 313 l 2,8,9
 397 240 397 240 436 223 c 0,10,11
 454 215 454 215 538 215 c 2,12,-1
 961 215 l 2,13,14
 1041 215 1041 215 1059 223 c 0,15,16
 1099 241 1099 241 1099 313 c 2,17,-1
 1099 642 l 1,18,-1
 1318 642 l 1,19,-1
 1318 217 l 2,0,1
EndSplineSet
EndChar

StartChar: afii62888
Encoding: 1697 1697 125
Width: 1547
GlyphClass: 2
Flags: W
LayerCount: 2
Fore
SplineSet
1547 161 m 2,0,1
 1547 0 1547 0 1372 0 c 2,2,-1
 400 0 l 2,3,4
 177 0 177 0 177 217 c 2,5,-1
 177 644 l 1,6,-1
 397 644 l 1,7,-1
 397 313 l 2,8,9
 397 240 397 240 436 223 c 0,10,11
 454 215 454 215 538 215 c 2,12,-1
 874 215 l 1,13,-1
 874 482 l 2,14,15
 874 644 874 644 1049 644 c 2,16,-1
 1372 644 l 2,17,18
 1547 644 1547 644 1547 482 c 2,19,-1
 1547 161 l 2,0,1
1325 268 m 2,20,-1
 1325 377 l 2,21,22
 1325 429 1325 429 1268 429 c 2,23,-1
 1154 429 l 2,24,25
 1097 429 1097 429 1097 377 c 2,26,-1
 1097 268 l 2,27,28
 1097 215 1097 215 1154 215 c 2,29,-1
 1268 215 l 2,30,31
 1325 215 1325 215 1325 268 c 2,20,-1
EndSplineSet
Substitution2: "'medi' Medial Forms in Arabic lookup 3 subtable" afii57374
Substitution2: "'fina' Terminal Forms in Arabic lookup 2 subtable" afii52258
Substitution2: "'init' Initial Forms in Arabic lookup 1 subtable" afii57459
EndChar

StartChar: afii57567
Encoding: 1705 1705 132
Width: 1760
GlyphClass: 2
Flags: W
AnchorPoint: "Anchor-1" 945 -480 basechar 0
AnchorPoint: "Anchor-0" 1035 1320 basechar 0
LayerCount: 2
Fore
SplineSet
1760 0 m 1,0,-1
 400 0 l 2,1,2
 177 0 177 0 177 217 c 2,3,-1
 177 447 l 1,4,-1
 397 447 l 1,5,-1
 397 311 l 2,6,7
 397 215 397 215 498 215 c 2,8,-1
 1530 215 l 1,9,-1
 1530 333 l 2,10,11
 1530 409 1530 409 1500 422 c 0,12,13
 1480 431 1480 431 1434 431 c 2,14,-1
 800 431 l 2,15,16
 709 431 709 431 668 465 c 0,17,18
 624 502 624 502 624 591 c 2,19,-1
 623 1080 l 1,20,-1
 1760 1080 l 1,21,-1
 1760 865 l 1,22,-1
 853 865 l 1,23,-1
 853 740 l 2,24,25
 853 674 853 674 871 657 c 0,26,27
 886 643 886 643 949 643 c 2,28,-1
 1582 643 l 2,29,30
 1760 643 1760 643 1760 483 c 2,31,-1
 1760 0 l 1,0,-1
EndSplineSet
Substitution2: "'medi' Medial Forms in Arabic lookup 3 subtable" afii52306
Substitution2: "'fina' Terminal Forms in Arabic lookup 2 subtable" afii62964
Substitution2: "'init' Initial Forms in Arabic lookup 1 subtable" afii52305
EndChar

StartChar: afii62964
Encoding: 64399 64399 133
Width: 1865
GlyphClass: 2
Flags: W
AnchorPoint: "Anchor-1" 930 -420 basechar 0
AnchorPoint: "Anchor-0" 1005 1320 basechar 0
LayerCount: 2
Fore
SplineSet
1865 0 m 1,0,-1
 400 0 l 2,1,2
 177 0 177 0 177 217 c 2,3,-1
 177 447 l 1,4,-1
 397 447 l 1,5,-1
 397 312 l 2,6,7
 397 216 397 216 498 216 c 2,8,-1
 1530 216 l 1,9,-1
 1530 333 l 2,10,11
 1530 409 1530 409 1500 422 c 0,12,13
 1480 431 1480 431 1434 431 c 2,14,-1
 800 431 l 2,15,16
 709 431 709 431 668 465 c 0,17,18
 624 502 624 502 624 591 c 2,19,-1
 623 1080 l 1,20,-1
 1760 1080 l 1,21,-1
 1760 865 l 1,22,-1
 853 865 l 1,23,-1
 853 740 l 2,24,25
 853 674 853 674 871 657 c 0,26,27
 886 643 886 643 949 643 c 2,28,-1
 1582 643 l 2,29,30
 1760 643 1760 643 1760 483 c 2,31,-1
 1760 216 l 1,32,-1
 1865 216 l 1,33,-1
 1865 0 l 1,0,-1
EndSplineSet
EndChar

StartChar: afii52305
Encoding: 64400 64400 134
Width: 1370
GlyphClass: 2
Flags: W
AnchorPoint: "Anchor-1" 570 -405 basechar 0
AnchorPoint: "Anchor-0" 720 1350 basechar 0
LayerCount: 2
Fore
SplineSet
1370 0 m 1,0,-1
 -70 0 l 1,1,-1
 -70 216 l 1,2,-1
 1140 216 l 1,3,-1
 1140 333 l 2,4,5
 1140 409 1140 409 1110 422 c 0,6,7
 1090 431 1090 431 1044 431 c 2,8,-1
 410 431 l 2,9,10
 319 431 319 431 278 465 c 0,11,12
 234 502 234 502 234 591 c 2,13,-1
 234 1080 l 1,14,-1
 1370 1080 l 1,15,-1
 1370 865 l 1,16,-1
 463 865 l 1,17,-1
 463 740 l 2,18,19
 463 674 463 674 481 657 c 0,20,21
 496 643 496 643 559 643 c 2,22,-1
 1192 643 l 2,23,24
 1370 643 1370 643 1370 483 c 2,25,-1
 1370 0 l 1,0,-1
EndSplineSet
EndChar

StartChar: afii52306
Encoding: 64401 64401 135
Width: 1475
GlyphClass: 2
Flags: W
AnchorPoint: "Anchor-1" 600 -435 basechar 0
AnchorPoint: "Anchor-0" 750 1305 basechar 0
LayerCount: 2
Fore
SplineSet
1475 0 m 1,0,-1
 -70 0 l 1,1,-1
 -70 216 l 1,2,-1
 1140 216 l 1,3,-1
 1140 333 l 2,4,5
 1140 409 1140 409 1110 422 c 0,6,7
 1090 431 1090 431 1044 431 c 2,8,-1
 410 431 l 2,9,10
 319 431 319 431 278 465 c 0,11,12
 234 502 234 502 234 591 c 2,13,-1
 233 1080 l 1,14,-1
 1370 1080 l 1,15,-1
 1370 865 l 1,16,-1
 463 865 l 1,17,-1
 463 740 l 2,18,19
 463 674 463 674 481 657 c 0,20,21
 496 643 496 643 559 643 c 2,22,-1
 1192 643 l 2,23,24
 1370 643 1370 643 1370 483 c 2,25,-1
 1370 216 l 1,26,-1
 1475 216 l 1,27,-1
 1475 0 l 1,0,-1
EndSplineSet
EndChar

StartChar: afii57509
Encoding: 1711 1711 136
Width: 1760
GlyphClass: 2
Flags: W
AnchorPoint: "Anchor-1" 930 -435 basechar 0
AnchorPoint: "Anchor-0" 975 1440 basechar 0
LayerCount: 2
Fore
SplineSet
1760 1139 m 1,0,-1
 625 1139 l 1,1,-1
 625 1229 l 1,2,-1
 1760 1229 l 1,3,-1
 1760 1139 l 1,0,-1
1760 0 m 1,4,-1
 400 0 l 2,5,6
 177 0 177 0 177 217 c 2,7,-1
 177 447 l 1,8,-1
 397 447 l 1,9,-1
 397 311 l 2,10,11
 397 215 397 215 498 215 c 2,12,-1
 1530 215 l 1,13,-1
 1530 333 l 2,14,15
 1530 409 1530 409 1500 422 c 0,16,17
 1480 431 1480 431 1434 431 c 2,18,-1
 800 431 l 2,19,20
 709 431 709 431 668 465 c 0,21,22
 624 502 624 502 624 591 c 2,23,-1
 623 1080 l 1,24,-1
 1760 1080 l 1,25,-1
 1760 865 l 1,26,-1
 853 865 l 1,27,-1
 853 740 l 2,28,29
 853 674 853 674 871 657 c 0,30,31
 886 643 886 643 949 643 c 2,32,-1
 1582 643 l 2,33,34
 1760 643 1760 643 1760 483 c 2,35,-1
 1760 0 l 1,4,-1
EndSplineSet
Substitution2: "'medi' Medial Forms in Arabic lookup 3 subtable" afii62966
Substitution2: "'fina' Terminal Forms in Arabic lookup 2 subtable" afii62967
Substitution2: "'init' Initial Forms in Arabic lookup 1 subtable" afii62965
EndChar

StartChar: afii62967
Encoding: 64403 64403 137
Width: 1866
GlyphClass: 2
Flags: W
AnchorPoint: "Anchor-1" 915 -450 basechar 0
AnchorPoint: "Anchor-0" 960 1470 basechar 0
LayerCount: 2
Fore
SplineSet
1760 1139 m 1,0,-1
 625 1139 l 1,1,-1
 625 1229 l 1,2,-1
 1760 1229 l 1,3,-1
 1760 1139 l 1,0,-1
1866 0 m 1,4,-1
 400 0 l 2,5,6
 177 0 177 0 177 217 c 2,7,-1
 177 447 l 1,8,-1
 397 447 l 1,9,-1
 397 311 l 2,10,11
 397 215 397 215 498 215 c 2,12,-1
 1530 215 l 1,13,-1
 1530 333 l 2,14,15
 1530 409 1530 409 1500 422 c 0,16,17
 1480 431 1480 431 1434 431 c 2,18,-1
 800 431 l 2,19,20
 709 431 709 431 668 465 c 0,21,22
 624 502 624 502 624 591 c 2,23,-1
 623 1080 l 1,24,-1
 1760 1080 l 1,25,-1
 1760 865 l 1,26,-1
 853 865 l 1,27,-1
 853 740 l 2,28,29
 853 674 853 674 871 657 c 0,30,31
 886 643 886 643 949 643 c 2,32,-1
 1582 643 l 2,33,34
 1760 643 1760 643 1760 483 c 2,35,-1
 1760 216 l 1,36,-1
 1866 216 l 1,37,-1
 1866 0 l 1,4,-1
EndSplineSet
EndChar

StartChar: afii62965
Encoding: 64404 64404 138
Width: 1370
GlyphClass: 2
Flags: W
AnchorPoint: "Anchor-1" 555 -405 basechar 0
AnchorPoint: "Anchor-0" 735 1515 basechar 0
LayerCount: 2
Fore
SplineSet
1370 1139 m 1,0,-1
 235 1139 l 1,1,-1
 235 1229 l 1,2,-1
 1370 1229 l 1,3,-1
 1370 1139 l 1,0,-1
1370 0 m 1,4,-1
 -70 0 l 1,5,-1
 -70 216 l 1,6,-1
 1140 216 l 1,7,-1
 1140 333 l 2,8,9
 1140 409 1140 409 1110 422 c 0,10,11
 1090 431 1090 431 1044 431 c 2,12,-1
 410 431 l 2,13,14
 319 431 319 431 278 465 c 0,15,16
 234 502 234 502 234 591 c 2,17,-1
 234 1080 l 1,18,-1
 1370 1080 l 1,19,-1
 1370 865 l 1,20,-1
 463 865 l 1,21,-1
 463 740 l 2,22,23
 463 674 463 674 481 657 c 0,24,25
 496 643 496 643 559 643 c 2,26,-1
 1192 643 l 2,27,28
 1370 643 1370 643 1370 483 c 2,29,-1
 1370 0 l 1,4,-1
EndSplineSet
EndChar

StartChar: afii62966
Encoding: 64405 64405 139
Width: 1476
GlyphClass: 2
Flags: W
AnchorPoint: "Anchor-1" 660 -465 basechar 0
AnchorPoint: "Anchor-0" 705 1485 basechar 0
LayerCount: 2
Fore
SplineSet
1370 1139 m 1,0,-1
 234 1139 l 1,1,-1
 234 1229 l 1,2,-1
 1370 1229 l 1,3,-1
 1370 1139 l 1,0,-1
1476 0 m 1,4,-1
 -70 0 l 1,5,-1
 -70 216 l 1,6,-1
 1140 216 l 1,7,-1
 1140 333 l 2,8,9
 1140 409 1140 409 1110 422 c 0,10,11
 1090 431 1090 431 1044 431 c 2,12,-1
 410 431 l 2,13,14
 319 431 319 431 278 465 c 0,15,16
 234 502 234 502 234 591 c 2,17,-1
 233 1080 l 1,18,-1
 1370 1080 l 1,19,-1
 1370 865 l 1,20,-1
 463 865 l 1,21,-1
 463 740 l 2,22,23
 463 674 463 674 481 657 c 0,24,25
 496 643 496 643 559 643 c 2,26,-1
 1192 643 l 2,27,28
 1370 643 1370 643 1370 483 c 2,29,-1
 1370 216 l 1,30,-1
 1476 216 l 1,31,-1
 1476 0 l 1,4,-1
EndSplineSet
EndChar

StartChar: afii57555
Encoding: 1740 1740 140
Width: 1167
GlyphClass: 2
Flags: W
AnchorPoint: "Anchor-1" 600 -855 basechar 0
AnchorPoint: "Anchor-0" 540 960 basechar 0
LayerCount: 2
Fore
SplineSet
1167 430 m 1,0,-1
 934 430 l 2,1,2
 838 430 838 430 838 333 c 2,3,-1
 838 213 l 1,4,-1
 1006 213 l 2,5,6
 1103 213 1103 213 1103 98 c 2,7,-1
 1103 0 l 2,8,9
 1103 -184 1103 -184 959 -318 c 128,-1,10
 815 -452 815 -452 630 -452 c 0,11,12
 430 -452 430 -452 305 -336 c 0,13,14
 177 -216 177 -216 177 -18 c 2,15,-1
 177 642 l 1,16,-1
 397 642 l 1,17,-1
 397 -12 l 2,18,19
 397 -118 397 -118 464 -175 c 0,20,21
 527 -230 527 -230 635 -230 c 0,22,23
 745 -230 745 -230 821 -171 c 0,24,25
 904 -107 904 -107 904 0 c 1,26,-1
 794 0 l 2,27,28
 618 0 618 0 618 161 c 2,29,-1
 618 482 l 2,30,31
 618 644 618 644 794 644 c 2,32,-1
 1167 644 l 1,33,-1
 1167 430 l 1,0,-1
EndSplineSet
Substitution2: "'medi' Medial Forms in Arabic lookup 3 subtable" afii62832
Substitution2: "'fina' Terminal Forms in Arabic lookup 2 subtable" afii52364
Substitution2: "'init' Initial Forms in Arabic lookup 1 subtable" uniFBFE
EndChar

StartChar: afii52364
Encoding: 64509 64509 141
Width: 1067
GlyphClass: 2
Flags: W
AnchorPoint: "Anchor-1" 600 -795 basechar 0
AnchorPoint: "Anchor-0" 690 765 basechar 0
LayerCount: 2
Fore
SplineSet
1067 0 m 1,0,-1
 987 0 l 2,1,2
 1022 0 1022 0 1044.5 -25.5 c 128,-1,3
 1067 -51 1067 -51 1067 -86 c 0,4,5
 1067 -216 1067 -216 950 -327 c 0,6,7
 818 -452 818 -452 620 -452 c 256,8,9
 422 -452 422 -452 299.5 -333.5 c 128,-1,10
 177 -215 177 -215 177 -18 c 2,11,-1
 177 642 l 1,12,-1
 397 642 l 1,13,-1
 397 -12 l 2,14,15
 397 -117 397 -117 458 -173.5 c 128,-1,16
 519 -230 519 -230 625 -230 c 0,17,18
 702 -230 702 -230 770 -200 c 0,19,20
 856 -161 856 -161 856 -92 c 0,21,22
 856 0 856 0 704 0 c 2,23,-1
 646 0 l 1,24,-1
 646 215 l 1,25,-1
 1067 215 l 1,26,-1
 1067 0 l 1,0,-1
EndSplineSet
EndChar

StartChar: afii62945
Encoding: 65557 -1 147
Width: 1650
GlyphClass: 3
Flags: W
LayerCount: 2
Fore
SplineSet
1650 212 m 2,0,1
 1650 -1 1650 -1 1429 -1 c 2,2,-1
 352 0 l 2,3,4
 177 0 177 0 177 161 c 2,5,-1
 177 484 l 2,6,7
 177 644 177 644 352 644 c 2,8,-1
 621 644 l 1,9,-1
 621 713 l 1,10,-1
 850 713 l 1,11,-1
 850 215 l 1,12,-1
 1026 215 l 1,13,-1
 1026 935 l 1,14,-1
 1247 935 l 1,15,-1
 1247 214 l 1,16,-1
 1331 214 l 2,17,18
 1427 214 1427 214 1427 311 c 2,19,-1
 1427 935 l 1,20,-1
 1650 935 l 1,21,-1
 1650 212 l 2,0,1
621 215 m 1,22,-1
 621 434 l 1,23,-1
 454 434 l 2,24,25
 397 434 397 434 397 382 c 2,26,-1
 397 268 l 2,27,28
 397 215 397 215 454 215 c 2,29,-1
 621 215 l 1,22,-1
EndSplineSet
EndChar

StartChar: afii64184
Encoding: 65010 65010 148
Width: 1650
GlyphClass: 3
Flags: W
AnchorPoint: "Anchor-3" 1545 -375 baselig 0
AnchorPoint: "Anchor-2" 1530 1170 baselig 0
AnchorPoint: "Anchor-3" 975 -420 baselig 1
AnchorPoint: "Anchor-2" 1125 1020 baselig 1
AnchorPoint: "Anchor-3" 435 -405 baselig 2
AnchorPoint: "Anchor-2" 465 795 baselig 2
LayerCount: 2
Fore
SplineSet
1326 1233 m 1,0,1
 1325 1028 1325 1028 1219 1028 c 0,2,3
 1163 1028 1163 1028 1139 1085 c 1,4,5
 1112 1027 1112 1027 1046 1027 c 0,6,7
 982 1027 982 1027 962 1091 c 0,8,9
 949 1132 949 1132 949 1233 c 1,10,-1
 1014 1233 l 1,11,12
 1016 1107 1016 1107 1061 1107 c 0,13,14
 1094 1107 1094 1107 1101 1151 c 0,15,16
 1103 1163 1103 1163 1103 1233 c 1,17,-1
 1166 1233 l 1,18,19
 1168 1109 1168 1109 1212 1109 c 0,20,21
 1242 1109 1242 1109 1251 1155 c 0,22,23
 1254 1170 1254 1170 1255 1233 c 1,24,-1
 1326 1233 l 1,0,1
1650 212 m 2,25,26
 1650 -1 1650 -1 1429 -1 c 2,27,-1
 352 0 l 2,28,29
 177 0 177 0 177 161 c 2,30,-1
 177 484 l 2,31,32
 177 644 177 644 352 644 c 2,33,-1
 621 644 l 1,34,-1
 621 713 l 1,35,-1
 850 713 l 1,36,-1
 850 215 l 1,37,-1
 1026 215 l 1,38,-1
 1026 935 l 1,39,-1
 1247 935 l 1,40,-1
 1247 214 l 1,41,-1
 1331 214 l 2,42,43
 1427 214 1427 214 1427 311 c 2,44,-1
 1427 935 l 1,45,-1
 1650 935 l 1,46,-1
 1650 212 l 2,25,26
621 215 m 1,47,-1
 621 434 l 1,48,-1
 454 434 l 2,49,50
 397 434 397 434 397 382 c 2,51,-1
 397 268 l 2,52,53
 397 215 397 215 454 215 c 2,54,-1
 621 215 l 1,47,-1
1079 1561 m 1,55,-1
 1172 1561 l 1,56,-1
 1172 1299 l 1,57,-1
 1079 1299 l 1,58,-1
 1079 1561 l 1,55,-1
EndSplineSet
Ligature2: "'rlig' Required Ligatures in Arabic lookup 5 subtable" afii62817 afii62818 uniFC63 afii62828
Ligature2: "'rlig' Required Ligatures in Arabic lookup 5 subtable" afii62817 afii62818 afii57457 uni0670 afii62828
EndChar

StartChar: afii57415.001
Encoding: 1575 1575 162
Width: 397
GlyphClass: 2
Flags: W
AnchorPoint: "Anchor-1" 315 -375 basechar 0
AnchorPoint: "Anchor-0" 285 1305 basechar 0
LayerCount: 2
Fore
SplineSet
397 0 m 1,0,-1
 177 0 l 1,1,-1
 177 1136 l 1,2,-1
 397 1136 l 1,3,-1
 397 0 l 1,0,-1
EndSplineSet
Substitution2: "'fina' Terminal Forms in Arabic lookup 2 subtable" afii62760
EndChar

StartChar: afii62760.001
Encoding: 65558 -1 163
Width: 511
GlyphClass: 2
Flags: W
LayerCount: 2
Fore
SplineSet
511 0 m 1,0,-1
 372 0 l 2,1,2
 151 0 151 0 151 213 c 2,3,-1
 151 1136 l 1,4,-1
 371 1136 l 1,5,-1
 371 312 l 2,6,7
 371 215 371 215 482 216 c 2,8,-1
 511 216 l 1,9,-1
 511 0 l 1,0,-1
EndSplineSet
EndChar

StartChar: afii57421
Encoding: 1581 1581 182
Width: 984
GlyphClass: 2
Flags: W
AnchorPoint: "Anchor-1" 645 -1020 basechar 0
AnchorPoint: "Anchor-0" 630 930 basechar 0
LayerCount: 2
Fore
SplineSet
984 -654 m 1,0,-1
 610 -654 l 2,1,2
 430 -654 430 -654 303 -524 c 128,-1,3
 176 -394 176 -394 176 -213 c 256,4,5
 176 -32 176 -32 302.5 91.5 c 128,-1,6
 429 215 429 215 610 215 c 2,7,-1
 757 215 l 1,8,-1
 757 333 l 2,9,10
 757 430 757 430 660 430 c 2,11,-1
 287 430 l 1,12,-1
 287 644 l 1,13,-1
 809 644 l 2,14,15
 984 644 984 644 984 482 c 2,16,-1
 984 0 l 1,17,-1
 636 0 l 2,18,19
 546 0 546 0 481.5 -64 c 128,-1,20
 417 -128 417 -128 417 -218 c 0,21,22
 417 -309 417 -309 481 -373 c 128,-1,23
 545 -437 545 -437 636 -437 c 2,24,-1
 984 -437 l 1,25,-1
 984 -654 l 1,0,-1
EndSplineSet
Substitution2: "'medi' Medial Forms in Arabic lookup 3 subtable" afii62775
Substitution2: "'fina' Terminal Forms in Arabic lookup 2 subtable" afii62776
Substitution2: "'init' Initial Forms in Arabic lookup 1 subtable" afii62774
EndChar

StartChar: afii62776
Encoding: 65186 65186 183
Width: 1083
GlyphClass: 2
Flags: W
AnchorPoint: "Anchor-1" 675 -1005 basechar 0
AnchorPoint: "Anchor-0" 600 915 basechar 0
LayerCount: 2
Fore
SplineSet
1083 0 m 1,0,-1
 634 0 l 2,1,2
 544 0 544 0 479.5 -64 c 128,-1,3
 415 -128 415 -128 415 -218 c 0,4,5
 415 -309 415 -309 479 -373 c 128,-1,6
 543 -437 543 -437 634 -437 c 2,7,-1
 963 -437 l 1,8,-1
 963 -654 l 1,9,-1
 608 -654 l 2,10,11
 428 -654 428 -654 301 -524 c 128,-1,12
 174 -394 174 -394 174 -213 c 256,13,14
 174 -32 174 -32 300.5 91.5 c 128,-1,15
 427 215 427 215 608 215 c 2,16,-1
 755 215 l 1,17,-1
 755 333 l 2,18,19
 755 430 755 430 658 430 c 2,20,-1
 285 430 l 1,21,-1
 285 644 l 1,22,-1
 807 644 l 2,23,24
 982 644 982 644 982 482 c 2,25,-1
 982 216 l 1,26,-1
 1083 216 l 1,27,-1
 1083 0 l 1,0,-1
EndSplineSet
EndChar

StartChar: afii62774
Encoding: 65187 65187 184
Width: 879
GlyphClass: 2
Flags: W
AnchorPoint: "Anchor-1" 390 -390 basechar 0
AnchorPoint: "Anchor-0" 420 1005 basechar 0
LayerCount: 2
Fore
SplineSet
879 0 m 1,0,-1
 -70 0 l 1,1,-1
 -70 216 l 1,2,-1
 649 216 l 1,3,-1
 649 333 l 2,4,5
 649 430 649 430 553 430 c 2,6,-1
 179 430 l 1,7,-1
 179 644 l 1,8,-1
 702 644 l 2,9,10
 878 644 878 644 878 482 c 2,11,-1
 879 0 l 1,0,-1
EndSplineSet
EndChar

StartChar: afii62775
Encoding: 65188 65188 185
Width: 976
GlyphClass: 2
Flags: W
AnchorPoint: "Anchor-1" 435 -420 basechar 0
AnchorPoint: "Anchor-0" 450 945 basechar 0
LayerCount: 2
Fore
SplineSet
976 0 m 1,0,-1
 -70 0 l 1,1,-1
 -70 216 l 1,2,-1
 649 216 l 1,3,-1
 649 331 l 2,4,5
 649 428 649 428 553 428 c 2,6,-1
 179 428 l 1,7,-1
 179 642 l 1,8,-1
 701 642 l 2,9,10
 876 642 876 642 876 480 c 2,11,-1
 876 216 l 1,12,-1
 976 216 l 1,13,-1
 976 0 l 1,0,-1
EndSplineSet
EndChar

StartChar: afii57423
Encoding: 1583 1583 190
Width: 811
GlyphClass: 2
Flags: W
AnchorPoint: "Anchor-1" 390 -420 basechar 0
AnchorPoint: "Anchor-0" 405 975 basechar 0
LayerCount: 2
Fore
SplineSet
811 0 m 1,0,-1
 177 0 l 1,1,-1
 177 215 l 1,2,-1
 584 215 l 1,3,-1
 584 333 l 2,4,5
 584 430 584 430 488 430 c 2,6,-1
 179 430 l 1,7,-1
 179 643 l 1,8,-1
 636 643 l 2,9,10
 811 643 811 643 811 482 c 2,11,-1
 811 0 l 1,0,-1
EndSplineSet
Substitution2: "'fina' Terminal Forms in Arabic lookup 2 subtable" afii62780
PairPos2: "'kern' Horizontal Kerning in Arabic lookup 0 subtable" uni0675 dx=0 dy=0 dh=0 dv=0 dx=0 dy=0 dh=-100 dv=0
PairPos2: "'kern' Horizontal Kerning in Arabic lookup 0 subtable" uni0672 dx=0 dy=0 dh=0 dv=0 dx=0 dy=0 dh=-100 dv=0
PairPos2: "'kern' Horizontal Kerning in Arabic lookup 0 subtable" afii57411 dx=0 dy=0 dh=0 dv=0 dx=0 dy=0 dh=-100 dv=0
EndChar

StartChar: afii62780
Encoding: 65194 65194 191
Width: 911
GlyphClass: 2
Flags: W
AnchorPoint: "Anchor-1" 465 -405 basechar 0
AnchorPoint: "Anchor-0" 435 930 basechar 0
LayerCount: 2
Fore
SplineSet
911 0 m 1,0,-1
 177 0 l 1,1,-1
 177 215 l 1,2,-1
 584 216 l 1,3,-1
 584 333 l 2,4,5
 584 430 584 430 488 430 c 2,6,-1
 179 430 l 1,7,-1
 179 643 l 1,8,-1
 636 643 l 2,9,10
 811 643 811 643 811 482 c 2,11,-1
 811 216 l 1,12,-1
 911 216 l 1,13,-1
 911 0 l 1,0,-1
EndSplineSet
EndChar

StartChar: afii57425
Encoding: 1585 1585 194
Width: 631
GlyphClass: 2
Flags: W
AnchorPoint: "Anchor-1" 360 -930 basechar 0
AnchorPoint: "Anchor-0" 465 960 basechar 0
LayerCount: 2
Fore
SplineSet
631 -237 m 2,0,1
 631 -333 631 -333 579 -391 c 0,2,3
 524 -452 524 -452 429 -452 c 2,4,-1
 122 -452 l 1,5,-1
 122 -226 l 1,6,-1
 312 -225 l 2,7,8
 370 -225 370 -225 392 -194 c 0,9,10
 410 -169 410 -169 410 -108 c 2,11,-1
 410 643 l 1,12,-1
 631 643 l 1,13,-1
 631 -237 l 2,0,1
EndSplineSet
Substitution2: "'fina' Terminal Forms in Arabic lookup 2 subtable" afii62782
PairPos2: "'kern' Horizontal Kerning in Arabic lookup 0 subtable" afii57415 dx=0 dy=0 dh=0 dv=0 dx=0 dy=0 dh=-90 dv=0
PairPos2: "'kern' Horizontal Kerning in Arabic lookup 0 subtable" uni0675 dx=0 dy=0 dh=0 dv=0 dx=0 dy=0 dh=-90 dv=0
PairPos2: "'kern' Horizontal Kerning in Arabic lookup 0 subtable" uni0672 dx=0 dy=0 dh=0 dv=0 dx=0 dy=0 dh=-90 dv=0
PairPos2: "'kern' Horizontal Kerning in Arabic lookup 0 subtable" afii57450 dx=0 dy=0 dh=0 dv=0 dx=0 dy=0 dh=-80 dv=0
PairPos2: "'kern' Horizontal Kerning in Arabic lookup 0 subtable" afii57449 dx=0 dy=0 dh=0 dv=0 dx=0 dy=0 dh=-80 dv=0
PairPos2: "'kern' Horizontal Kerning in Arabic lookup 0 subtable" afii62823 dx=0 dy=0 dh=0 dv=0 dx=0 dy=0 dh=-80 dv=0
PairPos2: "'kern' Horizontal Kerning in Arabic lookup 0 subtable" afii62817 dx=0 dy=0 dh=0 dv=0 dx=0 dy=0 dh=-50 dv=0
PairPos2: "'kern' Horizontal Kerning in Arabic lookup 0 subtable" afii57443 dx=0 dy=0 dh=0 dv=0 dx=0 dy=0 dh=-80 dv=0
PairPos2: "'kern' Horizontal Kerning in Arabic lookup 0 subtable" afii57441 dx=0 dy=0 dh=0 dv=0 dx=0 dy=0 dh=-50 dv=0
PairPos2: "'kern' Horizontal Kerning in Arabic lookup 0 subtable" afii62799 dx=0 dy=0 dh=0 dv=0 dx=0 dy=0 dh=-50 dv=0
PairPos2: "'kern' Horizontal Kerning in Arabic lookup 0 subtable" afii57432 dx=0 dy=0 dh=0 dv=0 dx=0 dy=0 dh=-50 dv=0
PairPos2: "'kern' Horizontal Kerning in Arabic lookup 0 subtable" afii62796 dx=0 dy=0 dh=0 dv=0 dx=0 dy=0 dh=-50 dv=0
PairPos2: "'kern' Horizontal Kerning in Arabic lookup 0 subtable" afii57431 dx=0 dy=0 dh=0 dv=0 dx=0 dy=0 dh=-50 dv=0
PairPos2: "'kern' Horizontal Kerning in Arabic lookup 0 subtable" afii62793 dx=0 dy=0 dh=0 dv=0 dx=0 dy=0 dh=-70 dv=0
PairPos2: "'kern' Horizontal Kerning in Arabic lookup 0 subtable" afii57430 dx=0 dy=0 dh=0 dv=0 dx=0 dy=0 dh=-80 dv=0
PairPos2: "'kern' Horizontal Kerning in Arabic lookup 0 subtable" afii62790 dx=0 dy=0 dh=0 dv=0 dx=0 dy=0 dh=-70 dv=0
PairPos2: "'kern' Horizontal Kerning in Arabic lookup 0 subtable" afii57429 dx=0 dy=0 dh=0 dv=0 dx=0 dy=0 dh=-80 dv=0
PairPos2: "'kern' Horizontal Kerning in Arabic lookup 0 subtable" afii62787 dx=0 dy=0 dh=0 dv=0 dx=0 dy=0 dh=-70 dv=0
PairPos2: "'kern' Horizontal Kerning in Arabic lookup 0 subtable" afii57428 dx=0 dy=0 dh=0 dv=0 dx=0 dy=0 dh=-80 dv=0
PairPos2: "'kern' Horizontal Kerning in Arabic lookup 0 subtable" afii62784 dx=0 dy=0 dh=0 dv=0 dx=0 dy=0 dh=-70 dv=0
PairPos2: "'kern' Horizontal Kerning in Arabic lookup 0 subtable" afii57427 dx=0 dy=0 dh=0 dv=0 dx=0 dy=0 dh=-80 dv=0
PairPos2: "'kern' Horizontal Kerning in Arabic lookup 0 subtable" afii62777 dx=0 dy=0 dh=0 dv=0 dx=0 dy=0 dh=-80 dv=0
PairPos2: "'kern' Horizontal Kerning in Arabic lookup 0 subtable" afii62774 dx=0 dy=0 dh=0 dv=0 dx=0 dy=0 dh=-80 dv=0
PairPos2: "'kern' Horizontal Kerning in Arabic lookup 0 subtable" afii62771 dx=0 dy=0 dh=0 dv=0 dx=0 dy=0 dh=-80 dv=0
PairPos2: "'kern' Horizontal Kerning in Arabic lookup 0 subtable" afii62768 dx=0 dy=0 dh=0 dv=0 dx=0 dy=0 dh=-80 dv=0
PairPos2: "'kern' Horizontal Kerning in Arabic lookup 0 subtable" afii57419 dx=0 dy=0 dh=0 dv=0 dx=0 dy=0 dh=-50 dv=0
PairPos2: "'kern' Horizontal Kerning in Arabic lookup 0 subtable" afii62765 dx=0 dy=0 dh=0 dv=0 dx=0 dy=0 dh=-80 dv=0
PairPos2: "'kern' Horizontal Kerning in Arabic lookup 0 subtable" afii57418 dx=0 dy=0 dh=0 dv=0 dx=0 dy=0 dh=-50 dv=0
PairPos2: "'kern' Horizontal Kerning in Arabic lookup 0 subtable" afii57416 dx=0 dy=0 dh=0 dv=0 dx=0 dy=0 dh=-50 dv=0
PairPos2: "'kern' Horizontal Kerning in Arabic lookup 0 subtable" afii62757 dx=0 dy=0 dh=0 dv=0 dx=0 dy=0 dh=-80 dv=0
PairPos2: "'kern' Horizontal Kerning in Arabic lookup 0 subtable" afii57414 dx=0 dy=0 dh=0 dv=0 dx=0 dy=0 dh=-80 dv=0
PairPos2: "'kern' Horizontal Kerning in Arabic lookup 0 subtable" afii57411 dx=0 dy=0 dh=0 dv=0 dx=0 dy=0 dh=-90 dv=0
PairPos2: "'kern' Horizontal Kerning in Arabic lookup 0 subtable" afii52399 dx=0 dy=0 dh=0 dv=0 dx=0 dy=0 dh=-50 dv=0
PairPos2: "'kern' Horizontal Kerning in Arabic lookup 0 subtable" afii57555 dx=0 dy=0 dh=0 dv=0 dx=0 dy=0 dh=-80 dv=0
PairPos2: "'kern' Horizontal Kerning in Arabic lookup 0 subtable" afii62959 dx=0 dy=0 dh=0 dv=0 dx=0 dy=0 dh=-80 dv=0
PairPos2: "'kern' Horizontal Kerning in Arabic lookup 0 subtable" afii57505 dx=0 dy=0 dh=0 dv=0 dx=0 dy=0 dh=-50 dv=0
PairPos2: "'kern' Horizontal Kerning in Arabic lookup 0 subtable" afii57506 dx=0 dy=0 dh=0 dv=0 dx=0 dy=0 dh=-50 dv=0
EndChar

StartChar: afii62782
Encoding: 65198 65198 195
Width: 734
GlyphClass: 2
Flags: W
AnchorPoint: "Anchor-1" 360 -885 basechar 0
AnchorPoint: "Anchor-0" 435 945 basechar 0
LayerCount: 2
Fore
SplineSet
734 0 m 1,0,-1
 631 0 l 1,1,-1
 631 -237 l 2,2,3
 631 -333 631 -333 579 -391 c 0,4,5
 524 -452 524 -452 429 -452 c 2,6,-1
 122 -452 l 1,7,-1
 122 -226 l 1,8,-1
 312 -225 l 2,9,10
 370 -225 370 -225 392 -194 c 0,11,12
 410 -169 410 -169 410 -108 c 2,13,-1
 410 643 l 1,14,-1
 631 643 l 1,15,-1
 631 216 l 1,16,-1
 734 216 l 1,17,-1
 734 0 l 1,0,-1
EndSplineSet
PairPos2: "'kern' Horizontal Kerning in Arabic lookup 0 subtable" afii57415 dx=0 dy=0 dh=0 dv=0 dx=0 dy=0 dh=-70 dv=0
PairPos2: "'kern' Horizontal Kerning in Arabic lookup 0 subtable" uni0675 dx=0 dy=0 dh=0 dv=0 dx=0 dy=0 dh=-70 dv=0
PairPos2: "'kern' Horizontal Kerning in Arabic lookup 0 subtable" uni0672 dx=0 dy=0 dh=0 dv=0 dx=0 dy=0 dh=-70 dv=0
PairPos2: "'kern' Horizontal Kerning in Arabic lookup 0 subtable" afii57450 dx=0 dy=0 dh=0 dv=0 dx=0 dy=0 dh=-70 dv=0
PairPos2: "'kern' Horizontal Kerning in Arabic lookup 0 subtable" afii57449 dx=0 dy=0 dh=0 dv=0 dx=0 dy=0 dh=-70 dv=0
PairPos2: "'kern' Horizontal Kerning in Arabic lookup 0 subtable" afii62823 dx=0 dy=0 dh=0 dv=0 dx=0 dy=0 dh=-70 dv=0
PairPos2: "'kern' Horizontal Kerning in Arabic lookup 0 subtable" afii57443 dx=0 dy=0 dh=0 dv=0 dx=0 dy=0 dh=-50 dv=0
PairPos2: "'kern' Horizontal Kerning in Arabic lookup 0 subtable" afii62768 dx=0 dy=0 dh=0 dv=0 dx=0 dy=0 dh=-70 dv=0
PairPos2: "'kern' Horizontal Kerning in Arabic lookup 0 subtable" afii62765 dx=0 dy=0 dh=0 dv=0 dx=0 dy=0 dh=-70 dv=0
PairPos2: "'kern' Horizontal Kerning in Arabic lookup 0 subtable" afii62757 dx=0 dy=0 dh=0 dv=0 dx=0 dy=0 dh=-70 dv=0
PairPos2: "'kern' Horizontal Kerning in Arabic lookup 0 subtable" afii57414 dx=0 dy=0 dh=0 dv=0 dx=0 dy=0 dh=-70 dv=0
PairPos2: "'kern' Horizontal Kerning in Arabic lookup 0 subtable" afii57411 dx=0 dy=0 dh=0 dv=0 dx=0 dy=0 dh=-70 dv=0
PairPos2: "'kern' Horizontal Kerning in Arabic lookup 0 subtable" afii57555 dx=0 dy=0 dh=0 dv=0 dx=0 dy=0 dh=-70 dv=0
EndChar

StartChar: afii57427
Encoding: 1587 1587 198
Width: 1893
GlyphClass: 2
Flags: W
AnchorPoint: "Anchor-1" 1350 -495 basechar 0
AnchorPoint: "Anchor-0" 1350 990 basechar 0
LayerCount: 2
Fore
SplineSet
1892 217 m 2,0,1
 1892 0 1892 0 1668 0 c 2,2,-1
 1053 0 l 1,3,4
 1053 -182 1053 -182 927 -317 c 128,-1,5
 801 -452 801 -452 620 -452 c 0,6,7
 438 -452 438 -452 307.5 -325.5 c 128,-1,8
 177 -199 177 -199 177 -18 c 2,9,-1
 177 642 l 1,10,-1
 397 642 l 1,11,-1
 397 -12 l 2,12,13
 397 -102 397 -102 461 -166 c 128,-1,14
 525 -230 525 -230 615 -230 c 256,15,16
 705 -230 705 -230 769.5 -166 c 128,-1,17
 834 -102 834 -102 834 -12 c 2,18,-1
 834 642 l 1,19,-1
 1053 642 l 1,20,-1
 1053 215 l 1,21,-1
 1251 215 l 1,22,-1
 1251 642 l 1,23,-1
 1471 642 l 1,24,-1
 1471 215 l 1,25,-1
 1534 215 l 2,26,27
 1614 215 1614 215 1632 223 c 0,28,29
 1672 241 1672 241 1672 313 c 2,30,-1
 1672 642 l 1,31,-1
 1892 642 l 1,32,-1
 1892 217 l 2,0,1
EndSplineSet
Substitution2: "'medi' Medial Forms in Arabic lookup 3 subtable" afii62785
Substitution2: "'fina' Terminal Forms in Arabic lookup 2 subtable" afii62786
Substitution2: "'init' Initial Forms in Arabic lookup 1 subtable" afii62784
EndChar

StartChar: afii62786
Encoding: 65202 65202 199
Width: 1994
GlyphClass: 2
Flags: W
AnchorPoint: "Anchor-1" 1410 -510 basechar 0
AnchorPoint: "Anchor-0" 1350 990 basechar 0
LayerCount: 2
Fore
SplineSet
1994 0 m 1,0,-1
 1053 0 l 1,1,2
 1053 -182 1053 -182 927 -317 c 128,-1,3
 801 -452 801 -452 620 -452 c 0,4,5
 438 -452 438 -452 307.5 -325.5 c 128,-1,6
 177 -199 177 -199 177 -18 c 2,7,-1
 177 642 l 1,8,-1
 397 642 l 1,9,-1
 397 -12 l 2,10,11
 397 -102 397 -102 461 -166 c 128,-1,12
 525 -230 525 -230 615 -230 c 256,13,14
 705 -230 705 -230 769.5 -166 c 128,-1,15
 834 -102 834 -102 834 -12 c 2,16,-1
 834 642 l 1,17,-1
 1053 642 l 1,18,-1
 1053 215 l 1,19,-1
 1251 215 l 1,20,-1
 1251 642 l 1,21,-1
 1471 642 l 1,22,-1
 1471 215 l 1,23,-1
 1534 215 l 2,24,25
 1614 215 1614 215 1632 223 c 0,26,27
 1672 241 1672 241 1672 313 c 2,28,-1
 1672 642 l 1,29,-1
 1892 642 l 1,30,-1
 1892 216 l 1,31,-1
 1994 216 l 1,32,-1
 1994 0 l 1,0,-1
EndSplineSet
EndChar

StartChar: afii62784
Encoding: 65203 65203 200
Width: 1275
GlyphClass: 2
Flags: W
AnchorPoint: "Anchor-1" 705 -480 basechar 0
AnchorPoint: "Anchor-0" 720 990 basechar 0
LayerCount: 2
Fore
SplineSet
1275 217 m 2,0,1
 1275 0 1275 0 1052 0 c 2,2,-1
 -70 0 l 1,3,-1
 -70 216 l 1,4,-1
 217 216 l 1,5,-1
 217 642 l 1,6,-1
 437 642 l 1,7,-1
 437 215 l 1,8,-1
 634 215 l 1,9,-1
 634 642 l 1,10,-1
 854 642 l 1,11,-1
 854 215 l 1,12,-1
 958 215 l 2,13,14
 1056 215 1056 215 1056 313 c 2,15,-1
 1056 642 l 1,16,-1
 1275 642 l 1,17,-1
 1275 217 l 2,0,1
EndSplineSet
EndChar

StartChar: afii62785
Encoding: 65204 65204 201
Width: 1396
GlyphClass: 2
Flags: W
AnchorPoint: "Anchor-1" 720 -510 basechar 0
AnchorPoint: "Anchor-0" 720 1050 basechar 0
LayerCount: 2
Fore
SplineSet
1396 0 m 1,0,-1
 -70 0 l 1,1,-1
 -70 216 l 1,2,-1
 226 216 l 1,3,-1
 226 644 l 1,4,-1
 446 644 l 1,5,-1
 446 215 l 1,6,-1
 644 215 l 1,7,-1
 644 644 l 1,8,-1
 863 644 l 1,9,-1
 863 215 l 1,10,-1
 1065 215 l 1,11,-1
 1065 644 l 1,12,-1
 1285 644 l 1,13,-1
 1285 216 l 1,14,-1
 1396 216 l 1,15,-1
 1396 0 l 1,0,-1
EndSplineSet
EndChar

StartChar: afii57429
Encoding: 1589 1589 206
Width: 1971
GlyphClass: 2
Flags: W
AnchorPoint: "Anchor-1" 1380 -480 basechar 0
AnchorPoint: "Anchor-0" 1365 1020 basechar 0
LayerCount: 2
Fore
SplineSet
1971 0 m 1,0,-1
 1057 0 l 1,1,2
 1057 -188 1057 -188 931 -320 c 128,-1,3
 805 -452 805 -452 618 -452 c 0,4,5
 436 -452 436 -452 306.5 -326 c 128,-1,6
 177 -200 177 -200 177 -18 c 2,7,-1
 177 644 l 1,8,-1
 397 644 l 1,9,-1
 397 -17 l 2,10,11
 397 -108 397 -108 460.5 -171.5 c 128,-1,12
 524 -235 524 -235 615 -235 c 256,13,14
 706 -235 706 -235 769.5 -171.5 c 128,-1,15
 833 -108 833 -108 833 -17 c 2,16,-1
 833 644 l 1,17,-1
 1057 644 l 1,18,-1
 1057 574 l 1,19,-1
 1795 574 l 2,20,21
 1971 574 1971 574 1971 412 c 2,22,-1
 1971 0 l 1,0,-1
1743 215 m 1,23,-1
 1743 263 l 2,24,25
 1743 360 1743 360 1647 360 c 2,26,-1
 1057 360 l 1,27,-1
 1057 215 l 1,28,-1
 1743 215 l 1,23,-1
EndSplineSet
Substitution2: "'medi' Medial Forms in Arabic lookup 3 subtable" afii62791
Substitution2: "'fina' Terminal Forms in Arabic lookup 2 subtable" afii62792
Substitution2: "'init' Initial Forms in Arabic lookup 1 subtable" afii62790
EndChar

StartChar: afii62792
Encoding: 65210 65210 207
Width: 2071
GlyphClass: 2
Flags: W
AnchorPoint: "Anchor-1" 1410 -495 basechar 0
AnchorPoint: "Anchor-0" 1320 1035 basechar 0
LayerCount: 2
Fore
SplineSet
2071 0 m 1,0,-1
 1057 0 l 1,1,2
 1057 -188 1057 -188 931 -320 c 128,-1,3
 805 -452 805 -452 618 -452 c 0,4,5
 436 -452 436 -452 306.5 -326 c 128,-1,6
 177 -200 177 -200 177 -18 c 2,7,-1
 177 644 l 1,8,-1
 397 644 l 1,9,-1
 397 -18 l 2,10,11
 397 -109 397 -109 460 -173 c 128,-1,12
 523 -237 523 -237 614 -237 c 0,13,14
 704 -237 704 -237 767.5 -172.5 c 128,-1,15
 831 -108 831 -108 831 -18 c 2,16,-1
 831 644 l 1,17,-1
 1057 644 l 1,18,-1
 1057 574 l 1,19,-1
 1795 574 l 2,20,21
 1971 574 1971 574 1971 412 c 2,22,-1
 1971 216 l 1,23,-1
 2071 216 l 1,24,-1
 2071 0 l 1,0,-1
1743 215 m 1,25,-1
 1743 263 l 2,26,27
 1743 360 1743 360 1647 360 c 2,28,-1
 1057 360 l 1,29,-1
 1057 215 l 1,30,-1
 1743 215 l 1,25,-1
EndSplineSet
EndChar

StartChar: afii62790
Encoding: 65211 65211 208
Width: 1356
GlyphClass: 2
Flags: W
AnchorPoint: "Anchor-1" 645 -465 basechar 0
AnchorPoint: "Anchor-0" 735 960 basechar 0
LayerCount: 2
Fore
SplineSet
1356 0 m 1,0,-1
 -70 0 l 1,1,-1
 -70 216 l 1,2,-1
 217 216 l 1,3,-1
 217 644 l 1,4,-1
 437 644 l 1,5,-1
 437 574 l 1,6,-1
 1180 574 l 2,7,8
 1356 574 1356 574 1356 412 c 2,9,-1
 1356 0 l 1,0,-1
1128 215 m 1,10,-1
 1128 263 l 2,11,12
 1128 360 1128 360 1032 360 c 2,13,-1
 437 360 l 1,14,-1
 437 215 l 1,15,-1
 1128 215 l 1,10,-1
EndSplineSet
EndChar

StartChar: afii62791
Encoding: 65212 65212 209
Width: 1453
GlyphClass: 2
Flags: W
AnchorPoint: "Anchor-1" 660 -525 basechar 0
AnchorPoint: "Anchor-0" 675 1050 basechar 0
LayerCount: 2
Fore
SplineSet
1453 0 m 1,0,-1
 -70 0 l 1,1,-1
 -70 216 l 1,2,-1
 217 216 l 1,3,-1
 217 644 l 1,4,-1
 437 644 l 1,5,-1
 437 574 l 1,6,-1
 1179 574 l 2,7,8
 1354 574 1354 574 1354 412 c 2,9,-1
 1354 216 l 1,10,-1
 1453 216 l 1,11,-1
 1453 0 l 1,0,-1
1127 215 m 1,12,-1
 1127 263 l 2,13,14
 1127 360 1127 360 1031 360 c 2,15,-1
 437 360 l 1,16,-1
 437 215 l 1,17,-1
 1127 215 l 1,12,-1
EndSplineSet
EndChar

StartChar: afii57431
Encoding: 1591 1591 214
Width: 1494
GlyphClass: 2
Flags: W
AnchorPoint: "Anchor-1" 870 -435 basechar 0
AnchorPoint: "Anchor-0" 960 1065 basechar 0
LayerCount: 2
Fore
SplineSet
1494 0 m 1,0,-1
 402 0 l 2,1,2
 280 0 280 0 229 47.5 c 128,-1,3
 178 95 178 95 178 215 c 1,4,-1
 354 215 l 1,5,-1
 354 1136 l 1,6,-1
 575 1136 l 1,7,-1
 575 574 l 1,8,-1
 1318 574 l 2,9,10
 1494 574 1494 574 1494 412 c 2,11,-1
 1494 0 l 1,0,-1
1266 215 m 1,12,-1
 1266 262 l 2,13,14
 1266 359 1266 359 1170 359 c 2,15,-1
 575 359 l 1,16,-1
 575 215 l 1,17,-1
 1266 215 l 1,12,-1
EndSplineSet
Substitution2: "'medi' Medial Forms in Arabic lookup 3 subtable" afii62797
Substitution2: "'fina' Terminal Forms in Arabic lookup 2 subtable" afii62798
Substitution2: "'init' Initial Forms in Arabic lookup 1 subtable" afii62796
EndChar

StartChar: afii62798
Encoding: 65218 65218 215
Width: 1594
GlyphClass: 2
Flags: W
AnchorPoint: "Anchor-1" 810 -465 basechar 0
AnchorPoint: "Anchor-0" 975 1110 basechar 0
LayerCount: 2
Fore
SplineSet
1594 0 m 1,0,-1
 402 0 l 2,1,2
 280 0 280 0 229 47.5 c 128,-1,3
 178 95 178 95 178 215 c 1,4,-1
 354 215 l 1,5,-1
 354 1136 l 1,6,-1
 575 1136 l 1,7,-1
 575 574 l 1,8,-1
 1318 574 l 2,9,10
 1494 574 1494 574 1494 412 c 2,11,-1
 1494 216 l 1,12,-1
 1594 216 l 1,13,-1
 1594 0 l 1,0,-1
1266 215 m 1,14,-1
 1266 262 l 2,15,16
 1266 359 1266 359 1170 359 c 2,17,-1
 575 359 l 1,18,-1
 575 215 l 1,19,-1
 1266 215 l 1,14,-1
EndSplineSet
EndChar

StartChar: afii62796
Encoding: 65219 65219 216
Width: 1358
GlyphClass: 2
Flags: W
AnchorPoint: "Anchor-1" 570 -405 basechar 0
AnchorPoint: "Anchor-0" 885 1200 basechar 0
LayerCount: 2
Fore
SplineSet
1358 0 m 1,0,-1
 -70 0 l 1,1,-1
 -70 216 l 1,2,-1
 218 216 l 1,3,-1
 218 1136 l 1,4,-1
 439 1136 l 1,5,-1
 439 574 l 1,6,-1
 1182 574 l 2,7,8
 1358 574 1358 574 1358 412 c 2,9,-1
 1358 0 l 1,0,-1
1130 215 m 1,10,-1
 1130 262 l 2,11,12
 1130 359 1130 359 1034 359 c 2,13,-1
 439 359 l 1,14,-1
 439 215 l 1,15,-1
 1130 215 l 1,10,-1
EndSplineSet
EndChar

StartChar: afii62797
Encoding: 65220 65220 217
Width: 1426
GlyphClass: 2
Flags: W
AnchorPoint: "Anchor-1" 615 -435 basechar 0
AnchorPoint: "Anchor-0" 855 1140 basechar 0
LayerCount: 2
Fore
SplineSet
1426 0 m 1,0,-1
 -70 0 l 1,1,-1
 -70 216 l 1,2,-1
 218 216 l 1,3,-1
 218 1136 l 1,4,-1
 439 1136 l 1,5,-1
 439 574 l 1,6,-1
 1182 574 l 2,7,8
 1358 574 1358 574 1358 412 c 2,9,-1
 1358 216 l 1,10,-1
 1426 216 l 1,11,-1
 1426 0 l 1,0,-1
1130 215 m 1,12,-1
 1130 262 l 2,13,14
 1130 359 1130 359 1034 359 c 2,15,-1
 439 359 l 1,16,-1
 439 215 l 1,17,-1
 1130 215 l 1,12,-1
EndSplineSet
EndChar

StartChar: afii57433
Encoding: 1593 1593 222
Width: 1095
GlyphClass: 2
Flags: W
AnchorPoint: "Anchor-1" 720 -1080 basechar 0
AnchorPoint: "Anchor-0" 750 1005 basechar 0
LayerCount: 2
Fore
SplineSet
411 169 m 1,0,-1
 411 482 l 2,1,2
 411 644 411 644 586 644 c 2,3,-1
 1097 644 l 1,4,-1
 1097 430 l 1,5,-1
 728 430 l 2,6,7
 632 430 632 430 632 333 c 2,8,-1
 632 215 l 1,9,-1
 1095 215 l 1,10,-1
 1095 0 l 1,11,-1
 619 0 l 2,12,13
 529 0 529 0 464.5 -64 c 128,-1,14
 400 -128 400 -128 400 -218 c 0,15,16
 400 -309 400 -309 464 -373 c 128,-1,17
 528 -437 528 -437 619 -437 c 2,18,-1
 1094 -437 l 1,19,-1
 1094 -654 l 1,20,-1
 610 -654 l 2,21,22
 429 -654 429 -654 302.5 -524.5 c 128,-1,23
 176 -395 176 -395 176 -213 c 0,24,25
 176 -92 176 -92 239.5 11.5 c 128,-1,26
 303 115 303 115 411 169 c 1,0,-1
EndSplineSet
Substitution2: "'medi' Medial Forms in Arabic lookup 3 subtable" afii62803
Substitution2: "'fina' Terminal Forms in Arabic lookup 2 subtable" afii62804
Substitution2: "'init' Initial Forms in Arabic lookup 1 subtable" afii62802
EndChar

StartChar: afii62804
Encoding: 65226 65226 223
Width: 1137
GlyphClass: 2
Flags: W
AnchorPoint: "Anchor-1" 705 -1035 basechar 0
AnchorPoint: "Anchor-0" 750 975 basechar 0
LayerCount: 2
Fore
SplineSet
1137 0 m 1,0,-1
 630 0 l 2,1,2
 540 0 540 0 476 -64 c 128,-1,3
 412 -128 412 -128 412 -218 c 256,4,5
 412 -308 412 -308 476 -372.5 c 128,-1,6
 540 -437 540 -437 630 -437 c 2,7,-1
 1103 -437 l 1,8,-1
 1103 -654 l 1,9,-1
 615 -654 l 2,10,11
 434 -654 434 -654 307 -524 c 128,-1,12
 180 -394 180 -394 180 -213 c 256,13,14
 180 -32 180 -32 307 91.5 c 128,-1,15
 434 215 434 215 615 215 c 1,16,-1
 475 374 l 2,17,18
 428 427 428 427 428 481 c 0,19,20
 428 547 428 547 490 596 c 0,21,22
 548 641 548 641 616 641 c 2,23,-1
 906 641 l 2,24,25
 973 641 973 641 1031 596 c 0,26,27
 1093 547 1093 547 1093 482 c 0,28,29
 1093 428 1093 428 1046 374 c 2,30,-1
 907 216 l 1,31,-1
 1137 216 l 1,32,-1
 1137 0 l 1,0,-1
841 445 m 1,33,-1
 674 445 l 1,34,-1
 755 324 l 1,35,-1
 841 445 l 1,33,-1
EndSplineSet
EndChar

StartChar: afii62802
Encoding: 65227 65227 224
Width: 901
GlyphClass: 2
Flags: W
AnchorPoint: "Anchor-1" 480 -405 basechar 0
AnchorPoint: "Anchor-0" 540 1020 basechar 0
LayerCount: 2
Fore
SplineSet
901 0 m 1,0,-1
 -70 0 l 1,1,-1
 -70 216 l 1,2,-1
 217 216 l 1,3,-1
 217 482 l 2,4,5
 217 644 217 644 392 644 c 2,6,-1
 901 644 l 1,7,-1
 901 430 l 1,8,-1
 534 430 l 2,9,10
 438 430 438 430 438 333 c 2,11,-1
 438 215 l 1,12,-1
 901 215 l 1,13,-1
 901 0 l 1,0,-1
EndSplineSet
EndChar

StartChar: afii62803
Encoding: 65228 65228 225
Width: 854
GlyphClass: 2
Flags: W
AnchorPoint: "Anchor-1" 390 -405 basechar 0
AnchorPoint: "Anchor-0" 435 930 basechar 0
LayerCount: 2
Fore
SplineSet
854 0 m 1,0,-1
 -70 0 l 1,1,-1
 -70 216 l 1,2,-1
 317 216 l 1,3,-1
 178 374 l 2,4,5
 131 428 131 428 131 482 c 0,6,7
 131 548 131 548 193 596 c 0,8,9
 251 641 251 641 319 641 c 2,10,-1
 608 641 l 2,11,12
 676 641 676 641 734 596 c 0,13,14
 796 548 796 548 796 482 c 0,15,16
 796 428 796 428 749 374 c 2,17,-1
 610 216 l 1,18,-1
 854 216 l 1,19,-1
 854 0 l 1,0,-1
551 445 m 1,20,-1
 385 445 l 1,21,-1
 465 324 l 1,22,-1
 551 445 l 1,20,-1
EndSplineSet
EndChar

StartChar: afii57443
Encoding: 1603 1603 238
Width: 1440
GlyphClass: 2
Flags: W
AnchorPoint: "Anchor-1" 765 -435 basechar 0
AnchorPoint: "Anchor-0" 765 1200 basechar 0
LayerCount: 2
Fore
SplineSet
1440 0 m 1,0,-1
 400 0 l 2,1,2
 177 0 177 0 177 217 c 2,3,-1
 177 447 l 1,4,-1
 397 447 l 1,5,-1
 397 311 l 2,6,7
 397 215 397 215 498 215 c 2,8,-1
 1210 215 l 1,9,-1
 1210 1138 l 1,10,-1
 1440 1138 l 1,11,-1
 1440 0 l 1,0,-1
877 530 m 1,12,-1
 652 530 l 1,13,-1
 652 601 l 1,14,-1
 697 601 l 1,15,-1
 697 641 l 2,16,17
 697 682 697 682 725.5 709 c 128,-1,18
 754 736 754 736 795 736 c 2,19,-1
 877 736 l 1,20,-1
 877 667 l 1,21,-1
 818 667 l 2,22,23
 767 667 767 667 767 633 c 2,24,-1
 767 601 l 1,25,-1
 877 601 l 1,26,-1
 877 530 l 1,12,-1
EndSplineSet
Substitution2: "'medi' Medial Forms in Arabic lookup 3 subtable" afii52306
Substitution2: "'fina' Terminal Forms in Arabic lookup 2 subtable" afii62816
Substitution2: "'init' Initial Forms in Arabic lookup 1 subtable" afii52305
EndChar

StartChar: afii62816
Encoding: 65242 65242 239
Width: 1542
GlyphClass: 2
Flags: W
AnchorPoint: "Anchor-1" 840 -420 basechar 0
AnchorPoint: "Anchor-0" 765 1170 basechar 0
LayerCount: 2
Fore
SplineSet
1542 0 m 1,0,-1
 400 0 l 2,1,2
 177 0 177 0 177 217 c 2,3,-1
 177 447 l 1,4,-1
 397 447 l 1,5,-1
 397 311 l 2,6,7
 397 215 397 215 498 215 c 2,8,-1
 1210 215 l 1,9,-1
 1210 1138 l 1,10,-1
 1440 1138 l 1,11,-1
 1440 216 l 1,12,-1
 1542 216 l 1,13,-1
 1542 0 l 1,0,-1
877 530 m 1,14,-1
 652 530 l 1,15,-1
 652 601 l 1,16,-1
 697 601 l 1,17,-1
 697 641 l 2,18,19
 697 682 697 682 725.5 709 c 128,-1,20
 754 736 754 736 795 736 c 2,21,-1
 877 736 l 1,22,-1
 877 667 l 1,23,-1
 818 667 l 2,24,25
 767 667 767 667 767 633 c 2,26,-1
 767 601 l 1,27,-1
 877 601 l 1,28,-1
 877 530 l 1,14,-1
EndSplineSet
EndChar

StartChar: afii57444
Encoding: 1604 1604 242
Width: 1053
GlyphClass: 2
Flags: W
AnchorPoint: "Anchor-1" 600 -870 basechar 0
AnchorPoint: "Anchor-0" 855 1395 basechar 0
LayerCount: 2
Fore
SplineSet
1053 0 m 2,0,1
 1053 -182 1053 -182 927 -317 c 128,-1,2
 801 -452 801 -452 620 -452 c 0,3,4
 438 -452 438 -452 307.5 -325.5 c 128,-1,5
 177 -199 177 -199 177 -18 c 2,6,-1
 177 642 l 1,7,-1
 397 642 l 1,8,-1
 397 -12 l 2,9,10
 397 -102 397 -102 461 -166 c 128,-1,11
 525 -230 525 -230 615 -230 c 256,12,13
 705 -230 705 -230 769.5 -166 c 128,-1,14
 834 -102 834 -102 834 -12 c 2,15,-1
 834 1138 l 1,16,-1
 1053 1138 l 1,17,-1
 1053 0 l 2,0,1
EndSplineSet
Substitution2: "'medi' Medial Forms in Arabic lookup 3 subtable" afii62818
Substitution2: "'fina' Terminal Forms in Arabic lookup 2 subtable" afii62819
Substitution2: "'init' Initial Forms in Arabic lookup 1 subtable" afii62817
EndChar

StartChar: afii62817
Encoding: 65247 65247 243
Width: 440
GlyphClass: 2
Flags: W
AnchorPoint: "Anchor-1" 180 -480 basechar 0
AnchorPoint: "Anchor-0" 255 1365 basechar 0
LayerCount: 2
Fore
SplineSet
440 213 m 2,0,1
 440 0 440 0 219 0 c 2,2,-1
 -70 0 l 1,3,-1
 -70 216 l 1,4,-1
 121 216 l 2,5,6
 217 216 217 216 217 312 c 2,7,-1
 217 1136 l 1,8,-1
 440 1136 l 1,9,-1
 440 213 l 2,0,1
EndSplineSet
EndChar

StartChar: afii62818
Encoding: 65248 65248 244
Width: 551
GlyphClass: 2
Flags: W
AnchorPoint: "Anchor-1" 270 -390 basechar 0
AnchorPoint: "Anchor-0" 330 1380 basechar 0
LayerCount: 2
Fore
SplineSet
551 0 m 1,0,-1
 -70 0 l 1,1,-1
 -70 216 l 1,2,-1
 228 216 l 1,3,-1
 228 1136 l 1,4,-1
 449 1136 l 1,5,-1
 449 216 l 1,6,-1
 551 216 l 1,7,-1
 551 0 l 1,0,-1
EndSplineSet
EndChar

StartChar: afii57445
Encoding: 1605 1605 245
Width: 1119
GlyphClass: 2
Flags: W
AnchorPoint: "Anchor-1" 735 -420 basechar 0
AnchorPoint: "Anchor-0" 750 930 basechar 0
LayerCount: 2
Fore
SplineSet
1119 161 m 2,0,1
 1119 0 1119 0 944 0 c 2,2,-1
 508 0 l 2,3,4
 397 0 397 0 397 -106 c 2,5,-1
 397 -650 l 1,6,-1
 177 -650 l 1,7,-1
 177 1 l 2,8,9
 177 215 177 215 395 215 c 2,10,-1
 446 215 l 1,11,-1
 446 644 l 1,12,-1
 944 644 l 2,13,14
 1119 644 1119 644 1119 482 c 2,15,-1
 1119 161 l 2,0,1
894 268 m 2,16,-1
 894 377 l 2,17,18
 894 429 894 429 837 429 c 2,19,-1
 672 429 l 1,20,-1
 672 215 l 1,21,-1
 837 215 l 2,22,23
 894 215 894 215 894 268 c 2,16,-1
EndSplineSet
Substitution2: "'medi' Medial Forms in Arabic lookup 3 subtable" afii62821
Substitution2: "'fina' Terminal Forms in Arabic lookup 2 subtable" afii62822
Substitution2: "'init' Initial Forms in Arabic lookup 1 subtable" afii62820
EndChar

StartChar: afii62822
Encoding: 65250 65250 246
Width: 1221
GlyphClass: 2
Flags: W
AnchorPoint: "Anchor-1" 750 -570 basechar 0
AnchorPoint: "Anchor-0" 750 960 basechar 0
LayerCount: 2
Fore
SplineSet
1221 0 m 1,0,-1
 508 0 l 2,1,2
 397 0 397 0 397 -106 c 2,3,-1
 397 -650 l 1,4,-1
 177 -650 l 1,5,-1
 177 1 l 2,6,7
 177 215 177 215 395 215 c 2,8,-1
 446 215 l 1,9,-1
 446 644 l 1,10,-1
 944 644 l 2,11,12
 1119 644 1119 644 1119 482 c 2,13,-1
 1119 216 l 1,14,-1
 1221 216 l 1,15,-1
 1221 0 l 1,0,-1
894 268 m 2,16,-1
 894 377 l 2,17,18
 894 429 894 429 837 429 c 2,19,-1
 672 429 l 1,20,-1
 672 215 l 1,21,-1
 837 215 l 2,22,23
 894 215 894 215 894 268 c 2,16,-1
EndSplineSet
EndChar

StartChar: afii62820
Encoding: 65251 65251 247
Width: 900
GlyphClass: 2
Flags: W
AnchorPoint: "Anchor-1" 420 -420 basechar 0
AnchorPoint: "Anchor-0" 450 975 basechar 0
LayerCount: 2
Fore
SplineSet
900 162 m 2,0,1
 900 0 900 0 724 0 c 2,2,-1
 -70 0 l 1,3,-1
 -70 216 l 1,4,-1
 226 216 l 1,5,-1
 226 643 l 1,6,-1
 724 643 l 2,7,8
 900 643 900 643 900 482 c 2,9,-1
 900 162 l 2,0,1
675 269 m 2,10,-1
 675 377 l 2,11,12
 675 429 675 429 618 429 c 2,13,-1
 452 429 l 1,14,-1
 452 216 l 1,15,-1
 618 216 l 2,16,17
 675 216 675 216 675 269 c 2,10,-1
EndSplineSet
EndChar

StartChar: afii57446
Encoding: 1606 1606 248
Width: 1053
GlyphClass: 2
Flags: W
AnchorPoint: "Anchor-1" 555 -915 basechar 0
AnchorPoint: "Anchor-0" 645 1245 basechar 0
LayerCount: 2
Fore
SplineSet
1053 0 m 2,0,1
 1053 -182 1053 -182 927 -317 c 128,-1,2
 801 -452 801 -452 620 -452 c 0,3,4
 438 -452 438 -452 307.5 -325.5 c 128,-1,5
 177 -199 177 -199 177 -18 c 2,6,-1
 177 642 l 1,7,-1
 397 642 l 1,8,-1
 397 -12 l 2,9,10
 397 -102 397 -102 461 -166 c 128,-1,11
 525 -230 525 -230 615 -230 c 256,12,13
 705 -230 705 -230 769.5 -166 c 128,-1,14
 834 -102 834 -102 834 -12 c 2,15,-1
 834 643 l 1,16,-1
 1053 643 l 1,17,-1
 1053 0 l 2,0,1
697 871 m 256,18,19
 697 826 697 826 664.5 793.5 c 128,-1,20
 632 761 632 761 587 761 c 256,21,22
 542 761 542 761 509.5 793.5 c 128,-1,23
 477 826 477 826 477 871 c 256,24,25
 477 916 477 916 509.5 948 c 128,-1,26
 542 980 542 980 587 980 c 256,27,28
 632 980 632 980 664.5 948 c 128,-1,29
 697 916 697 916 697 871 c 256,18,19
EndSplineSet
Substitution2: "'medi' Medial Forms in Arabic lookup 3 subtable" afii62824
Substitution2: "'fina' Terminal Forms in Arabic lookup 2 subtable" afii62825
Substitution2: "'init' Initial Forms in Arabic lookup 1 subtable" afii62823
EndChar

StartChar: afii62825
Encoding: 65254 65254 249
Width: 1154
GlyphClass: 2
Flags: W
AnchorPoint: "Anchor-1" 600 -870 basechar 0
AnchorPoint: "Anchor-0" 615 1155 basechar 0
LayerCount: 2
Fore
SplineSet
1154 0 m 1,0,-1
 1053 0 l 1,1,2
 1053 -182 1053 -182 927 -317 c 128,-1,3
 801 -452 801 -452 620 -452 c 0,4,5
 438 -452 438 -452 307.5 -325.5 c 128,-1,6
 177 -199 177 -199 177 -18 c 2,7,-1
 177 642 l 1,8,-1
 397 642 l 1,9,-1
 397 -12 l 2,10,11
 397 -102 397 -102 461 -166 c 128,-1,12
 525 -230 525 -230 615 -230 c 256,13,14
 705 -230 705 -230 769.5 -166 c 128,-1,15
 834 -102 834 -102 834 -12 c 2,16,-1
 834 643 l 1,17,-1
 1053 643 l 1,18,-1
 1053 215 l 1,19,-1
 1154 215 l 1,20,-1
 1154 0 l 1,0,-1
723 844 m 256,21,22
 723 799 723 799 690.5 766.5 c 128,-1,23
 658 734 658 734 613 734 c 256,24,25
 568 734 568 734 535.5 766.5 c 128,-1,26
 503 799 503 799 503 844 c 256,27,28
 503 889 503 889 535.5 921 c 128,-1,29
 568 953 568 953 613 953 c 256,30,31
 658 953 658 953 690.5 921 c 128,-1,32
 723 889 723 889 723 844 c 256,21,22
EndSplineSet
EndChar

StartChar: afii62828
Encoding: 65258 65258 253
Width: 949
GlyphClass: 2
Flags: W
AnchorPoint: "Anchor-1" 525 -450 basechar 0
AnchorPoint: "Anchor-0" 480 975 basechar 0
LayerCount: 2
Fore
SplineSet
949 0 m 1,0,-1
 352 0 l 2,1,2
 177 0 177 0 177 161 c 2,3,-1
 177 484 l 2,4,5
 177 644 177 644 352 644 c 2,6,-1
 621 644 l 1,7,-1
 621 713 l 1,8,-1
 850 713 l 1,9,-1
 850 216 l 1,10,-1
 949 216 l 1,11,-1
 949 0 l 1,0,-1
621 215 m 1,12,-1
 621 434 l 1,13,-1
 454 434 l 2,14,15
 397 434 397 434 397 382 c 2,16,-1
 397 268 l 2,17,18
 397 215 397 215 454 215 c 2,19,-1
 621 215 l 1,12,-1
EndSplineSet
EndChar

StartChar: afii57448
Encoding: 1608 1608 254
Width: 850
GlyphClass: 2
Flags: W
AnchorPoint: "Anchor-1" 450 -885 basechar 0
AnchorPoint: "Anchor-0" 510 960 basechar 0
LayerCount: 2
Fore
SplineSet
850 -237 m 2,0,1
 850 -452 850 -452 639 -452 c 2,2,-1
 176 -452 l 1,3,-1
 176 -238 l 1,4,-1
 552 -238 l 2,5,6
 629 -238 629 -238 629 -163 c 2,7,-1
 629 0 l 1,8,-1
 352 0 l 2,9,10
 177 0 177 0 177 160 c 2,11,-1
 177 482 l 2,12,13
 177 643 177 643 352 643 c 2,14,-1
 675 643 l 2,15,16
 850 643 850 643 850 482 c 2,17,-1
 850 -237 l 2,0,1
627 269 m 2,18,-1
 627 377 l 2,19,20
 627 429 627 429 569 429 c 2,21,-1
 456 429 l 2,22,23
 397 429 397 429 397 377 c 2,24,-1
 397 269 l 2,25,26
 397 215 397 215 456 215 c 2,27,-1
 569 215 l 2,28,29
 627 215 627 215 627 269 c 2,18,-1
EndSplineSet
Substitution2: "'fina' Terminal Forms in Arabic lookup 2 subtable" afii62829
EndChar

StartChar: afii62829
Encoding: 65262 65262 255
Width: 951
GlyphClass: 2
Flags: W
AnchorPoint: "Anchor-1" 450 -870 basechar 0
AnchorPoint: "Anchor-0" 510 945 basechar 0
LayerCount: 2
Fore
SplineSet
951 0 m 1,0,-1
 850 0 l 1,1,-1
 850 -237 l 2,2,3
 850 -452 850 -452 639 -452 c 2,4,-1
 176 -452 l 1,5,-1
 176 -238 l 1,6,-1
 552 -238 l 2,7,8
 629 -238 629 -238 629 -163 c 2,9,-1
 629 0 l 1,10,-1
 352 0 l 2,11,12
 177 0 177 0 177 160 c 2,13,-1
 177 482 l 2,14,15
 177 643 177 643 352 643 c 2,16,-1
 675 643 l 2,17,18
 850 643 850 643 850 482 c 2,19,-1
 850 216 l 1,20,-1
 951 216 l 1,21,-1
 951 0 l 1,0,-1
627 269 m 2,22,-1
 627 377 l 2,23,24
 627 429 627 429 569 429 c 2,25,-1
 456 429 l 2,26,27
 397 429 397 429 397 377 c 2,28,-1
 397 269 l 2,29,30
 397 215 397 215 456 215 c 2,31,-1
 569 215 l 2,32,33
 627 215 627 215 627 269 c 2,22,-1
EndSplineSet
PairPos2: "'kern' Horizontal Kerning in Arabic lookup 0 subtable" uni0675 dx=0 dy=0 dh=0 dv=0 dx=0 dy=0 dh=-100 dv=0
PairPos2: "'kern' Horizontal Kerning in Arabic lookup 0 subtable" uni0672 dx=0 dy=0 dh=0 dv=0 dx=0 dy=0 dh=-100 dv=0
PairPos2: "'kern' Horizontal Kerning in Arabic lookup 0 subtable" afii57411 dx=0 dy=0 dh=0 dv=0 dx=0 dy=0 dh=-100 dv=0
EndChar

StartChar: afii62840
Encoding: 65275 65275 268
Width: 858
GlyphClass: 3
Flags: W
AnchorPoint: "Anchor-3" 720 -420 baselig 0
AnchorPoint: "Anchor-2" 735 1320 baselig 0
AnchorPoint: "Anchor-3" 300 -390 baselig 1
AnchorPoint: "Anchor-2" 315 1305 baselig 1
LayerCount: 2
Fore
SplineSet
858 213 m 2,0,1
 858 0 858 0 637 0 c 2,2,-1
 177 0 l 1,3,-1
 177 215 l 1,4,-1
 492 215 l 2,5,6
 576 215 576 215 595 223 c 0,7,8
 635 240 635 240 635 312 c 2,9,-1
 635 1136 l 1,10,-1
 858 1136 l 1,11,-1
 858 213 l 2,0,1
397 264 m 1,12,-1
 177 264 l 1,13,-1
 177 1136 l 1,14,-1
 397 1136 l 1,15,-1
 397 264 l 1,12,-1
EndSplineSet
Ligature2: "'rlig' Required Ligatures in Arabic lookup 6 subtable" afii62817 afii62760
Substitution2: "'fina' Terminal Forms in Arabic lookup 2 subtable" afii62841
EndChar

StartChar: afii62841
Encoding: 65276 65276 269
Width: 954
GlyphClass: 3
Flags: W
AnchorPoint: "Anchor-3" 825 -375 baselig 0
AnchorPoint: "Anchor-2" 735 1260 baselig 0
AnchorPoint: "Anchor-3" 315 -375 baselig 1
AnchorPoint: "Anchor-2" 285 1275 baselig 1
LayerCount: 2
Fore
SplineSet
954 0 m 1,0,-1
 177 0 l 1,1,-1
 177 215 l 1,2,-1
 635 215 l 1,3,-1
 635 1136 l 1,4,-1
 858 1136 l 1,5,-1
 858 216 l 1,6,-1
 954 216 l 1,7,-1
 954 0 l 1,0,-1
397 264 m 1,8,-1
 177 264 l 1,9,-1
 177 1136 l 1,10,-1
 397 1136 l 1,11,-1
 397 264 l 1,8,-1
EndSplineSet
Ligature2: "'rlig' Required Ligatures in Arabic lookup 6 subtable" afii62818 afii62760
EndChar

StartChar: afii59759
Encoding: 3663 3663 276
Width: 1233
GlyphClass: 2
Flags: W
LayerCount: 2
Fore
SplineSet
616 983 m 0,0,1
 823 983 823 983 969.5 836.5 c 128,-1,2
 1116 690 1116 690 1116 483 c 0,3,4
 1116 277 1116 277 969.5 130.5 c 128,-1,5
 823 -16 823 -16 616 -16 c 0,6,7
 410 -16 410 -16 263.5 130.5 c 128,-1,8
 117 277 117 277 117 483 c 0,9,10
 117 690 117 690 263.5 836.5 c 128,-1,11
 410 983 410 983 616 983 c 0,0,1
616 147 m 0,12,13
 758 147 758 147 849 242 c 128,-1,14
 940 337 940 337 940 483 c 256,15,16
 940 629 940 629 849 724 c 128,-1,17
 758 819 758 819 616 819 c 0,18,19
 475 819 475 819 384 724 c 128,-1,20
 293 629 293 629 293 483 c 256,21,22
 293 337 293 337 384 242 c 128,-1,23
 475 147 475 147 616 147 c 0,12,13
616 598 m 0,24,25
 664 598 664 598 697.5 565 c 128,-1,26
 731 532 731 532 731 485 c 256,27,28
 731 438 731 438 697.5 404.5 c 128,-1,29
 664 371 664 371 616 371 c 0,30,31
 569 371 569 371 535.5 404.5 c 128,-1,32
 502 438 502 438 502 485 c 256,33,34
 502 532 502 532 535.5 565 c 128,-1,35
 569 598 569 598 616 598 c 0,24,25
EndSplineSet
EndChar

StartChar: afii59760
Encoding: 3664 3664 277
Width: 1233
GlyphClass: 2
Flags: W
LayerCount: 2
Fore
SplineSet
616 924 m 0,0,1
 834 924 834 924 975 794.5 c 128,-1,2
 1116 665 1116 665 1116 453 c 0,3,4
 1116 242 1116 242 975 113 c 128,-1,5
 834 -16 834 -16 616 -16 c 0,6,7
 399 -16 399 -16 258 113 c 128,-1,8
 117 242 117 242 117 453 c 0,9,10
 117 665 117 665 258 794.5 c 128,-1,11
 399 924 399 924 616 924 c 0,0,1
616 150 m 0,12,13
 765 150 765 150 852.5 231 c 128,-1,14
 940 312 940 312 940 453 c 256,15,16
 940 594 940 594 852 677 c 128,-1,17
 764 760 764 760 616 760 c 0,18,19
 469 760 469 760 381 677 c 128,-1,20
 293 594 293 594 293 453 c 0,21,22
 293 310 293 310 381.5 230 c 128,-1,23
 470 150 470 150 616 150 c 0,12,13
EndSplineSet
EndChar

StartChar: glyph279
Encoding: 65559 -1 279
Width: 0
GlyphClass: 2
Flags: W
LayerCount: 2
Fore
SplineSet
36 1831 m 1,0,-1
 36 863 l 1,1,-1
 -36 863 l 1,2,-1
 -36 1831 l 1,3,-1
 36 1831 l 1,0,-1
36 543 m 1,4,-1
 36 -423 l 1,5,-1
 -36 -423 l 1,6,-1
 -36 543 l 1,7,-1
 36 543 l 1,4,-1
EndSplineSet
EndChar

StartChar: glyph280
Encoding: 65560 -1 280
Width: 0
GlyphClass: 2
Flags: W
LayerCount: 2
Fore
SplineSet
-234 -423 m 1,0,-1
 -234 -352 l 1,1,-1
 -36 -352 l 1,2,-1
 -36 1760 l 1,3,-1
 -234 1760 l 1,4,-1
 -234 1831 l 1,5,-1
 234 1831 l 1,6,-1
 234 1760 l 1,7,-1
 36 1760 l 1,8,-1
 36 -352 l 1,9,-1
 234 -352 l 1,10,-1
 234 -423 l 1,11,-1
 -234 -423 l 1,0,-1
EndSplineSet
EndChar

StartChar: glyph281
Encoding: 65561 -1 281
Width: 0
GlyphClass: 2
Flags: W
LayerCount: 2
Fore
SplineSet
224 1646 m 1,0,-1
 36 1504 l 1,1,-1
 36 -423 l 1,2,-1
 -36 -423 l 1,3,-1
 -36 1831 l 1,4,-1
 224 1646 l 1,0,-1
EndSplineSet
EndChar

StartChar: glyph282
Encoding: 65562 -1 282
Width: 0
GlyphClass: 2
Flags: W
LayerCount: 2
Fore
SplineSet
36 1831 m 1,0,-1
 36 -423 l 1,1,-1
 -36 -423 l 1,2,-1
 -36 1504 l 1,3,-1
 -224 1646 l 1,4,-1
 36 1831 l 1,0,-1
EndSplineSet
EndChar

StartChar: glyph283
Encoding: 65563 -1 283
Width: 0
GlyphClass: 2
Flags: W
LayerCount: 2
Fore
SplineSet
36 1831 m 1,0,-1
 36 -352 l 1,1,-1
 234 -352 l 1,2,-1
 234 -423 l 1,3,-1
 -36 -423 l 1,4,-1
 -36 1831 l 1,5,-1
 36 1831 l 1,0,-1
EndSplineSet
EndChar

StartChar: glyph284
Encoding: 65564 -1 284
Width: 0
GlyphClass: 2
Flags: W
LayerCount: 2
Fore
SplineSet
224 1646 m 1,0,-1
 36 1504 l 1,1,-1
 36 -423 l 1,2,-1
 -36 -423 l 1,3,-1
 -36 1504 l 1,4,-1
 -224 1641 l 1,5,-1
 0 1831 l 1,6,-1
 224 1646 l 1,0,-1
EndSplineSet
EndChar

StartChar: uni0670
Encoding: 1648 1648 297
Width: 0
GlyphClass: 4
Flags: W
AnchorPoint: "Anchor-2" 0 0 mark 0
AnchorPoint: "Anchor-0" 0 0 mark 0
LayerCount: 2
Fore
SplineSet
-51 321 m 1,0,-1
 48 321 l 1,1,-1
 48 0 l 1,2,-1
 -51 0 l 1,3,-1
 -51 321 l 1,0,-1
EndSplineSet
EndChar

StartChar: glyph298
Encoding: 65565 -1 298
Width: 666
GlyphClass: 2
Flags: W
LayerCount: 2
Fore
SplineSet
360 1529 m 2,0,1
 399 1558 399 1558 433.5 1564 c 128,-1,2
 468 1570 468 1570 494.5 1556.5 c 128,-1,3
 521 1543 521 1543 537 1511 c 128,-1,4
 553 1479 553 1479 554 1433 c 2,5,-1
 552 1334 l 1,6,-1
 153 1334 l 1,7,-1
 153 1407 l 1,8,-1
 221 1407 l 1,9,-1
 360 1529 l 2,0,1
321 1407 m 1,10,-1
 480 1407 l 1,11,-1
 480 1444 l 2,12,13
 478 1479 478 1479 455.5 1489.5 c 128,-1,14
 433 1500 433 1500 395 1472 c 1,15,-1
 321 1407 l 1,10,-1
EndSplineSet
EndChar

StartChar: glyph299
Encoding: 65566 -1 299
Width: 1217
GlyphClass: 2
Flags: W
LayerCount: 2
Fore
SplineSet
1217 12 m 2,0,1
 1217 -204 1217 -204 1065 -356 c 128,-1,2
 913 -508 913 -508 697 -508 c 256,3,4
 481 -508 481 -508 329 -356 c 128,-1,5
 177 -204 177 -204 177 12 c 2,6,-1
 177 483 l 1,7,-1
 397 483 l 1,8,-1
 397 -1 l 2,9,10
 397 -117 397 -117 487.5 -208 c 128,-1,11
 578 -299 578 -299 694 -299 c 0,12,13
 815 -299 815 -299 904 -210.5 c 128,-1,14
 993 -122 993 -122 993 -1 c 1,15,-1
 719 -1 l 2,16,17
 543 -1 543 -1 543 160 c 2,18,-1
 543 481 l 2,19,20
 543 643 543 643 719 643 c 2,21,-1
 1041 643 l 2,22,23
 1217 643 1217 643 1217 481 c 2,24,-1
 1217 12 l 2,0,1
993 268 m 2,25,-1
 993 376 l 2,26,27
 993 428 993 428 936 428 c 2,28,-1
 823 428 l 2,29,30
 766 428 766 428 766 376 c 2,31,-1
 766 268 l 2,32,33
 766 215 766 215 823 215 c 2,34,-1
 936 215 l 2,35,36
 993 215 993 215 993 268 c 2,25,-1
EndSplineSet
EndChar

StartChar: uni06DD
Encoding: 1757 1757 388
Width: 2300
GlyphClass: 2
Flags: W
LayerCount: 2
Fore
SplineSet
2250 715 m 256,0,1
 2250 469 2250 469 2146 249 c 0,2,3
 2046 35 2046 35 1867 -119 c 1,4,5
 1870 -133 1870 -133 1870 -148 c 0,6,7
 1870 -203 1870 -203 1831 -241.5 c 128,-1,8
 1792 -280 1792 -280 1737 -280 c 0,9,10
 1697 -280 1697 -280 1664 -258 c 1,11,12
 1424 -385 1424 -385 1149 -385 c 0,13,14
 876 -385 876 -385 636 -258 c 1,15,16
 603 -280 603 -280 563 -280 c 0,17,18
 508 -280 508 -280 469 -241.5 c 128,-1,19
 430 -203 430 -203 430 -148 c 0,20,21
 430 -133 430 -133 433 -119 c 1,22,23
 254 35 254 35 154 249 c 0,24,25
 50 469 50 469 50 715 c 256,26,27
 50 961 50 961 154 1181 c 0,28,29
 254 1394 254 1394 433 1548 c 1,30,31
 430 1562 430 1562 430 1577 c 0,32,33
 430 1632 430 1632 469 1670.5 c 128,-1,34
 508 1709 508 1709 563 1709 c 0,35,36
 603 1709 603 1709 636 1687 c 1,37,38
 876 1814 876 1814 1151 1814 c 0,39,40
 1424 1814 1424 1814 1664 1687 c 1,41,42
 1697 1709 1697 1709 1737 1709 c 0,43,44
 1792 1709 1792 1709 1831 1670.5 c 128,-1,45
 1870 1632 1870 1632 1870 1577 c 0,46,47
 1870 1562 1870 1562 1867 1548 c 1,48,49
 2046 1394 2046 1394 2146 1181 c 0,50,51
 2250 961 2250 961 2250 715 c 256,0,1
1816 1576 m 0,52,53
 1816 1609 1816 1609 1793 1632 c 128,-1,54
 1770 1655 1770 1655 1738 1655 c 256,55,56
 1706 1655 1706 1655 1682.5 1631.5 c 128,-1,57
 1659 1608 1659 1608 1659 1576 c 256,58,59
 1659 1544 1659 1544 1682 1521 c 128,-1,60
 1705 1498 1705 1498 1738 1498 c 0,61,62
 1770 1498 1770 1498 1793 1521 c 128,-1,63
 1816 1544 1816 1544 1816 1576 c 0,52,53
1602 1595 m 1,64,65
 1390 1704 1390 1704 1151 1704 c 0,66,67
 910 1704 910 1704 698 1595 c 1,68,-1
 1602 1595 l 1,64,65
641 1576 m 256,69,70
 641 1608 641 1608 617.5 1631.5 c 128,-1,71
 594 1655 594 1655 562 1655 c 256,72,73
 530 1655 530 1655 507 1632 c 128,-1,74
 484 1609 484 1609 484 1576 c 0,75,76
 484 1544 484 1544 507 1521 c 128,-1,77
 530 1498 530 1498 562 1498 c 0,78,79
 595 1498 595 1498 618 1521 c 128,-1,80
 641 1544 641 1544 641 1576 c 256,69,70
2140 714 m 0,81,82
 2140 933 2140 933 2048 1131 c 0,83,84
 1960 1321 1960 1321 1801 1460 c 1,85,86
 1772 1444 1772 1444 1737 1444 c 0,87,88
 1681 1444 1681 1444 1642 1485 c 1,89,-1
 658 1485 l 1,90,91
 619 1444 619 1444 563 1444 c 0,92,93
 528 1444 528 1444 499 1460 c 1,94,95
 340 1321 340 1321 252 1131 c 0,96,97
 160 933 160 933 160 714 c 0,98,99
 160 265 160 265 499 -31 c 1,100,101
 528 -15 528 -15 563 -15 c 0,102,103
 619 -15 619 -15 658 -56 c 1,104,-1
 1642 -56 l 1,105,106
 1681 -15 1681 -15 1737 -15 c 0,107,108
 1772 -15 1772 -15 1801 -31 c 1,109,110
 2140 265 2140 265 2140 714 c 0,81,82
1816 -147 m 0,111,112
 1816 -115 1816 -115 1793 -92 c 128,-1,113
 1770 -69 1770 -69 1738 -69 c 0,114,115
 1705 -69 1705 -69 1682 -92 c 128,-1,116
 1659 -115 1659 -115 1659 -147 c 256,117,118
 1659 -179 1659 -179 1682.5 -202.5 c 128,-1,119
 1706 -226 1706 -226 1738 -226 c 256,120,121
 1770 -226 1770 -226 1793 -203 c 128,-1,122
 1816 -180 1816 -180 1816 -147 c 0,111,112
1602 -166 m 1,123,-1
 698 -166 l 1,124,125
 910 -275 910 -275 1151 -275 c 0,126,127
 1390 -275 1390 -275 1602 -166 c 1,123,-1
641 -147 m 256,128,129
 641 -115 641 -115 618 -92 c 128,-1,130
 595 -69 595 -69 562 -69 c 0,131,132
 530 -69 530 -69 507 -92 c 128,-1,133
 484 -115 484 -115 484 -147 c 0,134,135
 484 -180 484 -180 507 -203 c 128,-1,136
 530 -226 530 -226 562 -226 c 256,137,138
 594 -226 594 -226 617.5 -202.5 c 128,-1,139
 641 -179 641 -179 641 -147 c 256,128,129
EndSplineSet
EndChar

StartChar: uni06DE
Encoding: 1758 1758 389
Width: 2221
GlyphClass: 2
Flags: W
LayerCount: 2
Fore
SplineSet
2171 750 m 1,0,-1
 1861 439 l 1,1,-1
 1861 0 l 1,2,-1
 1421 0 l 1,3,-1
 1111 -311 l 1,4,-1
 800 0 l 1,5,-1
 361 0 l 1,6,-1
 361 439 l 1,7,-1
 50 750 l 1,8,-1
 361 1061 l 1,9,-1
 361 1500 l 1,10,-1
 800 1500 l 1,11,-1
 1111 1811 l 1,12,-1
 1421 1500 l 1,13,-1
 1861 1500 l 1,14,-1
 1861 1061 l 1,15,-1
 2171 750 l 1,0,-1
436 364 m 1,16,-1
 436 75 l 1,17,-1
 725 75 l 1,18,-1
 436 364 l 1,16,-1
725 1425 m 1,19,-1
 436 1425 l 1,20,-1
 436 1136 l 1,21,-1
 725 1425 l 1,19,-1
1786 1136 m 1,22,-1
 1786 1425 l 1,23,-1
 1496 1425 l 1,24,-1
 1786 1136 l 1,22,-1
1786 75 m 1,25,-1
 1786 364 l 1,26,-1
 1496 75 l 1,27,-1
 1786 75 l 1,25,-1
906 0 m 1,28,-1
 1111 -205 l 1,29,-1
 1315 0 l 1,30,-1
 906 0 l 1,28,-1
361 955 m 1,31,-1
 156 750 l 1,32,-1
 361 545 l 1,33,-1
 361 955 l 1,31,-1
1315 1500 m 1,34,-1
 1111 1705 l 1,35,-1
 906 1500 l 1,36,-1
 1315 1500 l 1,34,-1
1786 1030 m 1,37,-1
 1390 1425 l 1,38,-1
 831 1425 l 1,39,-1
 436 1030 l 1,40,-1
 436 470 l 1,41,-1
 831 75 l 1,42,-1
 1390 75 l 1,43,-1
 1786 470 l 1,44,-1
 1786 1030 l 1,37,-1
2065 750 m 1,45,-1
 1861 955 l 1,46,-1
 1861 545 l 1,47,-1
 2065 750 l 1,45,-1
1328 750 m 256,48,49
 1328 660 1328 660 1264.5 596 c 128,-1,50
 1201 532 1201 532 1111 532 c 256,51,52
 1021 532 1021 532 957 596 c 128,-1,53
 893 660 893 660 893 750 c 256,54,55
 893 840 893 840 957 903.5 c 128,-1,56
 1021 967 1021 967 1111 967 c 256,57,58
 1201 967 1201 967 1264.5 903.5 c 128,-1,59
 1328 840 1328 840 1328 750 c 256,48,49
1253 750 m 256,60,61
 1253 809 1253 809 1211 850.5 c 128,-1,62
 1169 892 1169 892 1110 892 c 256,63,64
 1051 892 1051 892 1009 850.5 c 128,-1,65
 967 809 967 809 967 750 c 256,66,67
 967 691 967 691 1009 649 c 128,-1,68
 1051 607 1051 607 1110 607 c 256,69,70
 1169 607 1169 607 1211 649 c 128,-1,71
 1253 691 1253 691 1253 750 c 256,60,61
EndSplineSet
EndChar

StartChar: uni06DF
Encoding: 1759 1759 390
Width: 0
GlyphClass: 2
Flags: W
LayerCount: 2
Fore
SplineSet
75 1429 m 256,0,1
 75 1398 75 1398 53 1376 c 128,-1,2
 31 1354 31 1354 0 1354 c 256,3,4
 -31 1354 -31 1354 -53 1376 c 128,-1,5
 -75 1398 -75 1398 -75 1429 c 256,6,7
 -75 1460 -75 1460 -53 1482 c 128,-1,8
 -31 1504 -31 1504 0 1504 c 256,9,10
 31 1504 31 1504 53 1482 c 128,-1,11
 75 1460 75 1460 75 1429 c 256,0,1
EndSplineSet
EndChar

StartChar: uni06E9
Encoding: 1769 1769 391
Width: 1229
GlyphClass: 2
Flags: W
LayerCount: 2
Fore
SplineSet
1179 0 m 1,0,-1
 50 0 l 1,1,-1
 278 261 l 1,2,-1
 278 849 l 1,3,-1
 50 1108 l 1,4,-1
 614 1676 l 1,5,-1
 1179 1108 l 1,6,-1
 951 849 l 1,7,-1
 951 261 l 1,8,-1
 1179 0 l 1,0,-1
1101 1108 m 1,9,-1
 614 1598 l 1,10,-1
 128 1108 l 1,11,-1
 338 871 l 1,12,-1
 338 239 l 1,13,-1
 178 56 l 1,14,-1
 1051 56 l 1,15,-1
 891 239 l 1,16,-1
 891 871 l 1,17,-1
 1101 1108 l 1,9,-1
995 1108 m 1,18,-1
 845 937 l 1,19,-1
 845 131 l 1,20,-1
 384 131 l 1,21,-1
 384 937 l 1,22,-1
 234 1108 l 1,23,-1
 614 1489 l 1,24,-1
 995 1108 l 1,18,-1
922 1108 m 1,25,-1
 614 1416 l 1,26,-1
 307 1108 l 1,27,-1
 433 968 l 1,28,-1
 433 186 l 1,29,-1
 796 186 l 1,30,-1
 796 968 l 1,31,-1
 922 1108 l 1,25,-1
833 1108 m 1,32,-1
 745 1011 l 1,33,-1
 745 267 l 1,34,-1
 484 267 l 1,35,-1
 484 1011 l 1,36,-1
 396 1108 l 1,37,-1
 614 1331 l 1,38,-1
 833 1108 l 1,32,-1
780 1108 m 1,39,-1
 614 1278 l 1,40,-1
 449 1108 l 1,41,-1
 523 1027 l 1,42,-1
 523 309 l 1,43,-1
 705 309 l 1,44,-1
 705 1027 l 1,45,-1
 780 1108 l 1,39,-1
EndSplineSet
EndChar

StartChar: uni06EB
Encoding: 1771 1771 393
Width: 0
GlyphClass: 2
Flags: W
LayerCount: 2
Fore
SplineSet
168 1522 m 1,0,-1
 -1 1354 l 1,1,-1
 -168 1521 l 1,2,-1
 1 1689 l 1,3,-1
 168 1522 l 1,0,-1
104 1522 m 1,4,-1
 0 1626 l 1,5,-1
 -104 1521 l 1,6,-1
 0 1417 l 1,7,-1
 104 1522 l 1,4,-1
EndSplineSet
EndChar

StartChar: comma
Encoding: 44 44 402
Width: 388
Flags: W
LayerCount: 2
Fore
SplineSet
96 107 m 0,0,1
 96 151 96 151 128.5 183 c 128,-1,2
 161 215 161 215 205 215 c 0,3,4
 248 215 248 215 280 182.5 c 128,-1,5
 312 150 312 150 312 107 c 2,6,-1
 312 -45 l 2,7,8
 312 -175 312 -175 176 -175 c 2,9,-1
 119 -175 l 1,10,-1
 119 -89 l 1,11,12
 209 -89 209 -89 209 -25 c 0,13,14
 209 -13 209 -13 205 -1 c 1,15,16
 96 -1 96 -1 96 107 c 0,0,1
EndSplineSet
EndChar

StartChar: afii57407
Encoding: 1567 1567 403
Width: 823
GlyphClass: 2
Flags: W
LayerCount: 2
Fore
SplineSet
772 111 m 256,0,1
 772 66 772 66 739.5 33.5 c 128,-1,2
 707 1 707 1 662 1 c 256,3,4
 617 1 617 1 584.5 33.5 c 128,-1,5
 552 66 552 66 552 111 c 256,6,7
 552 156 552 156 584.5 188 c 128,-1,8
 617 220 617 220 662 220 c 256,9,10
 707 220 707 220 739.5 188 c 128,-1,11
 772 156 772 156 772 111 c 256,0,1
823 924 m 1,12,-1
 491 924 l 2,13,14
 394 924 394 924 394 827 c 2,15,-1
 394 707 l 1,16,-1
 683 707 l 2,17,18
 752 707 752 707 770 668 c 0,19,20
 779 648 779 648 779 569 c 2,21,-1
 779 315 l 1,22,-1
 561 315 l 1,23,-1
 561 420 l 2,24,25
 561 463 561 463 550 475 c 0,26,27
 532 494 532 494 466 494 c 2,28,-1
 350 494 l 2,29,30
 175 494 175 494 175 655 c 2,31,-1
 175 976 l 2,32,33
 175 1138 175 1138 350 1138 c 2,34,-1
 823 1138 l 1,35,-1
 823 924 l 1,12,-1
EndSplineSet
EndChar

StartChar: afii57392
Encoding: 1776 1776 404
Width: 398
Flags: W
LayerCount: 2
Fore
SplineSet
398 339 m 2,0,1
 398 269 398 269 327 269 c 2,2,-1
 248 269 l 2,3,4
 177 269 177 269 177 339 c 2,5,-1
 177 451 l 2,6,7
 177 522 177 522 247 522 c 2,8,-1
 328 522 l 2,9,10
 398 522 398 522 398 451 c 2,11,-1
 398 339 l 2,0,1
EndSplineSet
EndChar

StartChar: afii57393
Encoding: 1777 1777 405
Width: 397
Flags: W
LayerCount: 2
Fore
SplineSet
397 0 m 1,0,-1
 177 0 l 1,1,-1
 177 1016 l 1,2,-1
 397 1016 l 1,3,-1
 397 0 l 1,0,-1
EndSplineSet
EndChar

StartChar: afii57394
Encoding: 1778 1778 406
Width: 822
Flags: W
LayerCount: 2
Fore
SplineSet
821 751 m 2,0,1
 821 534 821 534 597 534 c 2,2,-1
 397 534 l 1,3,-1
 397 0 l 1,4,-1
 177 0 l 1,5,-1
 177 1026 l 1,6,-1
 397 1026 l 1,7,-1
 397 747 l 1,8,-1
 463 748 l 2,9,10
 555 749 555 749 569 756 c 0,11,12
 601 771 601 771 601 844 c 2,13,-1
 601 1028 l 1,14,-1
 821 1028 l 1,15,-1
 821 751 l 2,0,1
EndSplineSet
EndChar

StartChar: afii57395
Encoding: 1779 1779 407
Width: 1121
Flags: W
LayerCount: 2
Fore
SplineSet
1120 741 m 2,0,1
 1120 524 1120 524 896 524 c 2,2,-1
 397 524 l 1,3,-1
 397 0 l 1,4,-1
 177 0 l 1,5,-1
 177 1016 l 1,6,-1
 397 1016 l 1,7,-1
 397 737 l 1,8,-1
 541 738 l 1,9,-1
 541 1016 l 1,10,-1
 762 1016 l 1,11,-1
 762 737 l 1,12,13
 852 737 852 737 868 745 c 0,14,15
 900 761 900 761 900 834 c 2,16,-1
 900 1018 l 1,17,-1
 1120 1018 l 1,18,-1
 1120 741 l 2,0,1
EndSplineSet
EndChar

StartChar: afii62843
Encoding: 1780 1780 408
Width: 1121
Flags: W
LayerCount: 2
Fore
SplineSet
1120 833 m 1,0,-1
 866 833 l 2,1,2
 798 833 798 833 782 809 c 0,3,4
 770 791 770 791 770 711 c 1,5,-1
 1116 711 l 1,6,-1
 1116 524 l 1,7,-1
 397 524 l 1,8,-1
 397 0 l 1,9,-1
 177 0 l 1,10,-1
 177 1016 l 1,11,-1
 397 1016 l 1,12,-1
 397 711 l 1,13,-1
 549 711 l 1,14,-1
 549 885 l 2,15,16
 549 1046 549 1046 724 1046 c 2,17,-1
 1120 1046 l 1,18,-1
 1120 833 l 1,0,-1
EndSplineSet
EndChar

StartChar: afii62844
Encoding: 1781 1781 409
Width: 912
Flags: W
LayerCount: 2
Fore
SplineSet
912 203 m 0,0,1
 912 119 912 119 871 59 c 0,2,3
 824 -9 824 -9 744 -9 c 0,4,5
 613 -9 613 -9 553 74 c 1,6,7
 491 -9 491 -9 366 -9 c 0,8,9
 276 -9 276 -9 224 51 c 0,10,11
 176 107 176 107 176 199 c 0,12,13
 176 305 176 305 282 576 c 2,14,-1
 449 1003 l 1,15,-1
 657 1003 l 1,16,-1
 826 570 l 2,17,18
 912 350 912 350 912 203 c 0,0,1
713 251 m 1,19,-1
 549 769 l 1,20,-1
 386 257 l 1,21,22
 396 199 396 199 449 199 c 0,23,24
 485 199 485 199 511.5 229 c 128,-1,25
 538 259 538 259 538 295 c 0,26,27
 538 308 538 308 554 308 c 0,28,29
 569 308 569 308 569 295 c 0,30,31
 569 257 569 257 594.5 228 c 128,-1,32
 620 199 620 199 657 199 c 0,33,34
 713 199 713 199 713 251 c 1,19,-1
EndSplineSet
EndChar

StartChar: afii62845
Encoding: 1782 1782 410
Width: 828
Flags: W
LayerCount: 2
Fore
SplineSet
828 0 m 1,0,-1
 606 0 l 1,1,-1
 606 704 l 2,2,3
 606 775 606 775 561 793 c 0,4,5
 539 802 539 802 465 802 c 2,6,-1
 174 803 l 1,7,-1
 174 1016 l 1,8,-1
 607 1016 l 2,9,10
 828 1016 828 1016 828 803 c 2,11,-1
 828 0 l 1,0,-1
EndSplineSet
EndChar

StartChar: afii57399
Encoding: 1783 1783 411
Width: 964
Flags: W
LayerCount: 2
Fore
SplineSet
964 1009 m 1,0,-1
 866 480 l 2,1,2
 817 218 817 218 791 152 c 0,3,4
 725 -13 725 -13 578 -13 c 256,5,6
 431 -13 431 -13 362 152 c 0,7,8
 339 206 339 206 283 480 c 2,9,-1
 174 1009 l 1,10,-1
 387 1009 l 1,11,-1
 578 202 l 1,12,-1
 744 1009 l 1,13,-1
 964 1009 l 1,0,-1
EndSplineSet
EndChar

StartChar: afii57400
Encoding: 1784 1784 412
Width: 964
Flags: W
LayerCount: 2
Fore
SplineSet
964 0 m 1,0,-1
 744 0 l 1,1,-1
 578 807 l 1,2,-1
 387 0 l 1,3,-1
 174 0 l 1,4,-1
 283 529 l 2,5,6
 334 779 334 779 369 857 c 0,7,8
 442 1022 442 1022 578 1022 c 0,9,10
 725 1022 725 1022 791 857 c 0,11,12
 817 791 817 791 866 529 c 2,13,-1
 964 0 l 1,0,-1
EndSplineSet
EndChar

StartChar: afii57401
Encoding: 1785 1785 413
Width: 820
Flags: W
LayerCount: 2
Fore
SplineSet
820 -1 m 1,0,-1
 605 -1 l 1,1,-1
 605 344 l 1,2,-1
 337 344 l 2,3,4
 176 344 176 344 176 520 c 2,5,-1
 176 842 l 2,6,7
 176 1018 176 1018 337 1018 c 2,8,-1
 659 1018 l 2,9,10
 820 1018 820 1018 820 842 c 2,11,-1
 820 -1 l 1,0,-1
605 622 m 2,12,-1
 605 735 l 2,13,14
 605 793 605 793 551 793 c 2,15,-1
 442 793 l 2,16,17
 390 793 390 793 390 735 c 2,18,-1
 390 622 l 2,19,20
 390 565 390 565 442 565 c 2,21,-1
 551 565 l 2,22,23
 605 565 605 565 605 622 c 2,12,-1
EndSplineSet
EndChar

StartChar: afii57392.001
Encoding: 1632 1632 414
Width: 398
Flags: W
LayerCount: 2
Fore
SplineSet
398 339 m 2,0,1
 398 269 398 269 327 269 c 2,2,-1
 248 269 l 2,3,4
 177 269 177 269 177 339 c 2,5,-1
 177 451 l 2,6,7
 177 522 177 522 247 522 c 2,8,-1
 328 522 l 2,9,10
 398 522 398 522 398 451 c 2,11,-1
 398 339 l 2,0,1
EndSplineSet
EndChar

StartChar: afii57393.001
Encoding: 1633 1633 415
Width: 397
Flags: W
LayerCount: 2
Fore
SplineSet
397 0 m 1,0,-1
 177 0 l 1,1,-1
 177 1016 l 1,2,-1
 397 1016 l 1,3,-1
 397 0 l 1,0,-1
EndSplineSet
EndChar

StartChar: afii57394.001
Encoding: 1634 1634 416
Width: 822
Flags: W
LayerCount: 2
Fore
SplineSet
821 751 m 2,0,1
 821 534 821 534 597 534 c 2,2,-1
 397 534 l 1,3,-1
 397 0 l 1,4,-1
 177 0 l 1,5,-1
 177 1026 l 1,6,-1
 397 1026 l 1,7,-1
 397 747 l 1,8,-1
 463 748 l 2,9,10
 555 749 555 749 569 756 c 0,11,12
 601 771 601 771 601 844 c 2,13,-1
 601 1028 l 1,14,-1
 821 1028 l 1,15,-1
 821 751 l 2,0,1
EndSplineSet
EndChar

StartChar: afii57395.001
Encoding: 1635 1635 417
Width: 1121
Flags: W
LayerCount: 2
Fore
SplineSet
1120 741 m 2,0,1
 1120 524 1120 524 896 524 c 2,2,-1
 397 524 l 1,3,-1
 397 0 l 1,4,-1
 177 0 l 1,5,-1
 177 1016 l 1,6,-1
 397 1016 l 1,7,-1
 397 737 l 1,8,-1
 541 738 l 1,9,-1
 541 1016 l 1,10,-1
 762 1016 l 1,11,-1
 762 737 l 1,12,13
 852 737 852 737 868 745 c 0,14,15
 900 761 900 761 900 834 c 2,16,-1
 900 1018 l 1,17,-1
 1120 1018 l 1,18,-1
 1120 741 l 2,0,1
EndSplineSet
EndChar

StartChar: afii57396
Encoding: 1636 1636 418
Width: 1121
Flags: W
LayerCount: 2
Fore
SplineSet
1120 833 m 1,0,-1
 866 833 l 2,1,2
 798 833 798 833 782 809 c 0,3,4
 770 791 770 791 770 711 c 1,5,-1
 1116 711 l 1,6,-1
 1116 524 l 1,7,-1
 397 524 l 1,8,-1
 397 0 l 1,9,-1
 177 0 l 1,10,-1
 177 1016 l 1,11,-1
 397 1016 l 1,12,-1
 397 711 l 1,13,-1
 549 711 l 1,14,-1
 549 885 l 2,15,16
 549 1046 549 1046 724 1046 c 2,17,-1
 1120 1046 l 1,18,-1
 1120 833 l 1,0,-1
EndSplineSet
EndChar

StartChar: afii57397
Encoding: 1637 1637 419
Width: 912
Flags: W
LayerCount: 2
Fore
SplineSet
912 203 m 0,0,1
 912 119 912 119 871 59 c 0,2,3
 824 -9 824 -9 744 -9 c 0,4,5
 613 -9 613 -9 553 74 c 1,6,7
 491 -9 491 -9 366 -9 c 0,8,9
 276 -9 276 -9 224 51 c 0,10,11
 176 107 176 107 176 199 c 0,12,13
 176 305 176 305 282 576 c 2,14,-1
 449 1003 l 1,15,-1
 657 1003 l 1,16,-1
 826 570 l 2,17,18
 912 350 912 350 912 203 c 0,0,1
713 251 m 1,19,-1
 549 769 l 1,20,-1
 386 257 l 1,21,22
 396 199 396 199 449 199 c 0,23,24
 485 199 485 199 511.5 229 c 128,-1,25
 538 259 538 259 538 295 c 0,26,27
 538 308 538 308 554 308 c 0,28,29
 569 308 569 308 569 295 c 0,30,31
 569 257 569 257 594.5 228 c 128,-1,32
 620 199 620 199 657 199 c 0,33,34
 713 199 713 199 713 251 c 1,19,-1
EndSplineSet
EndChar

StartChar: afii57398
Encoding: 1638 1638 420
Width: 828
Flags: W
LayerCount: 2
Fore
SplineSet
828 0 m 1,0,-1
 606 0 l 1,1,-1
 606 704 l 2,2,3
 606 775 606 775 561 793 c 0,4,5
 539 802 539 802 465 802 c 2,6,-1
 174 803 l 1,7,-1
 174 1016 l 1,8,-1
 607 1016 l 2,9,10
 828 1016 828 1016 828 803 c 2,11,-1
 828 0 l 1,0,-1
EndSplineSet
EndChar

StartChar: afii57399.001
Encoding: 1639 1639 421
Width: 964
Flags: W
LayerCount: 2
Fore
SplineSet
964 1009 m 1,0,-1
 866 480 l 2,1,2
 817 218 817 218 791 152 c 0,3,4
 725 -13 725 -13 578 -13 c 256,5,6
 431 -13 431 -13 362 152 c 0,7,8
 339 206 339 206 283 480 c 2,9,-1
 174 1009 l 1,10,-1
 387 1009 l 1,11,-1
 578 202 l 1,12,-1
 744 1009 l 1,13,-1
 964 1009 l 1,0,-1
EndSplineSet
EndChar

StartChar: afii57400.001
Encoding: 1640 1640 422
Width: 964
Flags: W
LayerCount: 2
Fore
SplineSet
964 0 m 1,0,-1
 744 0 l 1,1,-1
 578 807 l 1,2,-1
 387 0 l 1,3,-1
 174 0 l 1,4,-1
 283 529 l 2,5,6
 334 779 334 779 369 857 c 0,7,8
 442 1022 442 1022 578 1022 c 0,9,10
 725 1022 725 1022 791 857 c 0,11,12
 817 791 817 791 866 529 c 2,13,-1
 964 0 l 1,0,-1
EndSplineSet
EndChar

StartChar: afii57401.001
Encoding: 1641 1641 423
Width: 820
Flags: W
LayerCount: 2
Fore
SplineSet
820 -1 m 1,0,-1
 605 -1 l 1,1,-1
 605 344 l 1,2,-1
 337 344 l 2,3,4
 176 344 176 344 176 520 c 2,5,-1
 176 842 l 2,6,7
 176 1018 176 1018 337 1018 c 2,8,-1
 659 1018 l 2,9,10
 820 1018 820 1018 820 842 c 2,11,-1
 820 -1 l 1,0,-1
605 622 m 2,12,-1
 605 735 l 2,13,14
 605 793 605 793 551 793 c 2,15,-1
 442 793 l 2,16,17
 390 793 390 793 390 735 c 2,18,-1
 390 622 l 2,19,20
 390 565 390 565 442 565 c 2,21,-1
 551 565 l 2,22,23
 605 565 605 565 605 622 c 2,12,-1
EndSplineSet
EndChar

StartChar: guillemotleft
Encoding: 171 171 424
Width: 683
Flags: W
LayerCount: 2
Fore
SplineSet
691 7 m 1,0,-1
 577 7 l 2,1,2
 466 7 466 7 466 113 c 2,3,-1
 466 534 l 2,4,5
 466 641 466 641 577 641 c 2,6,-1
 691 641 l 1,7,-1
 691 536 l 1,8,-1
 648 536 l 2,9,10
 606 536 606 536 598 532 c 0,11,12
 578 522 578 522 578 485 c 2,13,-1
 578 163 l 2,14,15
 578 129 578 129 598 121 c 0,16,17
 602 119 602 119 648 116 c 2,18,-1
 691 113 l 1,19,-1
 691 7 l 1,0,-1
402 7 m 1,20,-1
 287 7 l 2,21,22
 177 7 177 7 177 113 c 2,23,-1
 177 534 l 2,24,25
 177 641 177 641 287 641 c 2,26,-1
 402 641 l 1,27,-1
 402 536 l 1,28,-1
 359 536 l 2,29,30
 318 536 318 536 308 532 c 0,31,32
 289 522 289 522 289 485 c 2,33,-1
 289 163 l 2,34,35
 289 129 289 129 308 121 c 0,36,37
 312 119 312 119 359 116 c 2,38,-1
 402 113 l 1,39,-1
 402 7 l 1,20,-1
EndSplineSet
EndChar

StartChar: guillemotright
Encoding: 187 187 425
Width: 691
Flags: W
LayerCount: 2
Fore
SplineSet
177 113 m 1,0,-1
 220 116 l 2,1,2
 266 119 266 119 270 121 c 0,3,4
 290 129 290 129 290 163 c 2,5,-1
 290 485 l 2,6,7
 290 522 290 522 270 532 c 0,8,9
 262 536 262 536 220 536 c 2,10,-1
 177 536 l 1,11,-1
 177 641 l 1,12,-1
 291 641 l 2,13,14
 402 641 402 641 402 534 c 2,15,-1
 402 113 l 2,16,17
 402 7 402 7 291 7 c 2,18,-1
 177 7 l 1,19,-1
 177 113 l 1,0,-1
466 113 m 1,20,-1
 509 116 l 2,21,22
 556 119 556 119 560 121 c 0,23,24
 579 129 579 129 579 163 c 2,25,-1
 579 485 l 2,26,27
 579 522 579 522 560 532 c 0,28,29
 550 536 550 536 509 536 c 2,30,-1
 466 536 l 1,31,-1
 466 641 l 1,32,-1
 581 641 l 2,33,34
 691 641 691 641 691 534 c 2,35,-1
 691 113 l 2,36,37
 691 7 691 7 581 7 c 2,38,-1
 466 7 l 1,39,-1
 466 113 l 1,20,-1
EndSplineSet
EndChar

StartChar: quoteleft
Encoding: 8216 8216 426
Width: 516
Flags: W
LayerCount: 2
Fore
SplineSet
111 1104 m 0,0,1
 115 1196 115 1196 176.5 1285.5 c 128,-1,2
 238 1375 238 1375 313 1411 c 1,3,-1
 356 1327 l 1,4,5
 336 1315 336 1315 305 1281.5 c 128,-1,6
 274 1248 274 1248 258 1196 c 1,7,8
 350 1155 350 1155 348 1080 c 0,9,10
 348 1057 348 1057 338.5 1036 c 128,-1,11
 329 1015 329 1015 313.5 999 c 128,-1,12
 298 983 298 983 277 974 c 128,-1,13
 256 965 256 965 233 965 c 0,14,15
 205 965 205 965 182.5 977.5 c 128,-1,16
 160 990 160 990 144 1009.5 c 128,-1,17
 128 1029 128 1029 119.5 1054 c 128,-1,18
 111 1079 111 1079 111 1104 c 0,0,1
EndSplineSet
EndChar

StartChar: quoteright
Encoding: 8217 8217 427
Width: 575
Flags: W
LayerCount: 2
Fore
SplineSet
416 1276 m 0,0,1
 412 1184 412 1184 350.5 1095 c 128,-1,2
 289 1006 289 1006 213 969 c 1,3,-1
 170 1051 l 1,4,5
 190 1063 190 1063 221 1097 c 128,-1,6
 252 1131 252 1131 268 1184 c 1,7,8
 176 1223 176 1223 178 1301 c 0,9,10
 178 1324 178 1324 187 1344.5 c 128,-1,11
 196 1365 196 1365 212 1380 c 128,-1,12
 228 1395 228 1395 249 1404 c 128,-1,13
 270 1413 270 1413 293 1413 c 0,14,15
 321 1413 321 1413 344 1401 c 128,-1,16
 367 1389 367 1389 383 1370 c 128,-1,17
 399 1351 399 1351 407.5 1326 c 128,-1,18
 416 1301 416 1301 416 1276 c 0,0,1
EndSplineSet
EndChar

StartChar: afii57451
Encoding: 1611 1611 428
Width: 0
GlyphClass: 4
Flags: W
AnchorPoint: "Anchor-2" 0 0 mark 0
AnchorPoint: "Anchor-0" 0 0 mark 0
LayerCount: 2
Fore
SplineSet
182 176 m 1,0,-1
 -194 176 l 1,1,-1
 -194 255 l 1,2,-1
 182 255 l 1,3,-1
 182 176 l 1,0,-1
182 2 m 1,4,-1
 -194 2 l 1,5,-1
 -194 81 l 1,6,-1
 182 81 l 1,7,-1
 182 2 l 1,4,-1
EndSplineSet
EndChar

StartChar: afii57454
Encoding: 1614 1614 429
Width: 0
GlyphClass: 4
Flags: W
AnchorPoint: "Anchor-2" 0 0 mark 0
AnchorPoint: "Anchor-0" 0 0 mark 0
LayerCount: 2
Fore
SplineSet
193 0 m 1,0,-1
 -183 0 l 1,1,-1
 -183 79 l 1,2,-1
 193 79 l 1,3,-1
 193 0 l 1,0,-1
EndSplineSet
EndChar

StartChar: afii57455
Encoding: 1615 1615 430
Width: 0
GlyphClass: 4
Flags: W
AnchorPoint: "Anchor-2" 0 0 mark 0
AnchorPoint: "Anchor-0" 0 0 mark 0
LayerCount: 2
Fore
SplineSet
214 0 m 1,0,-1
 -210 0 l 1,1,-1
 -210 100 l 1,2,-1
 -52 100 l 1,3,4
 -52 263 -52 263 214 263 c 1,5,-1
 214 0 l 1,0,-1
145 104 m 1,6,-1
 145 177 l 1,7,8
 18 177 18 177 18 104 c 1,9,-1
 145 104 l 1,6,-1
EndSplineSet
EndChar

StartChar: afii57452
Encoding: 1612 1612 431
Width: 0
GlyphClass: 4
Flags: W
AnchorPoint: "Anchor-2" 0 0 mark 0
AnchorPoint: "Anchor-0" 0 0 mark 0
LayerCount: 2
Fore
SplineSet
218 2 m 1,0,-1
 -196 2 l 1,1,-1
 -196 99 l 1,2,-1
 -144 99 l 1,3,-1
 -144 217 l 1,4,-1
 -103 217 l 1,5,-1
 -103 99 l 1,6,-1
 -42 99 l 1,7,8
 -42 259 -42 259 218 259 c 1,9,-1
 218 2 l 1,0,-1
151 103 m 1,10,-1
 151 175 l 1,11,12
 27 175 27 175 27 103 c 1,13,-1
 151 103 l 1,10,-1
EndSplineSet
EndChar

StartChar: afii57456
Encoding: 1616 1616 432
Width: 0
GlyphClass: 4
Flags: W
AnchorPoint: "Anchor-3" 0 0 mark 0
AnchorPoint: "Anchor-1" 0 0 mark 0
LayerCount: 2
Fore
SplineSet
193 1 m 1,0,-1
 -183 1 l 1,1,-1
 -183 80 l 1,2,-1
 193 80 l 1,3,-1
 193 1 l 1,0,-1
EndSplineSet
EndChar

StartChar: afii57457
Encoding: 1617 1617 433
Width: 0
GlyphClass: 4
Flags: W
AnchorPoint: "Anchor-2" 0 0 mark 0
AnchorPoint: "Anchor-0" 0 0 mark 0
LayerCount: 2
Fore
SplineSet
219 239 m 1,0,1
 218 1 218 1 95 1 c 0,2,3
 30 1 30 1 2 67 c 1,4,5
 -30 0 -30 0 -106 0 c 0,6,7
 -181 0 -181 0 -204 74 c 0,8,9
 -219 122 -219 122 -219 239 c 1,10,-1
 -143 239 l 1,11,12
 -141 93 -141 93 -89 93 c 0,13,14
 -40 93 -40 93 -40 239 c 1,15,-1
 33 239 l 1,16,17
 37 95 37 95 87 95 c 0,18,19
 133 95 133 95 137 239 c 1,20,-1
 219 239 l 1,0,1
EndSplineSet
EndChar

StartChar: afii57458
Encoding: 1618 1618 434
Width: 0
GlyphClass: 4
Flags: W
AnchorPoint: "Anchor-2" 0 0 mark 0
AnchorPoint: "Anchor-0" 0 0 mark 0
LayerCount: 2
Fore
SplineSet
164 172 m 0,0,1
 164 104 164 104 117.5 57 c 128,-1,2
 71 10 71 10 3 10 c 0,3,4
 -64 10 -64 10 -110.5 57 c 128,-1,5
 -157 104 -157 104 -157 172 c 0,6,7
 -157 238 -157 238 -110 285 c 128,-1,8
 -63 332 -63 332 3 332 c 256,9,10
 69 332 69 332 116.5 285 c 128,-1,11
 164 238 164 238 164 172 c 0,0,1
73 173 m 0,12,13
 73 248 73 248 2 243 c 1,14,15
 -70 245 -70 245 -70 173 c 0,16,17
 -70 100 -70 100 3 100 c 0,18,19
 73 100 73 100 73 173 c 0,12,13
EndSplineSet
EndChar

StartChar: exclam
Encoding: 33 33 437
Width: 437
GlyphClass: 2
Flags: W
LayerCount: 2
Fore
SplineSet
397 109 m 256,0,1
 397 64 397 64 364.5 31.5 c 128,-1,2
 332 -1 332 -1 287 -1 c 256,3,4
 242 -1 242 -1 209.5 31.5 c 128,-1,5
 177 64 177 64 177 109 c 256,6,7
 177 154 177 154 209.5 186 c 128,-1,8
 242 218 242 218 287 218 c 256,9,10
 332 218 332 218 364.5 186 c 128,-1,11
 397 154 397 154 397 109 c 256,0,1
397 325 m 1,12,-1
 177 325 l 1,13,-1
 177 1136 l 1,14,-1
 397 1136 l 1,15,-1
 397 325 l 1,12,-1
EndSplineSet
EndChar

StartChar: afii64060
Encoding: 64830 64830 438
Width: 520
GlyphClass: 2
Flags: W
LayerCount: 2
Fore
SplineSet
520 -160 m 1,0,-1
 345 -160 l 2,1,2
 175 -160 175 -160 175 4 c 2,3,-1
 175 996 l 2,4,5
 175 1160 175 1160 345 1160 c 2,6,-1
 520 1160 l 1,7,-1
 520 995 l 1,8,-1
 454 995 l 2,9,10
 389 995 389 995 376 989 c 0,11,12
 346 975 346 975 346 920 c 2,13,-1
 346 80 l 2,14,15
 346 25 346 25 376 12 c 0,16,17
 390 6 390 6 454 5 c 2,18,-1
 520 4 l 1,19,-1
 520 -160 l 1,0,-1
EndSplineSet
EndChar

StartChar: afii64061
Encoding: 64831 64831 439
Width: 520
GlyphClass: 2
Flags: W
LayerCount: 2
Fore
SplineSet
174 4 m 1,0,-1
 240 5 l 2,1,2
 304 6 304 6 318 12 c 0,3,4
 348 25 348 25 348 80 c 2,5,-1
 348 920 l 2,6,7
 348 975 348 975 318 989 c 0,8,9
 305 995 305 995 240 995 c 2,10,-1
 174 995 l 1,11,-1
 174 1160 l 1,12,-1
 349 1160 l 2,13,14
 519 1160 519 1160 519 996 c 2,15,-1
 519 4 l 2,16,17
 519 -160 519 -160 349 -160 c 2,18,-1
 174 -160 l 1,19,-1
 174 4 l 1,0,-1
EndSplineSet
EndChar

StartChar: afii62821
Encoding: 65252 65252 440
Width: 1002
GlyphClass: 2
Flags: W
AnchorPoint: "Anchor-1" 450 -465 basechar 0
AnchorPoint: "Anchor-0" 510 945 basechar 0
LayerCount: 2
Fore
SplineSet
1002 0 m 1,0,-1
 -70 0 l 1,1,-1
 -70 216 l 1,2,-1
 226 216 l 1,3,-1
 226 643 l 1,4,-1
 724 643 l 2,5,6
 900 643 900 643 900 482 c 2,7,-1
 900 216 l 1,8,-1
 1002 216 l 1,9,-1
 1002 0 l 1,0,-1
675 269 m 2,10,-1
 675 377 l 2,11,12
 675 429 675 429 618 429 c 2,13,-1
 452 429 l 1,14,-1
 452 216 l 1,15,-1
 618 216 l 2,16,17
 675 216 675 216 675 269 c 2,10,-1
EndSplineSet
EndChar

StartChar: uni25CC
Encoding: 9676 9676 441
Width: 911
Flags: W
AnchorPoint: "Anchor-1" 480 -390 basechar 0
AnchorPoint: "Anchor-0" 465 975 basechar 0
LayerCount: 2
Fore
SplineSet
771 629 m 256,0,1
 771 592 771 592 734 592 c 0,2,3
 695 592 695 592 695 629 c 256,4,5
 695 666 695 666 734 666 c 0,6,7
 771 666 771 666 771 629 c 256,0,1
658 703 m 0,8,9
 658 666 658 666 621 666 c 0,10,11
 582 666 582 666 582 703 c 0,12,13
 582 742 582 742 621 742 c 0,14,15
 658 742 658 742 658 703 c 0,8,9
847 516 m 0,16,17
 847 477 847 477 808 477 c 0,18,19
 771 477 771 477 771 516 c 0,20,21
 771 553 771 553 810 553 c 0,22,23
 847 553 847 553 847 516 c 0,16,17
873 384 m 256,24,25
 873 347 873 347 836 347 c 0,26,27
 797 347 797 347 797 384 c 256,28,29
 797 421 797 421 836 421 c 0,30,31
 873 421 873 421 873 384 c 256,24,25
525 731 m 0,32,33
 525 692 525 692 488 692 c 256,34,35
 451 692 451 692 451 731 c 0,36,37
 451 768 451 768 488 768 c 256,38,39
 525 768 525 768 525 731 c 0,32,33
847 251 m 0,40,41
 847 214 847 214 808 214 c 0,42,43
 771 214 771 214 771 251 c 0,44,45
 771 290 771 290 808 290 c 0,46,47
 847 290 847 290 847 251 c 0,40,41
394 703 m 0,48,49
 394 666 394 666 356 666 c 0,50,51
 319 666 319 666 319 703 c 0,52,53
 319 742 319 742 356 742 c 0,54,55
 394 742 394 742 394 703 c 0,48,49
282 629 m 256,56,57
 282 592 282 592 243 592 c 0,58,59
 206 592 206 592 206 627 c 0,60,61
 206 666 206 666 243 666 c 0,62,63
 282 666 282 666 282 629 c 256,56,57
771 138 m 0,64,65
 771 101 771 101 734 101 c 256,66,67
 697 101 697 101 697 138 c 0,68,69
 697 177 697 177 734 177 c 256,70,71
 771 177 771 177 771 138 c 0,64,65
658 64 m 0,72,73
 658 27 658 27 621 27 c 256,74,75
 584 27 584 27 584 64 c 0,76,77
 584 103 584 103 621 103 c 256,78,79
 658 103 658 103 658 64 c 0,72,73
206 516 m 0,80,81
 206 477 206 477 171 477 c 0,82,83
 132 477 132 477 132 516 c 0,84,85
 132 553 132 553 169 553 c 256,86,87
 206 553 206 553 206 516 c 0,80,81
180 384 m 256,88,89
 180 347 180 347 143 347 c 0,90,91
 104 347 104 347 104 384 c 256,92,93
 104 421 104 421 143 421 c 0,94,95
 180 421 180 421 180 384 c 256,88,89
525 38 m 0,96,97
 525 -1 525 -1 488 -1 c 256,98,99
 451 -1 451 -1 451 38 c 0,100,101
 451 75 451 75 488 75 c 256,102,103
 525 75 525 75 525 38 c 0,96,97
394 66 m 0,104,105
 394 27 394 27 356 27 c 0,106,107
 319 27 319 27 319 64 c 0,108,109
 319 103 319 103 356 103 c 0,110,111
 394 103 394 103 394 66 c 0,104,105
206 251 m 0,112,113
 206 214 206 214 169 214 c 256,114,115
 132 214 132 214 132 251 c 0,116,117
 132 290 132 290 169 290 c 256,118,119
 206 290 206 290 206 251 c 0,112,113
282 138 m 0,120,121
 282 101 282 101 245 101 c 0,122,123
 206 101 206 101 206 138 c 0,124,125
 206 177 206 177 243 177 c 0,126,127
 282 177 282 177 282 138 c 0,120,121
EndSplineSet
EndChar

StartChar: afii62819
Encoding: 65246 65246 442
Width: 1155
GlyphClass: 2
Flags: W
AnchorPoint: "Anchor-1" 645 -870 basechar 0
AnchorPoint: "Anchor-0" 765 1275 basechar 0
LayerCount: 2
Fore
SplineSet
1155 0 m 1,0,-1
 1053 0 l 1,1,2
 1053 -182 1053 -182 927 -317 c 128,-1,3
 801 -452 801 -452 620 -452 c 0,4,5
 438 -452 438 -452 307.5 -325.5 c 128,-1,6
 177 -199 177 -199 177 -18 c 2,7,-1
 177 642 l 1,8,-1
 397 642 l 1,9,-1
 397 -12 l 2,10,11
 397 -102 397 -102 461 -166 c 128,-1,12
 525 -230 525 -230 615 -230 c 256,13,14
 705 -230 705 -230 769.5 -166 c 128,-1,15
 834 -102 834 -102 834 -12 c 2,16,-1
 834 1138 l 1,17,-1
 1053 1138 l 1,18,-1
 1053 216 l 1,19,-1
 1155 216 l 1,20,-1
 1155 0 l 1,0,-1
EndSplineSet
EndChar

StartChar: braceright
Encoding: 125 125 445
Width: 510
GlyphClass: 2
Flags: W
LayerCount: 2
Fore
SplineSet
171 4 m 1,0,-1
 341 4 l 1,1,-1
 341 975 l 1,2,-1
 171 975 l 1,3,-1
 171 1137 l 1,4,-1
 509 1137 l 1,5,-1
 509 -157 l 1,6,-1
 171 -157 l 1,7,-1
 171 4 l 1,0,-1
EndSplineSet
EndChar

StartChar: uni0656
Encoding: 1622 1622 452
Width: 0
GlyphClass: 4
Flags: W
AnchorPoint: "Anchor-3" 0 0 mark 0
AnchorPoint: "Anchor-1" 0 0 mark 0
LayerCount: 2
Fore
SplineSet
-51 321 m 1,0,-1
 48 321 l 1,1,-1
 48 0 l 1,2,-1
 -51 0 l 1,3,-1
 -51 321 l 1,0,-1
EndSplineSet
EndChar

StartChar: E005
Encoding: 65578 -1 470
Width: 476
GlyphClass: 3
Flags: W
LayerCount: 2
Fore
SplineSet
476 0 m 1,0,-1
 -69 0 l 1,1,-1
 -69 216 l 1,2,-1
 476 216 l 1,3,-1
 476 0 l 1,0,-1
EndSplineSet
EndChar

StartChar: afii57470
Encoding: 1726 1726 480
Width: 1208
Flags: W
AnchorPoint: "Anchor-1" 615 -480 basechar 0
AnchorPoint: "Anchor-0" 645 1050 basechar 0
LayerCount: 2
Fore
SplineSet
1208 161 m 2,0,1
 1208 0 1208 0 1033 0 c 2,2,-1
 -70 0 l 1,3,-1
 -70 216 l 1,4,-1
 220 216 l 1,5,-1
 220 482 l 2,6,7
 220 643 220 643 396 643 c 2,8,-1
 600 643 l 1,9,-1
 600 708 l 1,10,-1
 828 708 l 1,11,-1
 828 643 l 1,12,-1
 1033 643 l 2,13,14
 1208 643 1208 643 1208 482 c 2,15,-1
 1208 161 l 2,0,1
986 269 m 2,16,-1
 986 382 l 2,17,18
 986 434 986 434 929 434 c 2,19,-1
 828 434 l 1,20,-1
 828 215 l 1,21,-1
 929 215 l 2,22,23
 986 215 986 215 986 269 c 2,16,-1
600 215 m 1,24,-1
 600 434 l 1,25,-1
 500 434 l 2,26,27
 442 434 442 434 442 382 c 2,28,-1
 442 269 l 2,29,30
 442 215 442 215 500 215 c 2,31,-1
 600 215 l 1,24,-1
EndSplineSet
Substitution2: "'medi' Medial Forms in Arabic lookup 3 subtable" afii62827
Substitution2: "'fina' Terminal Forms in Arabic lookup 2 subtable" afii62827
Substitution2: "'init' Initial Forms in Arabic lookup 1 subtable" afii57470
EndChar

StartChar: at
Encoding: 64 64 489
Width: 1605
Flags: W
LayerCount: 2
Fore
SplineSet
1599 14 m 1,0,1
 1519 -146 1519 -146 1352 -241 c 0,2,3
 1165 -345 1165 -345 889 -345 c 0,4,5
 756 -345 756 -345 640.5 -322.5 c 128,-1,6
 525 -300 525 -300 430 -256 c 128,-1,7
 335 -212 335 -212 262.5 -146 c 128,-1,8
 190 -80 190 -80 142 6 c 0,9,10
 50 181 50 181 50 389 c 0,11,12
 50 612 50 612 157 808 c 0,13,14
 209 905 209 905 282 979.5 c 128,-1,15
 355 1054 355 1054 448 1102 c 0,16,17
 542 1150 542 1150 647 1175 c 128,-1,18
 752 1200 752 1200 873 1200 c 0,19,20
 974 1200 974 1200 1065 1180 c 128,-1,21
 1156 1160 1156 1160 1233 1121 c 128,-1,22
 1310 1082 1310 1082 1371 1025.5 c 128,-1,23
 1432 969 1432 969 1473 897 c 0,24,25
 1516 825 1516 825 1536.5 746 c 128,-1,26
 1557 667 1557 667 1557 580 c 0,27,28
 1557 477 1557 477 1525 384.5 c 128,-1,29
 1493 292 1493 292 1431 209 c 0,30,31
 1273 0 1273 0 1026 0 c 0,32,33
 957 0 957 0 923.5 23.5 c 128,-1,34
 890 47 890 47 879 92 c 1,35,36
 832 47 832 47 778 23.5 c 128,-1,37
 724 0 724 0 661 0 c 0,38,39
 594 0 594 0 538.5 23.5 c 128,-1,40
 483 47 483 47 437 92 c 0,41,42
 351 182 351 182 351 337 c 0,43,44
 351 526 351 526 458 680 c 0,45,46
 523 777 523 777 605 824 c 128,-1,47
 687 871 687 871 787 871 c 0,48,49
 932 871 932 871 998 762 c 1,50,-1
 1019 851 l 1,51,-1
 1230 851 l 1,52,-1
 1110 275 l 2,53,54
 1098 221 1098 221 1098 205 c 0,55,56
 1098 165 1098 165 1130 165 c 0,57,58
 1148 165 1148 165 1173 175.5 c 128,-1,59
 1198 186 1198 186 1230 211 c 0,60,61
 1270 241 1270 241 1303.5 283 c 128,-1,62
 1337 325 1337 325 1361.5 374.5 c 128,-1,63
 1386 424 1386 424 1399.5 478.5 c 128,-1,64
 1413 533 1413 533 1413 588 c 0,65,66
 1413 784 1413 784 1268 919 c 0,67,68
 1126 1052 1126 1052 869 1052 c 0,69,70
 651 1052 651 1052 500 963 c 128,-1,71
 349 874 349 874 270 712 c 0,72,73
 232 632 232 632 214.5 548.5 c 128,-1,74
 197 465 197 465 197 377 c 0,75,76
 197 205 197 205 281 69 c 0,77,78
 325 -2 325 -2 384 -52 c 128,-1,79
 443 -102 443 -102 521 -134 c 0,80,81
 676 -199 676 -199 875 -199 c 0,82,83
 1256 -199 1256 -199 1429 14 c 1,84,-1
 1599 14 l 1,0,1
560 345 m 0,85,86
 560 294 560 294 571 256.5 c 128,-1,87
 582 219 582 219 601 195 c 128,-1,88
 620 171 620 171 646.5 159 c 128,-1,89
 673 147 673 147 703 147 c 0,90,91
 727 147 727 147 748 152.5 c 128,-1,92
 769 158 769 158 789 169 c 0,93,94
 803 177 803 177 818.5 190 c 128,-1,95
 834 203 834 203 849 220 c 0,96,97
 892 270 892 270 923 364 c 0,98,99
 940 410 940 410 947.5 453.5 c 128,-1,100
 955 497 955 497 955 538 c 0,101,102
 955 583 955 583 943.5 618 c 128,-1,103
 932 653 932 653 912 677 c 128,-1,104
 892 701 892 701 864.5 713.5 c 128,-1,105
 837 726 837 726 805 726 c 0,106,107
 735 726 735 726 677 673 c 128,-1,108
 619 620 619 620 590 519 c 0,109,110
 575 470 575 470 567.5 427.5 c 128,-1,111
 560 385 560 385 560 345 c 0,85,86
EndSplineSet
EndChar

StartChar: A
Encoding: 65 65 490
Width: 1188
Flags: W
LayerCount: 2
Fore
SplineSet
923 0 m 1,0,-1
 821 269 l 1,1,-1
 349 269 l 1,2,-1
 251 0 l 1,3,-1
 0 0 l 1,4,-1
 460 1178 l 1,5,-1
 710 1178 l 1,6,-1
 1182 0 l 1,7,-1
 923 0 l 1,0,-1
582 904 m 1,8,-1
 423 465 l 1,9,-1
 745 465 l 1,10,-1
 582 904 l 1,8,-1
EndSplineSet
EndChar

StartChar: B
Encoding: 66 66 491
Width: 1188
Flags: W
LayerCount: 2
Fore
SplineSet
590 1178 m 2,0,1
 732 1178 732 1178 801 1166 c 0,2,3
 834 1160 834 1160 865 1148 c 128,-1,4
 896 1136 896 1136 923 1118 c 0,5,6
 978 1082 978 1082 1014 1020.5 c 128,-1,7
 1050 959 1050 959 1050 883 c 0,8,9
 1050 841 1050 841 1038 802 c 128,-1,10
 1026 763 1026 763 1004.5 729.5 c 128,-1,11
 983 696 983 696 952 669.5 c 128,-1,12
 921 643 921 643 883 626 c 1,13,14
 992 594 992 594 1049.5 520 c 128,-1,15
 1107 446 1107 446 1107 343 c 0,16,17
 1105 281 1105 281 1084.5 222.5 c 128,-1,18
 1064 164 1064 164 1025.5 118 c 128,-1,19
 987 72 987 72 932.5 42 c 128,-1,20
 878 12 878 12 808 8 c 0,21,22
 778 5 778 5 706.5 3.5 c 128,-1,23
 635 2 635 2 521 0 c 2,24,-1
 121 0 l 1,25,-1
 121 1178 l 1,26,-1
 590 1178 l 2,0,1
360 709 m 1,27,-1
 515 709 l 2,28,29
 586 709 586 709 627.5 710 c 128,-1,30
 669 711 669 711 686 714 c 0,31,32
 749 720 749 720 784 754.5 c 128,-1,33
 819 789 819 789 819 847 c 0,34,35
 819 901 819 901 788.5 936 c 128,-1,36
 758 971 758 971 699 977 c 0,37,38
 680 980 680 980 630.5 982 c 128,-1,39
 581 984 581 984 496 984 c 2,40,-1
 360 984 l 1,41,-1
 360 709 l 1,27,-1
360 199 m 1,42,-1
 580 199 l 2,43,44
 643 199 643 199 683.5 200.5 c 128,-1,45
 724 202 724 202 743 207 c 0,46,47
 795 216 795 216 828 252.5 c 128,-1,48
 861 289 861 289 861 351 c 0,49,50
 861 463 861 463 760 498 c 0,51,52
 736 506 736 506 684 510 c 128,-1,53
 632 514 632 514 550 514 c 2,54,-1
 360 514 l 1,55,-1
 360 199 l 1,42,-1
EndSplineSet
EndChar

StartChar: C
Encoding: 67 67 492
Width: 1188
Flags: W
LayerCount: 2
Fore
SplineSet
1103 362 m 1,0,1
 1051 168 1051 168 927.5 74 c 128,-1,2
 804 -20 804 -20 616 -20 c 0,3,4
 498 -20 498 -20 401 19.5 c 128,-1,5
 304 59 304 59 228 140 c 0,6,7
 78 300 78 300 78 580 c 0,8,9
 78 872 78 872 228 1036 c 1,10,11
 383 1199 383 1199 628 1199 c 0,12,13
 846 1199 846 1199 981 1070 c 0,14,15
 1023 1032 1023 1032 1052 978.5 c 128,-1,16
 1081 925 1081 925 1102 855 c 1,17,-1
 865 797 l 1,18,19
 844 889 844 889 778.5 941.5 c 128,-1,20
 713 994 713 994 616 994 c 0,21,22
 551 994 551 994 497 971.5 c 128,-1,23
 443 949 443 949 404.5 900.5 c 128,-1,24
 366 852 366 852 344.5 776.5 c 128,-1,25
 323 701 323 701 323 596 c 0,26,27
 323 485 323 485 344 406 c 128,-1,28
 365 327 365 327 403.5 277.5 c 128,-1,29
 442 228 442 228 495 205 c 128,-1,30
 548 182 548 182 612 182 c 0,31,32
 708 182 708 182 776 242.5 c 128,-1,33
 844 303 844 303 873 433 c 1,34,-1
 1103 362 l 1,0,1
EndSplineSet
EndChar

StartChar: D
Encoding: 68 68 493
Width: 1188
Flags: W
LayerCount: 2
Fore
SplineSet
554 1178 m 2,0,1
 629 1178 629 1178 684 1172.5 c 128,-1,2
 739 1167 739 1167 779 1156 c 0,3,4
 934 1105 934 1105 1019.5 963 c 128,-1,5
 1105 821 1105 821 1105 578 c 0,6,7
 1105 431 1105 431 1070 327 c 0,8,9
 1027 199 1027 199 946 119 c 0,10,11
 914 88 914 88 872 65 c 128,-1,12
 830 42 830 42 777 24 c 0,13,14
 697 0 697 0 566 0 c 2,15,-1
 119 0 l 1,16,-1
 119 1178 l 1,17,-1
 554 1178 l 2,0,1
358 199 m 1,18,-1
 534 199 l 2,19,20
 584 199 584 199 620 201.5 c 128,-1,21
 656 204 656 204 678 209 c 0,22,23
 719 219 719 219 752.5 240.5 c 128,-1,24
 786 262 786 262 810 304.5 c 128,-1,25
 834 347 834 347 847.5 415 c 128,-1,26
 861 483 861 483 861 588 c 0,27,28
 860 689 860 689 847 755 c 128,-1,29
 834 821 834 821 808.5 863 c 128,-1,30
 783 905 783 905 745.5 928.5 c 128,-1,31
 708 952 708 952 659 967 c 0,32,33
 609 979 609 979 464 979 c 2,34,-1
 358 979 l 1,35,-1
 358 199 l 1,18,-1
EndSplineSet
EndChar

StartChar: E
Encoding: 69 69 494
Width: 1098
Flags: W
LayerCount: 2
Fore
SplineSet
121 1178 m 1,0,-1
 994 1178 l 1,1,-1
 994 979 l 1,2,-1
 358 979 l 1,3,-1
 358 718 l 1,4,-1
 950 718 l 1,5,-1
 950 517 l 1,6,-1
 358 517 l 1,7,-1
 358 199 l 1,8,-1
 1015 199 l 1,9,-1
 1015 0 l 1,10,-1
 121 0 l 1,11,-1
 121 1178 l 1,0,-1
EndSplineSet
EndChar

StartChar: F
Encoding: 70 70 495
Width: 1005
Flags: W
LayerCount: 2
Fore
SplineSet
122 1178 m 1,0,-1
 927 1178 l 1,1,-1
 927 979 l 1,2,-1
 360 979 l 1,3,-1
 360 699 l 1,4,-1
 851 699 l 1,5,-1
 851 500 l 1,6,-1
 360 500 l 1,7,-1
 360 0 l 1,8,-1
 122 0 l 1,9,-1
 122 1178 l 1,0,-1
EndSplineSet
EndChar

StartChar: G
Encoding: 71 71 496
Width: 1281
Flags: W
LayerCount: 2
Fore
SplineSet
668 632 m 1,0,-1
 1180 632 l 1,1,-1
 1180 163 l 1,2,3
 1142 127 1142 127 1088 95 c 128,-1,4
 1034 63 1034 63 965 34 c 0,5,6
 894 7 894 7 821 -6.5 c 128,-1,7
 748 -20 748 -20 676 -20 c 0,8,9
 584 -20 584 -20 503 -0.5 c 128,-1,10
 422 19 422 19 355 57 c 128,-1,11
 288 95 288 95 235.5 151 c 128,-1,12
 183 207 183 207 149 279 c 0,13,14
 78 424 78 424 78 592 c 0,15,16
 78 684 78 684 97.5 766.5 c 128,-1,17
 117 849 117 849 155.5 919 c 128,-1,18
 194 989 194 989 250.5 1044.5 c 128,-1,19
 307 1100 307 1100 381 1138 c 0,20,21
 498 1199 498 1199 662 1199 c 0,22,23
 773 1199 773 1199 859 1175 c 128,-1,24
 945 1151 945 1151 1007.5 1106.5 c 128,-1,25
 1070 1062 1070 1062 1109.5 998 c 128,-1,26
 1149 934 1149 934 1166 853 c 1,27,-1
 927 808 l 1,28,29
 903 893 903 893 835 943.5 c 128,-1,30
 767 994 767 994 662 994 c 0,31,32
 585 994 585 994 523 969 c 128,-1,33
 461 944 461 944 417 895 c 128,-1,34
 373 846 373 846 349 772.5 c 128,-1,35
 325 699 325 699 325 602 c 0,36,37
 325 498 325 498 349 419.5 c 128,-1,38
 373 341 373 341 417.5 288 c 128,-1,39
 462 235 462 235 524 208.5 c 128,-1,40
 586 182 586 182 662 182 c 0,41,42
 699 182 699 182 737 190 c 128,-1,43
 775 198 775 198 811 212 c 128,-1,44
 847 226 847 226 880 244 c 128,-1,45
 913 262 913 262 939 283 c 1,46,-1
 939 433 l 1,47,-1
 668 433 l 1,48,-1
 668 632 l 1,0,-1
EndSplineSet
EndChar

StartChar: H
Encoding: 72 72 497
Width: 1188
Flags: W
LayerCount: 2
Fore
SplineSet
121 1178 m 1,0,-1
 360 1178 l 1,1,-1
 360 714 l 1,2,-1
 825 714 l 1,3,-1
 825 1178 l 1,4,-1
 1063 1178 l 1,5,-1
 1063 0 l 1,6,-1
 825 0 l 1,7,-1
 825 515 l 1,8,-1
 360 515 l 1,9,-1
 360 0 l 1,10,-1
 121 0 l 1,11,-1
 121 1178 l 1,0,-1
EndSplineSet
EndChar

StartChar: I
Encoding: 73 73 498
Width: 458
Flags: W
LayerCount: 2
Fore
SplineSet
113 1178 m 1,0,-1
 351 1178 l 1,1,-1
 351 0 l 1,2,-1
 113 0 l 1,3,-1
 113 1178 l 1,0,-1
EndSplineSet
EndChar

StartChar: J
Encoding: 74 74 499
Width: 915
Flags: W
LayerCount: 2
Fore
SplineSet
783 1178 m 1,0,-1
 783 433 l 2,1,2
 783 359 783 359 775.5 303.5 c 128,-1,3
 768 248 768 248 755 207 c 0,4,5
 720 103 720 103 630 41.5 c 128,-1,6
 540 -20 540 -20 391 -20 c 0,7,8
 217 -20 217 -20 123.5 77.5 c 128,-1,9
 30 175 30 175 28 364 c 1,10,-1
 251 389 l 1,11,12
 257 289 257 289 281 247 c 0,13,14
 321 182 321 182 400 182 c 256,15,16
 479 182 479 182 512 228 c 0,17,18
 544 276 544 276 544 416 c 2,19,-1
 544 1178 l 1,20,-1
 783 1178 l 1,0,-1
EndSplineSet
EndChar

StartChar: K
Encoding: 75 75 500
Width: 1188
Flags: W
LayerCount: 2
Fore
SplineSet
124 1178 m 1,0,-1
 362 1178 l 1,1,-1
 362 655 l 1,2,-1
 841 1178 l 1,3,-1
 1162 1178 l 1,4,-1
 718 718 l 1,5,-1
 1184 0 l 1,6,-1
 877 0 l 1,7,-1
 554 554 l 1,8,-1
 362 355 l 1,9,-1
 362 0 l 1,10,-1
 124 0 l 1,11,-1
 124 1178 l 1,0,-1
EndSplineSet
EndChar

StartChar: L
Encoding: 76 76 501
Width: 1005
Flags: W
LayerCount: 2
Fore
SplineSet
126 1168 m 1,0,-1
 364 1168 l 1,1,-1
 364 199 l 1,2,-1
 955 199 l 1,3,-1
 955 0 l 1,4,-1
 126 0 l 1,5,-1
 126 1168 l 1,0,-1
EndSplineSet
EndChar

StartChar: M
Encoding: 77 77 502
Width: 1371
Flags: W
LayerCount: 2
Fore
SplineSet
117 1178 m 1,0,-1
 471 1178 l 1,1,-1
 686 375 l 1,2,-1
 897 1178 l 1,3,-1
 1254 1178 l 1,4,-1
 1254 0 l 1,5,-1
 1034 0 l 1,6,-1
 1034 927 l 1,7,-1
 801 0 l 1,8,-1
 572 0 l 1,9,-1
 337 927 l 1,10,-1
 337 0 l 1,11,-1
 117 0 l 1,12,-1
 117 1178 l 1,0,-1
EndSplineSet
EndChar

StartChar: N
Encoding: 78 78 503
Width: 1188
Flags: W
LayerCount: 2
Fore
SplineSet
122 1178 m 1,0,-1
 353 1178 l 1,1,-1
 837 391 l 1,2,-1
 837 1178 l 1,3,-1
 1055 1178 l 1,4,-1
 1055 0 l 1,5,-1
 819 0 l 1,6,-1
 343 768 l 1,7,-1
 343 0 l 1,8,-1
 122 0 l 1,9,-1
 122 1178 l 1,0,-1
EndSplineSet
EndChar

StartChar: O
Encoding: 79 79 504
Width: 1281
Flags: W
LayerCount: 2
Fore
SplineSet
71 582 m 0,0,1
 71 765 71 765 124 883 c 0,2,3
 144 928 144 928 172.5 969.5 c 128,-1,4
 201 1011 201 1011 234.5 1045.5 c 128,-1,5
 268 1080 268 1080 307 1107 c 128,-1,6
 346 1134 346 1134 387 1152 c 0,7,8
 497 1199 497 1199 642 1199 c 0,9,10
 902 1199 902 1199 1057 1038 c 0,11,12
 1214 875 1214 875 1214 588 c 0,13,14
 1214 302 1214 302 1057 142 c 1,15,16
 904 -20 904 -20 644 -20 c 0,17,18
 380 -20 380 -20 224 140 c 0,19,20
 71 300 71 300 71 582 c 0,0,1
316 590 m 0,21,22
 316 390 316 390 408 287 c 0,23,24
 502 182 502 182 644 182 c 0,25,26
 716 182 716 182 775 208 c 128,-1,27
 834 234 834 234 877 285.5 c 128,-1,28
 920 337 920 337 943.5 413.5 c 128,-1,29
 967 490 967 490 967 592 c 256,30,31
 967 694 967 694 944 769.5 c 128,-1,32
 921 845 921 845 878.5 895 c 128,-1,33
 836 945 836 945 776.5 969.5 c 128,-1,34
 717 994 717 994 644 994 c 0,35,36
 570 994 570 994 510 969 c 128,-1,37
 450 944 450 944 406.5 893.5 c 128,-1,38
 363 843 363 843 339.5 767.5 c 128,-1,39
 316 692 316 692 316 590 c 0,21,22
EndSplineSet
EndChar

StartChar: P
Encoding: 80 80 505
Width: 1098
Flags: W
LayerCount: 2
Fore
SplineSet
121 1178 m 1,0,-1
 502 1178 l 2,1,2
 719 1178 719 1178 785 1160 c 0,3,4
 835 1147 835 1147 878.5 1118 c 128,-1,5
 922 1089 922 1089 953.5 1045 c 128,-1,6
 985 1001 985 1001 1003 943.5 c 128,-1,7
 1021 886 1021 886 1021 817 c 0,8,9
 1021 735 1021 735 998 673 c 128,-1,10
 975 611 975 611 937.5 567.5 c 128,-1,11
 900 524 900 524 853 498 c 128,-1,12
 806 472 806 472 759 462 c 0,13,14
 675 444 675 444 514 444 c 2,15,-1
 358 444 l 1,16,-1
 358 0 l 1,17,-1
 121 0 l 1,18,-1
 121 1178 l 1,0,-1
358 644 m 1,19,-1
 488 644 l 2,20,21
 557 644 557 644 604 649.5 c 128,-1,22
 651 655 651 655 674 662 c 0,23,24
 699 671 699 671 717 686 c 128,-1,25
 735 701 735 701 749 720 c 0,26,27
 762 740 762 740 769.5 763.5 c 128,-1,28
 777 787 777 787 777 812 c 0,29,30
 777 878 777 878 739 918.5 c 128,-1,31
 701 959 701 959 644 971 c 0,32,33
 623 974 623 974 580 976.5 c 128,-1,34
 537 979 537 979 471 979 c 2,35,-1
 358 979 l 1,36,-1
 358 644 l 1,19,-1
EndSplineSet
EndChar

StartChar: Q
Encoding: 81 81 506
Width: 1281
Flags: W
LayerCount: 2
Fore
SplineSet
1068 151 m 1,0,1
 1112 119 1112 119 1159.5 93.5 c 128,-1,2
 1207 68 1207 68 1258 50 c 1,3,-1
 1170 -119 l 1,4,5
 1144 -110 1144 -110 1117.5 -99 c 128,-1,6
 1091 -88 1091 -88 1065 -74 c 0,7,8
 1054 -70 1054 -70 907 32 c 1,9,10
 848 5 848 5 785 -7.5 c 128,-1,11
 722 -20 722 -20 653 -20 c 0,12,13
 377 -20 377 -20 224 140 c 256,14,15
 71 300 71 300 71 590 c 0,16,17
 71 736 71 736 109 846 c 128,-1,18
 147 956 147 956 224 1038 c 0,19,20
 383 1199 383 1199 644 1199 c 0,21,22
 904 1199 904 1199 1059 1038 c 0,23,24
 1137 956 1137 956 1174.5 846 c 128,-1,25
 1212 736 1212 736 1212 590 c 0,26,27
 1212 513 1212 513 1202 446 c 128,-1,28
 1192 379 1192 379 1170 321 c 0,29,30
 1153 276 1153 276 1128.5 234 c 128,-1,31
 1104 192 1104 192 1068 151 c 1,0,1
877 283 m 1,32,33
 967 391 967 391 967 590 c 0,34,35
 967 692 967 692 943.5 767.5 c 128,-1,36
 920 843 920 843 877.5 893.5 c 128,-1,37
 835 944 835 944 775.5 969 c 128,-1,38
 716 994 716 994 644 994 c 0,39,40
 570 994 570 994 510 968.5 c 128,-1,41
 450 943 450 943 406.5 892.5 c 128,-1,42
 363 842 363 842 339.5 766.5 c 128,-1,43
 316 691 316 691 316 590 c 0,44,45
 316 486 316 486 340 408.5 c 128,-1,46
 364 331 364 331 407 280 c 128,-1,47
 450 229 450 229 508.5 203.5 c 128,-1,48
 567 178 567 178 636 178 c 0,49,50
 662 178 662 178 685.5 181.5 c 128,-1,51
 709 185 709 185 733 195 c 1,52,53
 696 217 696 217 660 236 c 128,-1,54
 624 255 624 255 586 269 c 1,55,-1
 653 406 l 1,56,57
 711 384 711 384 767.5 354 c 128,-1,58
 824 324 824 324 877 283 c 1,32,33
EndSplineSet
EndChar

StartChar: R
Encoding: 82 82 507
Width: 1188
Flags: W
LayerCount: 2
Fore
SplineSet
121 1178 m 1,0,-1
 620 1178 l 2,1,2
 716 1178 716 1178 783.5 1169.5 c 128,-1,3
 851 1161 851 1161 895 1146 c 0,4,5
 982 1114 982 1114 1032 1034 c 0,6,7
 1057 992 1057 992 1070.5 946.5 c 128,-1,8
 1084 901 1084 901 1084 847 c 0,9,10
 1084 715 1084 715 1006 629.5 c 128,-1,11
 928 544 928 544 772 519 c 1,12,13
 812 497 812 497 844 473 c 128,-1,14
 876 449 876 449 902 421 c 0,15,16
 927 394 927 394 960 346.5 c 128,-1,17
 993 299 993 299 1036 231 c 2,18,-1
 1180 0 l 1,19,-1
 895 0 l 1,20,-1
 722 257 l 2,21,22
 677 325 677 325 646 368.5 c 128,-1,23
 615 412 615 412 598 429 c 0,24,25
 564 467 564 467 526 479 c 0,26,27
 491 492 491 492 408 492 c 2,28,-1
 360 492 l 1,29,-1
 360 0 l 1,30,-1
 121 0 l 1,31,-1
 121 1178 l 1,0,-1
534 680 m 2,32,33
 621 680 621 680 673 683.5 c 128,-1,34
 725 687 725 687 747 695 c 0,35,36
 768 703 768 703 785.5 714.5 c 128,-1,37
 803 726 803 726 814 745 c 0,38,39
 827 762 827 762 833 784.5 c 128,-1,40
 839 807 839 807 839 833 c 0,41,42
 839 892 839 892 807.5 928 c 128,-1,43
 776 964 776 964 718 973 c 0,44,45
 689 979 689 979 544 979 c 2,46,-1
 360 979 l 1,47,-1
 360 680 l 1,48,-1
 534 680 l 2,32,33
EndSplineSet
EndChar

StartChar: S
Encoding: 83 83 508
Width: 1098
Flags: W
LayerCount: 2
Fore
SplineSet
291 408 m 1,0,1
 311 290 311 290 375 234 c 128,-1,2
 439 178 439 178 548 178 c 0,3,4
 605 178 605 178 649 191.5 c 128,-1,5
 693 205 693 205 722 227.5 c 128,-1,6
 751 250 751 250 766 280 c 128,-1,7
 781 310 781 310 781 343 c 0,8,9
 781 385 781 385 756 413.5 c 128,-1,10
 731 442 731 442 670 464 c 0,11,12
 630 477 630 477 479 515 c 0,13,14
 382 538 382 538 315.5 567.5 c 128,-1,15
 249 597 249 597 211 632 c 0,16,17
 102 729 102 729 102 869 c 0,18,19
 101 938 101 938 130.5 999 c 128,-1,20
 160 1060 160 1060 215.5 1105.5 c 128,-1,21
 271 1151 271 1151 351 1176.5 c 128,-1,22
 431 1202 431 1202 532 1199 c 0,23,24
 643 1199 643 1199 726 1173.5 c 128,-1,25
 809 1148 809 1148 865 1101 c 128,-1,26
 921 1054 921 1054 951 988 c 128,-1,27
 981 922 981 922 984 841 c 1,28,-1
 745 831 l 1,29,30
 731 922 731 922 680 962 c 128,-1,31
 629 1002 629 1002 530 1002 c 0,32,33
 428 1002 428 1002 367 959 c 0,34,35
 329 932 329 932 329 885 c 0,36,37
 329 845 329 845 366 814 c 0,38,39
 388 797 388 797 441.5 776.5 c 128,-1,40
 495 756 495 756 582 737 c 0,41,42
 757 695 757 695 839 651 c 0,43,44
 924 606 924 606 970.5 530.5 c 128,-1,45
 1017 455 1017 455 1017 343 c 0,46,47
 1017 293 1017 293 1002.5 244.5 c 128,-1,48
 988 196 988 196 960.5 154 c 128,-1,49
 933 112 933 112 893 78 c 128,-1,50
 853 44 853 44 801 23 c 0,51,52
 751 1 751 1 687.5 -11 c 128,-1,53
 624 -23 624 -23 546 -23 c 0,54,55
 323 -23 323 -23 202.5 81.5 c 128,-1,56
 82 186 82 186 60 383 c 1,57,-1
 291 408 l 1,0,1
EndSplineSet
EndChar

StartChar: T
Encoding: 84 84 509
Width: 1005
Flags: W
LayerCount: 2
Fore
SplineSet
385 979 m 1,0,-1
 34 979 l 1,1,-1
 34 1178 l 1,2,-1
 971 1178 l 1,3,-1
 971 979 l 1,4,-1
 622 979 l 1,5,-1
 622 0 l 1,6,-1
 385 0 l 1,7,-1
 385 979 l 1,0,-1
EndSplineSet
EndChar

StartChar: U
Encoding: 85 85 510
Width: 1188
Flags: W
LayerCount: 2
Fore
SplineSet
355 1178 m 1,0,-1
 355 540 l 2,1,2
 355 465 355 465 358 415.5 c 128,-1,3
 361 366 361 366 366 343 c 0,4,5
 380 272 380 272 437.5 227 c 128,-1,6
 495 182 495 182 594 182 c 0,7,8
 645 182 645 182 683 193.5 c 128,-1,9
 721 205 721 205 747 224.5 c 128,-1,10
 773 244 773 244 788 270 c 128,-1,11
 803 296 803 296 808 325 c 0,12,13
 815 357 815 357 817 406.5 c 128,-1,14
 819 456 819 456 819 526 c 2,15,-1
 819 1178 l 1,16,-1
 1057 1178 l 1,17,-1
 1057 560 l 2,18,19
 1057 452 1057 452 1053 378 c 128,-1,20
 1049 304 1049 304 1038 259 c 0,21,22
 1020 170 1020 170 965 111 c 0,23,24
 941 81 941 81 907.5 57 c 128,-1,25
 874 33 874 33 829.5 16 c 128,-1,26
 785 -1 785 -1 728.5 -10.5 c 128,-1,27
 672 -20 672 -20 602 -20 c 0,28,29
 517 -20 517 -20 453.5 -10 c 128,-1,30
 390 0 390 0 345 18 c 0,31,32
 301 38 301 38 267.5 63.5 c 128,-1,33
 234 89 234 89 207 121 c 0,34,35
 182 151 182 151 166 184.5 c 128,-1,36
 150 218 150 218 142 251 c 0,37,38
 130 302 130 302 124.5 376 c 128,-1,39
 119 450 119 450 119 550 c 2,40,-1
 119 1178 l 1,41,-1
 355 1178 l 1,0,-1
EndSplineSet
EndChar

StartChar: V
Encoding: 86 86 511
Width: 1098
Flags: W
LayerCount: 2
Fore
SplineSet
0 1178 m 1,0,-1
 257 1178 l 1,1,-1
 554 307 l 1,2,-1
 845 1178 l 1,3,-1
 1096 1178 l 1,4,-1
 674 0 l 1,5,-1
 419 0 l 1,6,-1
 0 1178 l 1,0,-1
EndSplineSet
EndChar

StartChar: W
Encoding: 87 87 512
Width: 1553
Flags: W
LayerCount: 2
Fore
SplineSet
4 1178 m 1,0,-1
 249 1178 l 1,1,-1
 425 369 l 1,2,-1
 642 1178 l 1,3,-1
 925 1178 l 1,4,-1
 1132 355 l 1,5,-1
 1312 1178 l 1,6,-1
 1551 1178 l 1,7,-1
 1266 0 l 1,8,-1
 1013 0 l 1,9,-1
 779 881 l 1,10,-1
 544 0 l 1,11,-1
 287 0 l 1,12,-1
 4 1178 l 1,0,-1
EndSplineSet
EndChar

StartChar: X
Encoding: 88 88 513
Width: 1098
Flags: W
LayerCount: 2
Fore
SplineSet
404 616 m 1,0,-1
 38 1178 l 1,1,-1
 316 1178 l 1,2,-1
 552 801 l 1,3,-1
 783 1178 l 1,4,-1
 1059 1178 l 1,5,-1
 693 606 l 1,6,-1
 1096 0 l 1,7,-1
 808 0 l 1,8,-1
 548 408 l 1,9,-1
 285 0 l 1,10,-1
 0 0 l 1,11,-1
 404 616 l 1,0,-1
EndSplineSet
EndChar

StartChar: Y
Encoding: 89 89 514
Width: 1098
Flags: W
LayerCount: 2
Fore
SplineSet
429 496 m 1,0,-1
 -2 1178 l 1,1,-1
 277 1178 l 1,2,-1
 554 712 l 1,3,-1
 825 1178 l 1,4,-1
 1100 1178 l 1,5,-1
 666 494 l 1,6,-1
 666 0 l 1,7,-1
 429 0 l 1,8,-1
 429 496 l 1,0,-1
EndSplineSet
EndChar

StartChar: Z
Encoding: 90 90 515
Width: 1005
Flags: W
LayerCount: 2
Fore
SplineSet
18 215 m 1,0,-1
 636 979 l 1,1,-1
 86 979 l 1,2,-1
 86 1178 l 1,3,-1
 950 1178 l 1,4,-1
 950 994 l 1,5,-1
 305 199 l 1,6,-1
 973 199 l 1,7,-1
 973 0 l 1,8,-1
 18 0 l 1,9,-1
 18 215 l 1,0,-1
EndSplineSet
EndChar

StartChar: a
Encoding: 97 97 516
Width: 915
Flags: W
LayerCount: 2
Fore
SplineSet
82 630 m 1,0,1
 99 692 99 692 127.5 737.5 c 128,-1,2
 156 783 156 783 200 813 c 128,-1,3
 244 843 244 843 306 858 c 128,-1,4
 368 873 368 873 452 873 c 0,5,6
 528 873 528 873 583.5 863.5 c 128,-1,7
 639 854 639 854 678 837 c 128,-1,8
 717 820 717 820 741.5 796.5 c 128,-1,9
 766 773 766 773 781 745 c 0,10,11
 810 693 810 693 810 544 c 2,12,-1
 808 279 l 2,13,14
 808 225 808 225 810 183.5 c 128,-1,15
 812 142 812 142 819 115 c 0,16,17
 825 87 825 87 834.5 58.5 c 128,-1,18
 844 30 844 30 859 0 c 1,19,-1
 636 0 l 1,20,21
 631 11 631 11 626.5 28.5 c 128,-1,22
 622 46 622 46 616 69 c 2,23,-1
 609 94 l 1,24,25
 548 35 548 35 483 7.5 c 128,-1,26
 418 -20 418 -20 343 -20 c 0,27,28
 277 -20 277 -20 224.5 -1 c 128,-1,29
 172 18 172 18 135.5 51.5 c 128,-1,30
 99 85 99 85 79.5 131.5 c 128,-1,31
 60 178 60 178 60 233 c 0,32,33
 60 307 60 307 94.5 362.5 c 128,-1,34
 129 418 129 418 189 448 c 0,35,36
 221 464 221 464 265.5 477.5 c 128,-1,37
 310 491 310 491 369 502 c 0,38,39
 449 516 449 516 503.5 530 c 128,-1,40
 558 544 558 544 590 556 c 1,41,-1
 590 580 l 2,42,43
 590 612 590 612 582.5 634.5 c 128,-1,44
 575 657 575 657 557 671.5 c 128,-1,45
 539 686 539 686 509.5 692.5 c 128,-1,46
 480 699 480 699 435 699 c 0,47,48
 375 699 375 699 342 675.5 c 128,-1,49
 309 652 309 652 287 592 c 1,50,-1
 82 630 l 1,0,1
590 410 m 1,51,52
 569 402 569 402 534.5 394 c 128,-1,53
 500 386 500 386 452 375 c 0,54,55
 355 355 355 355 329 335 c 0,56,57
 306 321 306 321 295.5 300.5 c 128,-1,58
 285 280 285 280 285 257 c 0,59,60
 285 233 285 233 294.5 211.5 c 128,-1,61
 304 190 304 190 320.5 174.5 c 128,-1,62
 337 159 337 159 360 149.5 c 128,-1,63
 383 140 383 140 410 140 c 0,64,65
 471 140 471 140 526 178 c 0,66,67
 547 195 547 195 560.5 213.5 c 128,-1,68
 574 232 574 232 580 255 c 0,69,70
 585 269 585 269 587.5 296.5 c 128,-1,71
 590 324 590 324 590 366 c 2,72,-1
 590 410 l 1,51,52
EndSplineSet
EndChar

StartChar: b
Encoding: 98 98 517
Width: 1005
Flags: W
LayerCount: 2
Fore
SplineSet
109 1178 m 1,0,-1
 333 1178 l 1,1,-1
 333 755 l 1,2,3
 443 873 443 873 582 873 c 0,4,5
 738 873 738 873 839 759 c 0,6,7
 942 645 942 645 942 435 c 0,8,9
 942 218 942 218 837 98 c 0,10,11
 733 -20 733 -20 584 -20 c 0,12,13
 512 -20 512 -20 442 17.5 c 128,-1,14
 372 55 372 55 318 124 c 1,15,-1
 318 0 l 1,16,-1
 109 0 l 1,17,-1
 109 1178 l 1,0,-1
333 446 m 0,18,19
 333 312 333 312 375 249 c 0,20,21
 432 161 432 161 530 161 c 0,22,23
 567 161 567 161 600 176.5 c 128,-1,24
 633 192 633 192 657.5 224 c 128,-1,25
 682 256 682 256 696 306 c 128,-1,26
 710 356 710 356 710 425 c 0,27,28
 710 498 710 498 696 550 c 128,-1,29
 682 602 682 602 657 635 c 128,-1,30
 632 668 632 668 597.5 683.5 c 128,-1,31
 563 699 563 699 521 699 c 0,32,33
 482 699 482 699 447.5 683.5 c 128,-1,34
 413 668 413 668 387.5 636.5 c 128,-1,35
 362 605 362 605 347.5 557.5 c 128,-1,36
 333 510 333 510 333 446 c 0,18,19
EndSplineSet
EndChar

StartChar: c
Encoding: 99 99 518
Width: 915
Flags: W
LayerCount: 2
Fore
SplineSet
640 562 m 1,0,1
 629 628 629 628 589 661.5 c 128,-1,2
 549 695 549 695 486 695 c 0,3,4
 444 695 444 695 409.5 681.5 c 128,-1,5
 375 668 375 668 351 638 c 128,-1,6
 327 608 327 608 314 560 c 128,-1,7
 301 512 301 512 301 444 c 0,8,9
 301 367 301 367 314.5 314 c 128,-1,10
 328 261 328 261 352.5 228 c 128,-1,11
 377 195 377 195 412 180 c 128,-1,12
 447 165 447 165 490 165 c 0,13,14
 553 165 553 165 594.5 201.5 c 128,-1,15
 636 238 636 238 653 327 c 1,16,-1
 873 289 l 1,17,18
 838 136 838 136 741.5 58 c 128,-1,19
 645 -20 645 -20 479 -20 c 0,20,21
 291 -20 291 -20 178 98 c 0,22,23
 122 158 122 158 95.5 239.5 c 128,-1,24
 69 321 69 321 69 425 c 0,25,26
 69 531 69 531 97.5 614.5 c 128,-1,27
 126 698 126 698 179.5 755.5 c 128,-1,28
 233 813 233 813 309.5 843 c 128,-1,29
 386 873 386 873 482 873 c 0,30,31
 639 873 639 873 730.5 806 c 128,-1,32
 822 739 822 739 863 600 c 1,33,-1
 640 562 l 1,0,1
EndSplineSet
EndChar

StartChar: d
Encoding: 100 100 519
Width: 1005
Flags: W
LayerCount: 2
Fore
SplineSet
691 0 m 1,0,-1
 691 124 l 1,1,2
 637 52 637 52 567 16 c 128,-1,3
 497 -20 497 -20 425 -20 c 0,4,5
 350 -20 350 -20 287.5 9.5 c 128,-1,6
 225 39 225 39 171 98 c 0,7,8
 69 216 69 216 69 429 c 0,9,10
 69 647 69 647 169 759 c 0,11,12
 220 816 220 816 285 844.5 c 128,-1,13
 350 873 350 873 427 873 c 0,14,15
 571 873 571 873 674 755 c 1,16,-1
 674 1178 l 1,17,-1
 902 1178 l 1,18,-1
 902 0 l 1,19,-1
 691 0 l 1,0,-1
297 446 m 0,20,21
 297 377 297 377 307 327 c 128,-1,22
 317 277 317 277 335 247 c 0,23,24
 388 161 388 161 490 161 c 0,25,26
 528 161 528 161 562 177 c 128,-1,27
 596 193 596 193 621.5 226 c 128,-1,28
 647 259 647 259 661.5 308 c 128,-1,29
 676 357 676 357 676 423 c 0,30,31
 676 497 676 497 662 549.5 c 128,-1,32
 648 602 648 602 623 635 c 128,-1,33
 598 668 598 668 563.5 683.5 c 128,-1,34
 529 699 529 699 488 699 c 256,35,36
 447 699 447 699 412 683.5 c 128,-1,37
 377 668 377 668 351.5 636.5 c 128,-1,38
 326 605 326 605 311.5 557.5 c 128,-1,39
 297 510 297 510 297 446 c 0,20,21
EndSplineSet
EndChar

StartChar: e
Encoding: 101 101 520
Width: 915
Flags: W
LayerCount: 2
Fore
SplineSet
837 233 m 1,0,1
 793 109 793 109 700.5 44.5 c 128,-1,2
 608 -20 608 -20 465 -20 c 0,3,4
 244 -20 244 -20 136 126 c 0,5,6
 52 244 52 244 52 419 c 0,7,8
 52 633 52 633 163 753 c 256,9,10
 274 873 274 873 444 873 c 0,11,12
 539 873 539 873 615 841.5 c 128,-1,13
 691 810 691 810 743.5 746.5 c 128,-1,14
 796 683 796 683 823.5 587 c 128,-1,15
 851 491 851 491 849 362 c 1,16,-1
 283 362 l 1,17,18
 284 312 284 312 298.5 272.5 c 128,-1,19
 313 233 313 233 338 206 c 128,-1,20
 363 179 363 179 396.5 165 c 128,-1,21
 430 151 430 151 469 151 c 0,22,23
 523 151 523 151 558.5 179 c 128,-1,24
 594 207 594 207 612 270 c 1,25,-1
 837 233 l 1,0,1
626 500 m 1,26,27
 624 549 624 549 610.5 586 c 128,-1,28
 597 623 597 623 574.5 648 c 128,-1,29
 552 673 552 673 522 686 c 128,-1,30
 492 699 492 699 458 699 c 0,31,32
 385 699 385 699 335 646 c 0,33,34
 287 593 287 593 287 500 c 1,35,-1
 626 500 l 1,26,27
EndSplineSet
EndChar

StartChar: f
Encoding: 102 102 521
Width: 548
Flags: W
LayerCount: 2
Fore
SplineSet
144 855 m 1,0,-1
 144 919 l 2,1,2
 144 972 144 972 149.5 1011 c 128,-1,3
 155 1050 155 1050 167.5 1078.5 c 128,-1,4
 180 1107 180 1107 200.5 1128 c 128,-1,5
 221 1149 221 1149 251 1166 c 0,6,7
 283 1181 283 1181 321 1190 c 128,-1,8
 359 1199 359 1199 408 1199 c 0,9,10
 456 1199 456 1199 502.5 1191 c 128,-1,11
 549 1183 549 1183 596 1168 c 1,12,-1
 566 1011 l 1,13,14
 539 1017 539 1017 513.5 1021.5 c 128,-1,15
 488 1026 488 1026 462 1026 c 0,16,17
 438 1026 438 1026 420.5 1021 c 128,-1,18
 403 1016 403 1016 391.5 1003 c 128,-1,19
 380 990 380 990 374.5 968 c 128,-1,20
 369 946 369 946 369 913 c 2,21,-1
 369 855 l 1,22,-1
 540 855 l 1,23,-1
 540 676 l 1,24,-1
 369 676 l 1,25,-1
 369 0 l 1,26,-1
 144 0 l 1,27,-1
 144 676 l 1,28,-1
 20 676 l 1,29,-1
 20 855 l 1,30,-1
 144 855 l 1,0,-1
EndSplineSet
EndChar

StartChar: g
Encoding: 103 103 522
Width: 1005
Flags: W
LayerCount: 2
Fore
SplineSet
355 -86 m 1,0,1
 360 -111 360 -111 366.5 -126 c 128,-1,2
 373 -141 373 -141 385 -151 c 0,3,4
 419 -172 419 -172 486 -172 c 0,5,6
 530 -172 530 -172 563.5 -166.5 c 128,-1,7
 597 -161 597 -161 618 -147 c 0,8,9
 633 -137 633 -137 645 -123.5 c 128,-1,10
 657 -110 657 -110 662 -90 c 1,11,12
 670 -77 670 -77 672 -51 c 128,-1,13
 674 -25 674 -25 674 14 c 2,14,-1
 674 138 l 1,15,16
 625 69 625 69 560 34.5 c 128,-1,17
 495 0 495 0 417 0 c 0,18,19
 249 0 249 0 147 144 c 0,20,21
 69 259 69 259 69 431 c 0,22,23
 69 648 69 648 171 759 c 0,24,25
 276 873 276 873 427 873 c 0,26,27
 586 873 586 873 688 735 c 1,28,-1
 688 855 l 1,29,-1
 902 855 l 1,30,-1
 902 86 l 2,31,32
 902 11 902 11 895.5 -43.5 c 128,-1,33
 889 -98 889 -98 876 -138 c 128,-1,34
 863 -178 863 -178 845 -205.5 c 128,-1,35
 827 -233 827 -233 805 -255 c 0,36,37
 760 -299 760 -299 685.5 -322 c 128,-1,38
 611 -345 611 -345 496 -345 c 0,39,40
 279 -345 279 -345 186 -270 c 0,41,42
 96 -198 96 -198 96 -84 c 2,43,-1
 96 -56 l 1,44,-1
 355 -86 l 1,0,1
299 444 m 0,45,46
 299 377 299 377 313 327.5 c 128,-1,47
 327 278 327 278 351.5 246 c 128,-1,48
 376 214 376 214 408.5 198 c 128,-1,49
 441 182 441 182 479 182 c 0,50,51
 521 182 521 182 557.5 198.5 c 128,-1,52
 594 215 594 215 621 247 c 128,-1,53
 648 279 648 279 663 327.5 c 128,-1,54
 678 376 678 376 678 440 c 0,55,56
 678 506 678 506 663.5 554.5 c 128,-1,57
 649 603 649 603 623.5 635.5 c 128,-1,58
 598 668 598 668 563 683.5 c 128,-1,59
 528 699 528 699 486 699 c 0,60,61
 446 699 446 699 411.5 683.5 c 128,-1,62
 377 668 377 668 352 636 c 128,-1,63
 327 604 327 604 313 556 c 128,-1,64
 299 508 299 508 299 444 c 0,45,46
EndSplineSet
EndChar

StartChar: h
Encoding: 104 104 523
Width: 1005
Flags: W
LayerCount: 2
Fore
SplineSet
343 745 m 1,0,1
 454 873 454 873 604 873 c 0,2,3
 683 873 683 873 746 843.5 c 128,-1,4
 809 814 809 814 839 768 c 0,5,6
 856 746 856 746 865.5 722 c 128,-1,7
 875 698 875 698 883 670 c 0,8,9
 889 643 889 643 891 601 c 128,-1,10
 893 559 893 559 893 500 c 2,11,-1
 893 0 l 1,12,-1
 668 0 l 1,13,-1
 668 452 l 2,14,15
 668 518 668 518 664 560 c 128,-1,16
 660 602 660 602 655 620 c 0,17,18
 642 654 642 654 611 678 c 0,19,20
 595 689 595 689 574.5 694 c 128,-1,21
 554 699 554 699 528 699 c 0,22,23
 485 696 485 696 450 683 c 128,-1,24
 415 670 415 670 390.5 639.5 c 128,-1,25
 366 609 366 609 353.5 557.5 c 128,-1,26
 341 506 341 506 343 427 c 2,27,-1
 343 0 l 1,28,-1
 117 0 l 1,29,-1
 117 1178 l 1,30,-1
 343 1178 l 1,31,-1
 343 745 l 1,0,1
EndSplineSet
EndChar

StartChar: i
Encoding: 105 105 524
Width: 458
Flags: W
LayerCount: 2
Fore
SplineSet
119 1178 m 1,0,-1
 343 1178 l 1,1,-1
 343 969 l 1,2,-1
 119 969 l 1,3,-1
 119 1178 l 1,0,-1
119 855 m 1,4,-1
 343 855 l 1,5,-1
 343 0 l 1,6,-1
 119 0 l 1,7,-1
 119 855 l 1,4,-1
EndSplineSet
EndChar

StartChar: j
Encoding: 106 106 525
Width: 458
Flags: W
LayerCount: 2
Fore
SplineSet
115 1178 m 1,0,-1
 339 1178 l 1,1,-1
 339 969 l 1,2,-1
 115 969 l 1,3,-1
 115 1178 l 1,0,-1
339 26 m 2,4,5
 339 -55 339 -55 334 -113.5 c 128,-1,6
 329 -172 329 -172 318 -205 c 256,7,8
 307 -238 307 -238 287 -263.5 c 128,-1,9
 267 -289 267 -289 235 -307 c 0,10,11
 205 -327 205 -327 166 -336 c 128,-1,12
 127 -345 127 -345 80 -345 c 0,13,14
 47 -345 47 -345 8 -339.5 c 128,-1,15
 -31 -334 -31 -334 -76 -323 c 1,16,-1
 -36 -130 l 1,17,18
 -3 -136 -3 -136 20 -136 c 0,19,20
 55 -136 55 -136 76.5 -122 c 128,-1,21
 98 -108 98 -108 104 -86 c 1,22,23
 115 -66 115 -66 115 40 c 2,24,-1
 115 855 l 1,25,-1
 339 855 l 1,26,-1
 339 26 l 2,4,5
EndSplineSet
EndChar

StartChar: k
Encoding: 107 107 526
Width: 915
Flags: W
LayerCount: 2
Fore
SplineSet
111 1178 m 1,0,-1
 335 1178 l 1,1,-1
 335 554 l 1,2,-1
 600 855 l 1,3,-1
 879 855 l 1,4,-1
 586 542 l 1,5,-1
 900 0 l 1,6,-1
 655 0 l 1,7,-1
 442 383 l 1,8,-1
 335 273 l 1,9,-1
 335 0 l 1,10,-1
 111 0 l 1,11,-1
 111 1178 l 1,0,-1
EndSplineSet
EndChar

StartChar: l
Encoding: 108 108 527
Width: 458
Flags: W
LayerCount: 2
Fore
SplineSet
119 1178 m 1,0,-1
 343 1178 l 1,1,-1
 343 0 l 1,2,-1
 119 0 l 1,3,-1
 119 1178 l 1,0,-1
EndSplineSet
EndChar

StartChar: m
Encoding: 109 109 528
Width: 1463
Flags: W
LayerCount: 2
Fore
SplineSet
309 855 m 1,0,-1
 309 737 l 1,1,2
 421 873 421 873 576 873 c 0,3,4
 737 873 737 873 817 737 c 1,5,6
 929 873 929 873 1076 873 c 0,7,8
 1171 873 1171 873 1237 835 c 128,-1,9
 1303 797 1303 797 1333 722 c 0,10,11
 1356 667 1356 667 1356 546 c 2,12,-1
 1356 0 l 1,13,-1
 1130 0 l 1,14,-1
 1130 488 l 2,15,16
 1130 612 1130 612 1107 653 c 0,17,18
 1091 675 1091 675 1067.5 687 c 128,-1,19
 1044 699 1044 699 1009 699 c 0,20,21
 963 699 963 699 922 671 c 128,-1,22
 881 643 881 643 861 586 c 0,23,24
 843 529 843 529 843 410 c 2,25,-1
 843 0 l 1,26,-1
 616 0 l 1,27,-1
 616 467 l 2,28,29
 616 592 616 592 604 628 c 0,30,31
 598 648 598 648 589 660 c 128,-1,32
 580 672 580 672 568 680 c 0,33,34
 545 699 545 699 498 699 c 0,35,36
 444 699 444 699 403.5 671.5 c 128,-1,37
 363 644 363 644 345 590 c 0,38,39
 327 539 327 539 327 416 c 2,40,-1
 327 0 l 1,41,-1
 102 0 l 1,42,-1
 102 855 l 1,43,-1
 309 855 l 1,0,-1
EndSplineSet
EndChar

StartChar: n
Encoding: 110 110 529
Width: 1005
Flags: W
LayerCount: 2
Fore
SplineSet
668 0 m 1,0,-1
 668 435 l 2,1,2
 668 505 668 505 664 549.5 c 128,-1,3
 660 594 660 594 655 614 c 0,4,5
 639 654 639 654 609 676 c 0,6,7
 574 699 574 699 528 699 c 0,8,9
 499 699 499 699 472.5 691 c 128,-1,10
 446 683 446 683 424 668 c 128,-1,11
 402 653 402 653 385.5 631 c 128,-1,12
 369 609 369 609 360 582 c 0,13,14
 350 556 350 556 346.5 507.5 c 128,-1,15
 343 459 343 459 343 387 c 2,16,-1
 343 0 l 1,17,-1
 117 0 l 1,18,-1
 117 855 l 1,19,-1
 325 855 l 1,20,-1
 325 726 l 1,21,22
 436 873 436 873 609 873 c 0,23,24
 684 873 684 873 745.5 847 c 128,-1,25
 807 821 807 821 837 777 c 0,26,27
 853 756 853 756 863.5 733.5 c 128,-1,28
 874 711 874 711 880.5 682.5 c 128,-1,29
 887 654 887 654 890 616.5 c 128,-1,30
 893 579 893 579 893 530 c 2,31,-1
 893 0 l 1,32,-1
 668 0 l 1,0,-1
EndSplineSet
EndChar

StartChar: o
Encoding: 111 111 530
Width: 1005
Flags: W
LayerCount: 2
Fore
SplineSet
67 440 m 0,0,1
 67 496 67 496 80 549.5 c 128,-1,2
 93 603 93 603 121 657 c 0,3,4
 150 709 150 709 189 749.5 c 128,-1,5
 228 790 228 790 279 817 c 0,6,7
 376 873 376 873 506 873 c 0,8,9
 604 873 604 873 682.5 840.5 c 128,-1,10
 761 808 761 808 823 745 c 0,11,12
 948 620 948 620 948 429 c 0,13,14
 948 235 948 235 821 107 c 0,15,16
 758 44 758 44 680.5 12 c 128,-1,17
 603 -20 603 -20 508 -20 c 0,18,19
 390 -20 390 -20 283 32 c 1,20,21
 179 87 179 87 121 189 c 0,22,23
 93 240 93 240 80 302.5 c 128,-1,24
 67 365 67 365 67 440 c 0,0,1
297 425 m 0,25,26
 297 362 297 362 313 313.5 c 128,-1,27
 329 265 329 265 357.5 232 c 128,-1,28
 386 199 386 199 424.5 182 c 128,-1,29
 463 165 463 165 508 165 c 0,30,31
 551 165 551 165 589 182 c 128,-1,32
 627 199 627 199 654.5 232 c 128,-1,33
 682 265 682 265 698 314 c 128,-1,34
 714 363 714 363 714 427 c 0,35,36
 714 490 714 490 698 538.5 c 128,-1,37
 682 587 682 587 654.5 620 c 128,-1,38
 627 653 627 653 589 670.5 c 128,-1,39
 551 688 551 688 508 688 c 0,40,41
 463 688 463 688 424.5 671 c 128,-1,42
 386 654 386 654 357.5 620.5 c 128,-1,43
 329 587 329 587 313 538 c 128,-1,44
 297 489 297 489 297 425 c 0,25,26
EndSplineSet
EndChar

StartChar: p
Encoding: 112 112 531
Width: 1005
Flags: W
LayerCount: 2
Fore
SplineSet
323 855 m 1,0,-1
 323 726 l 1,1,2
 343 758 343 758 371 785 c 128,-1,3
 399 812 399 812 433 831.5 c 128,-1,4
 467 851 467 851 506.5 862 c 128,-1,5
 546 873 546 873 588 873 c 0,6,7
 737 873 737 873 841 755 c 0,8,9
 892 697 892 697 919 617 c 128,-1,10
 946 537 946 537 946 431 c 0,11,12
 946 322 946 322 919 240 c 128,-1,13
 892 158 892 158 839 98 c 0,14,15
 735 -20 735 -20 586 -20 c 0,16,17
 551 -20 551 -20 519.5 -13.5 c 128,-1,18
 488 -7 488 -7 458.5 8 c 128,-1,19
 429 23 429 23 399 46.5 c 128,-1,20
 369 70 369 70 337 104 c 1,21,-1
 337 -325 l 1,22,-1
 113 -325 l 1,23,-1
 113 855 l 1,24,-1
 323 855 l 1,0,-1
335 442 m 0,25,26
 335 370 335 370 350 317.5 c 128,-1,27
 365 265 365 265 391.5 230 c 128,-1,28
 418 195 418 195 454 178 c 128,-1,29
 490 161 490 161 532 161 c 0,30,31
 571 161 571 161 604.5 176 c 128,-1,32
 638 191 638 191 662 223.5 c 128,-1,33
 686 256 686 256 700 307 c 128,-1,34
 714 358 714 358 714 429 c 0,35,36
 714 496 714 496 700 546 c 128,-1,37
 686 596 686 596 660.5 629 c 128,-1,38
 635 662 635 662 600.5 678.5 c 128,-1,39
 566 695 566 695 526 695 c 0,40,41
 485 695 485 695 450 679 c 128,-1,42
 415 663 415 663 389.5 631 c 128,-1,43
 364 599 364 599 349.5 552 c 128,-1,44
 335 505 335 505 335 442 c 0,25,26
EndSplineSet
EndChar

StartChar: q
Encoding: 113 113 532
Width: 1005
Flags: W
LayerCount: 2
Fore
SplineSet
676 104 m 1,0,1
 631 48 631 48 566 14 c 128,-1,2
 501 -20 501 -20 423 -20 c 0,3,4
 278 -20 278 -20 184 90 c 0,5,6
 73 218 73 218 73 435 c 0,7,8
 73 642 73 642 176 757 c 0,9,10
 282 873 282 873 435 873 c 0,11,12
 520 873 520 873 582 837 c 128,-1,13
 644 801 644 801 693 726 c 1,14,-1
 693 855 l 1,15,-1
 902 855 l 1,16,-1
 902 -325 l 1,17,-1
 676 -325 l 1,18,-1
 676 104 l 1,0,1
682 437 m 0,19,20
 682 502 682 502 668 551 c 128,-1,21
 654 600 654 600 629 632.5 c 128,-1,22
 604 665 604 665 570 681 c 128,-1,23
 536 697 536 697 496 697 c 0,24,25
 454 697 454 697 419 681 c 128,-1,26
 384 665 384 665 358.5 632 c 128,-1,27
 333 599 333 599 319 547.5 c 128,-1,28
 305 496 305 496 305 425 c 256,29,30
 305 354 305 354 319 303.5 c 128,-1,31
 333 253 333 253 357.5 221.5 c 128,-1,32
 382 190 382 190 415.5 175.5 c 128,-1,33
 449 161 449 161 488 161 c 256,34,35
 527 161 527 161 562 178 c 128,-1,36
 597 195 597 195 624 229.5 c 128,-1,37
 651 264 651 264 666.5 316 c 128,-1,38
 682 368 682 368 682 437 c 0,19,20
EndSplineSet
EndChar

StartChar: r
Encoding: 114 114 533
Width: 640
Flags: W
LayerCount: 2
Fore
SplineSet
109 0 m 1,0,-1
 109 855 l 1,1,-1
 318 855 l 1,2,-1
 318 733 l 1,3,4
 345 775 345 775 368.5 802 c 128,-1,5
 392 829 392 829 415 845 c 128,-1,6
 438 861 438 861 462 867 c 128,-1,7
 486 873 486 873 514 873 c 0,8,9
 551 873 551 873 588.5 861.5 c 128,-1,10
 626 850 626 850 662 829 c 1,11,-1
 590 634 l 1,12,13
 563 653 563 653 536 661.5 c 128,-1,14
 509 670 509 670 486 670 c 0,15,16
 437 670 437 670 404.5 643.5 c 128,-1,17
 372 617 372 617 351 548 c 0,18,19
 343 515 343 515 338 443.5 c 128,-1,20
 333 372 333 372 333 263 c 2,21,-1
 333 0 l 1,22,-1
 109 0 l 1,0,-1
EndSplineSet
EndChar

StartChar: s
Encoding: 115 115 534
Width: 915
Flags: W
LayerCount: 2
Fore
SplineSet
265 279 m 1,0,1
 280 213 280 213 324.5 177.5 c 128,-1,2
 369 142 369 142 448 142 c 0,3,4
 492 142 492 142 524.5 151 c 128,-1,5
 557 160 557 160 580 176 c 0,6,7
 609 200 609 200 609 237 c 0,8,9
 609 262 609 262 592 279 c 0,10,11
 583 287 583 287 564.5 294 c 128,-1,12
 546 301 546 301 515 309 c 0,13,14
 243 369 243 369 171 417 c 0,15,16
 69 489 69 489 69 611 c 0,17,18
 69 666 69 666 91 713.5 c 128,-1,19
 113 761 113 761 157.5 796.5 c 128,-1,20
 202 832 202 832 269.5 852.5 c 128,-1,21
 337 873 337 873 429 873 c 0,22,23
 516 873 516 873 580 859 c 128,-1,24
 644 845 644 845 689 816.5 c 128,-1,25
 734 788 734 788 762.5 745.5 c 128,-1,26
 791 703 791 703 807 646 c 1,27,-1
 594 609 l 1,28,29
 580 657 580 657 541.5 683.5 c 128,-1,30
 503 710 503 710 433 710 c 0,31,32
 341 710 341 710 307 686 c 0,33,34
 279 669 279 669 279 640 c 0,35,36
 279 617 279 617 303 598 c 0,37,38
 318 587 318 587 369.5 571 c 128,-1,39
 421 555 421 555 512 534 c 0,40,41
 603 514 603 514 666 488.5 c 128,-1,42
 729 463 729 463 764 433 c 0,43,44
 837 375 837 375 837 267 c 0,45,46
 837 151 837 151 737 65 c 0,47,48
 640 -20 640 -20 448 -20 c 0,49,50
 273 -20 273 -20 170.5 50.5 c 128,-1,51
 68 121 68 121 38 243 c 1,52,-1
 265 279 l 1,0,1
EndSplineSet
EndChar

StartChar: t
Encoding: 116 116 535
Width: 548
Flags: W
LayerCount: 2
Fore
SplineSet
510 672 m 1,0,-1
 355 672 l 1,1,-1
 355 329 l 2,2,3
 355 278 355 278 356.5 247 c 128,-1,4
 358 216 358 216 360 207 c 0,5,6
 363 191 363 191 379 178 c 0,7,8
 387 173 387 173 397 171 c 128,-1,9
 407 169 407 169 417 169 c 0,10,11
 434 169 434 169 456.5 173.5 c 128,-1,12
 479 178 479 178 508 189 c 1,13,-1
 528 14 l 1,14,15
 488 -3 488 -3 444 -11.5 c 128,-1,16
 400 -20 400 -20 349 -20 c 0,17,18
 250 -20 250 -20 198.5 22.5 c 128,-1,19
 147 65 147 65 136 142 c 0,20,21
 133 162 133 162 130.5 201 c 128,-1,22
 128 240 128 240 128 301 c 2,23,-1
 128 672 l 1,24,-1
 24 672 l 1,25,-1
 24 855 l 1,26,-1
 128 855 l 1,27,-1
 128 1023 l 1,28,-1
 355 1156 l 1,29,-1
 355 855 l 1,30,-1
 510 855 l 1,31,-1
 510 672 l 1,0,-1
EndSplineSet
EndChar

StartChar: u
Encoding: 117 117 536
Width: 1005
Flags: W
LayerCount: 2
Fore
SplineSet
680 128 m 1,0,1
 633 59 633 59 557 19.5 c 128,-1,2
 481 -20 481 -20 398 -20 c 0,3,4
 331 -17 331 -17 277 2.5 c 128,-1,5
 223 22 223 22 185.5 61.5 c 128,-1,6
 148 101 148 101 129.5 163 c 128,-1,7
 111 225 111 225 115 313 c 1,8,-1
 115 855 l 1,9,-1
 339 855 l 1,10,-1
 339 462 l 2,11,12
 339 283 339 283 351 241 c 0,13,14
 365 200 365 200 398 176 c 0,15,16
 427 153 427 153 479 153 c 0,17,18
 509 153 509 153 536 161.5 c 128,-1,19
 563 170 563 170 585 184.5 c 128,-1,20
 607 199 607 199 622.5 218.5 c 128,-1,21
 638 238 638 238 646 261 c 0,22,23
 656 285 656 285 659 342.5 c 128,-1,24
 662 400 662 400 662 494 c 2,25,-1
 662 855 l 1,26,-1
 891 855 l 1,27,-1
 891 0 l 1,28,-1
 680 0 l 1,29,-1
 680 128 l 1,0,1
EndSplineSet
EndChar

StartChar: v
Encoding: 118 118 537
Width: 915
Flags: W
LayerCount: 2
Fore
SplineSet
8 855 m 1,0,-1
 245 855 l 1,1,-1
 408 417 l 1,2,-1
 454 273 l 1,3,-1
 477 345 l 2,4,5
 482 363 482 363 488 381 c 128,-1,6
 494 399 494 399 500 417 c 2,7,-1
 662 855 l 1,8,-1
 895 855 l 1,9,-1
 556 0 l 1,10,-1
 351 0 l 1,11,-1
 8 855 l 1,0,-1
EndSplineSet
EndChar

StartChar: w
Encoding: 119 119 538
Width: 1281
Flags: W
LayerCount: 2
Fore
SplineSet
6 855 m 1,0,-1
 226 855 l 1,1,-1
 387 295 l 1,2,-1
 534 855 l 1,3,-1
 753 855 l 1,4,-1
 893 295 l 1,5,-1
 1055 855 l 1,6,-1
 1279 855 l 1,7,-1
 1005 0 l 1,8,-1
 789 0 l 1,9,-1
 642 548 l 1,10,-1
 498 0 l 1,11,-1
 277 0 l 1,12,-1
 6 855 l 1,0,-1
EndSplineSet
EndChar

StartChar: x
Encoding: 120 120 539
Width: 915
Flags: W
LayerCount: 2
Fore
SplineSet
318 440 m 1,0,-1
 23 855 l 1,1,-1
 297 855 l 1,2,-1
 450 618 l 1,3,-1
 609 855 l 1,4,-1
 873 855 l 1,5,-1
 584 450 l 1,6,-1
 902 0 l 1,7,-1
 622 0 l 1,8,-1
 450 265 l 1,9,-1
 275 0 l 1,10,-1
 10 0 l 1,11,-1
 318 440 l 1,0,-1
EndSplineSet
EndChar

StartChar: y
Encoding: 121 121 540
Width: 915
Flags: W
LayerCount: 2
Fore
SplineSet
251 855 m 1,0,-1
 456 247 l 1,1,-1
 655 855 l 1,2,-1
 889 855 l 1,3,-1
 588 32 l 1,4,-1
 534 -117 l 2,5,6
 519 -154 519 -154 505 -181.5 c 128,-1,7
 491 -209 491 -209 477 -230 c 128,-1,8
 463 -251 463 -251 448 -266.5 c 128,-1,9
 433 -282 433 -282 416 -295 c 0,10,11
 381 -319 381 -319 329.5 -332 c 128,-1,12
 278 -345 278 -345 215 -345 c 0,13,14
 146 -345 146 -345 86 -333 c 1,15,-1
 67 -157 l 1,16,17
 92 -162 92 -162 115.5 -164.5 c 128,-1,18
 139 -167 139 -167 161 -167 c 0,19,20
 201 -167 201 -167 229.5 -154.5 c 128,-1,21
 258 -142 258 -142 278 -120.5 c 128,-1,22
 298 -99 298 -99 311.5 -68.5 c 128,-1,23
 325 -38 325 -38 335 -2 c 1,24,-1
 12 855 l 1,25,-1
 251 855 l 1,0,-1
EndSplineSet
EndChar

StartChar: z
Encoding: 122 122 541
Width: 823
Flags: W
LayerCount: 2
Fore
SplineSet
28 176 m 1,0,-1
 347 544 l 2,1,2
 387 589 387 589 416.5 620.5 c 128,-1,3
 446 652 446 652 464 672 c 1,4,5
 444 670 444 670 419 669 c 128,-1,6
 394 668 394 668 362 668 c 2,7,-1
 60 666 l 1,8,-1
 60 855 l 1,9,-1
 762 855 l 1,10,-1
 762 693 l 1,11,-1
 437 318 l 1,12,-1
 323 193 l 1,13,14
 416 199 416 199 440 199 c 2,15,-1
 789 199 l 1,16,-1
 789 0 l 1,17,-1
 28 0 l 1,18,-1
 28 176 l 1,0,-1
EndSplineSet
EndChar

StartChar: two
Encoding: 50 50 542
Width: 915
Flags: W
LayerCount: 2
Fore
SplineSet
833 0 m 1,0,-1
 40 0 l 1,1,2
 48 59 48 59 67.5 115.5 c 128,-1,3
 87 172 87 172 119 224 c 0,4,5
 181 331 181 331 371 508 c 0,6,7
 525 650 525 650 560 701 c 0,8,9
 606 772 606 772 606 839 c 0,10,11
 606 914 606 914 566 955 c 128,-1,12
 526 996 526 996 454 996 c 0,13,14
 383 996 383 996 341 953 c 128,-1,15
 299 910 299 910 293 810 c 1,16,-1
 69 835 l 1,17,18
 78 928 78 928 110.5 994.5 c 128,-1,19
 143 1061 143 1061 194 1103 c 128,-1,20
 245 1145 245 1145 312.5 1164.5 c 128,-1,21
 380 1184 380 1184 460 1184 c 0,22,23
 632 1184 632 1184 733 1088 c 0,24,25
 833 997 833 997 833 855 c 0,26,27
 833 775 833 775 804 704 c 128,-1,28
 775 633 775 633 714 554 c 0,29,30
 693 526 693 526 656 488.5 c 128,-1,31
 619 451 619 451 566 402 c 256,32,33
 513 353 513 353 479 320 c 128,-1,34
 445 287 445 287 429 270 c 0,35,36
 416 256 416 256 404 241 c 128,-1,37
 392 226 392 226 383 209 c 1,38,-1
 833 209 l 1,39,-1
 833 0 l 1,0,-1
EndSplineSet
EndChar

StartChar: three
Encoding: 51 51 543
Width: 915
Flags: W
LayerCount: 2
Fore
SplineSet
279 339 m 1,0,1
 291 254 291 254 337 211.5 c 128,-1,2
 383 169 383 169 448 169 c 0,3,4
 482 169 482 169 512.5 182.5 c 128,-1,5
 543 196 543 196 565.5 221 c 128,-1,6
 588 246 588 246 601 282.5 c 128,-1,7
 614 319 614 319 614 364 c 0,8,9
 614 406 614 406 601.5 440 c 128,-1,10
 589 474 589 474 568 498 c 128,-1,11
 547 522 547 522 518 535 c 128,-1,12
 489 548 489 548 456 548 c 0,13,14
 433 548 433 548 407 544.5 c 128,-1,15
 381 541 381 541 351 532 c 1,16,-1
 377 716 l 1,17,18
 423 714 423 714 458 724 c 128,-1,19
 493 734 493 734 516 754 c 128,-1,20
 539 774 539 774 551 802.5 c 128,-1,21
 563 831 563 831 563 867 c 0,22,23
 563 928 563 928 529 963 c 128,-1,24
 495 998 495 998 435 998 c 0,25,26
 377 998 377 998 336.5 958 c 128,-1,27
 296 918 296 918 287 839 c 1,28,-1
 78 875 l 1,29,30
 92 953 92 953 122 1010 c 128,-1,31
 152 1067 152 1067 198 1104.5 c 128,-1,32
 244 1142 244 1142 305.5 1161 c 128,-1,33
 367 1180 367 1180 444 1184 c 1,34,35
 608 1184 608 1184 709 1076 c 0,36,37
 749 1033 749 1033 770 985 c 128,-1,38
 791 937 791 937 791 881 c 0,39,40
 791 803 791 803 750 741.5 c 128,-1,41
 709 680 709 680 622 634 c 1,42,43
 672 623 672 623 713 598.5 c 128,-1,44
 754 574 754 574 783.5 537.5 c 128,-1,45
 813 501 813 501 829 454 c 128,-1,46
 845 407 845 407 845 353 c 0,47,48
 845 200 845 200 730 88 c 0,49,50
 617 -20 617 -20 450 -20 c 0,51,52
 292 -20 292 -20 184 73 c 0,53,54
 132 118 132 118 101.5 178.5 c 128,-1,55
 71 239 71 239 62 313 c 1,56,-1
 279 339 l 1,0,1
EndSplineSet
EndChar

StartChar: four
Encoding: 52 52 544
Width: 915
Flags: W
LayerCount: 2
Fore
SplineSet
514 237 m 1,0,-1
 32 237 l 1,1,-1
 32 433 l 1,2,-1
 542 1184 l 1,3,-1
 730 1184 l 1,4,-1
 730 435 l 1,5,-1
 877 435 l 1,6,-1
 877 237 l 1,7,-1
 730 237 l 1,8,-1
 730 0 l 1,9,-1
 514 0 l 1,10,-1
 514 237 l 1,0,-1
514 837 m 1,11,-1
 243 435 l 1,12,-1
 514 435 l 1,13,-1
 514 837 l 1,11,-1
EndSplineSet
EndChar

StartChar: five
Encoding: 53 53 545
Width: 915
Flags: W
LayerCount: 2
Fore
SplineSet
297 325 m 1,0,1
 302 287 302 287 317.5 256.5 c 128,-1,2
 333 226 333 226 355.5 205 c 128,-1,3
 378 184 378 184 406 172.5 c 128,-1,4
 434 161 434 161 464 161 c 0,5,6
 499 161 499 161 530 175 c 128,-1,7
 561 189 561 189 584 217.5 c 128,-1,8
 607 246 607 246 620.5 289 c 128,-1,9
 634 332 634 332 634 391 c 0,10,11
 634 500 634 500 585 554.5 c 128,-1,12
 536 609 536 609 458 609 c 0,13,14
 358 609 358 609 283 521 c 1,15,-1
 100 548 l 1,16,-1
 215 1162 l 1,17,-1
 812 1162 l 1,18,-1
 812 952 l 1,19,-1
 387 952 l 1,20,-1
 351 751 l 1,21,22
 391 769 391 769 429 779 c 128,-1,23
 467 789 467 789 508 789 c 0,24,25
 658 789 658 789 760 678 c 1,26,27
 865 572 865 572 865 395 c 0,28,29
 865 321 865 321 844.5 257.5 c 128,-1,30
 824 194 824 194 783 136 c 0,31,32
 666 -20 666 -20 462 -20 c 0,33,34
 381 -20 381 -20 313.5 2.5 c 128,-1,35
 246 25 246 25 196 67 c 128,-1,36
 146 109 146 109 114.5 168.5 c 128,-1,37
 83 228 83 228 73 303 c 1,38,-1
 297 325 l 1,0,1
EndSplineSet
EndChar

StartChar: six
Encoding: 54 54 546
Width: 915
Flags: W
LayerCount: 2
Fore
SplineSet
616 865 m 1,0,1
 608 933 608 933 575 965.5 c 128,-1,2
 542 998 542 998 488 998 c 0,3,4
 416 998 416 998 366 933 c 0,5,6
 317 871 317 871 305 664 c 1,7,8
 348 716 348 716 399 740 c 128,-1,9
 450 764 450 764 514 764 c 0,10,11
 654 764 654 764 755 657 c 0,12,13
 857 550 857 550 857 379 c 0,14,15
 857 288 857 288 830.5 216.5 c 128,-1,16
 804 145 804 145 751 88 c 0,17,18
 644 -20 644 -20 479 -20 c 0,19,20
 299 -20 299 -20 184 119 c 0,21,22
 69 256 69 256 69 572 c 0,23,24
 69 899 69 899 189 1040 c 0,25,26
 309 1184 309 1184 500 1184 c 0,27,28
 636 1184 636 1184 723.5 1109 c 128,-1,29
 811 1034 811 1034 835 891 c 1,30,-1
 616 865 l 1,0,1
323 398 m 0,31,32
 323 343 323 343 337 300.5 c 128,-1,33
 351 258 351 258 374 228.5 c 128,-1,34
 397 199 397 199 427.5 184 c 128,-1,35
 458 169 458 169 490 169 c 0,36,37
 521 169 521 169 547.5 180.5 c 128,-1,38
 574 192 574 192 593.5 216.5 c 128,-1,39
 613 241 613 241 624.5 280.5 c 128,-1,40
 636 320 636 320 636 377 c 256,41,42
 636 434 636 434 624.5 476 c 128,-1,43
 613 518 613 518 592 545 c 128,-1,44
 571 572 571 572 542 585 c 128,-1,45
 513 598 513 598 479 598 c 0,46,47
 446 598 446 598 417.5 585.5 c 128,-1,48
 389 573 389 573 368 547.5 c 128,-1,49
 347 522 347 522 335 484.5 c 128,-1,50
 323 447 323 447 323 398 c 0,31,32
EndSplineSet
EndChar

StartChar: seven
Encoding: 55 55 547
Width: 915
Flags: W
LayerCount: 2
Fore
SplineSet
69 1162 m 1,0,-1
 843 1162 l 1,1,-1
 843 998 l 1,2,3
 748 904 748 904 646 726 c 0,4,5
 596 639 596 639 560 546 c 128,-1,6
 524 453 524 453 498 353 c 0,7,8
 471 254 471 254 458.5 166 c 128,-1,9
 446 78 446 78 446 0 c 1,10,-1
 228 0 l 1,11,12
 232 123 232 123 256.5 246 c 128,-1,13
 281 369 281 369 329 498 c 0,14,15
 377 625 377 625 440 738.5 c 128,-1,16
 503 852 503 852 582 954 c 1,17,-1
 69 954 l 1,18,-1
 69 1162 l 1,0,-1
EndSplineSet
EndChar

StartChar: eight
Encoding: 56 56 548
Width: 915
Flags: W
LayerCount: 2
Fore
SplineSet
263 636 m 1,0,1
 175 674 175 674 135.5 737.5 c 128,-1,2
 96 801 96 801 96 879 c 0,3,4
 96 1009 96 1009 186 1096 c 0,5,6
 234 1140 234 1140 298.5 1162 c 128,-1,7
 363 1184 363 1184 450 1184 c 0,8,9
 618 1184 618 1184 709 1096 c 0,10,11
 803 1009 803 1009 803 879 c 0,12,13
 803 795 803 795 761.5 732 c 128,-1,14
 720 669 720 669 642 636 c 1,15,16
 740 595 740 595 790.5 520.5 c 128,-1,17
 841 446 841 446 841 345 c 0,18,19
 841 183 841 183 737 80 c 0,20,21
 685 30 685 30 616.5 3.5 c 128,-1,22
 548 -23 548 -23 462 -23 c 0,23,24
 297 -23 297 -23 193 65 c 1,25,26
 69 161 69 161 69 337 c 0,27,28
 69 385 69 385 80 429.5 c 128,-1,29
 91 474 91 474 114.5 512.5 c 128,-1,30
 138 551 138 551 175 582.5 c 128,-1,31
 212 614 212 614 263 636 c 1,0,1
309 863 m 0,32,33
 309 794 309 794 348 757 c 128,-1,34
 387 720 387 720 450 720 c 0,35,36
 515 720 515 720 552.5 757.5 c 128,-1,37
 590 795 590 795 590 865 c 0,38,39
 590 928 590 928 553 966 c 128,-1,40
 516 1004 516 1004 454 1004 c 0,41,42
 388 1004 388 1004 348.5 965.5 c 128,-1,43
 309 927 309 927 309 863 c 0,32,33
289 360 m 0,44,45
 289 312 289 312 302 275 c 128,-1,46
 315 238 315 238 337.5 212.5 c 128,-1,47
 360 187 360 187 390.5 174 c 128,-1,48
 421 161 421 161 456 161 c 0,49,50
 527 161 527 161 571.5 211 c 128,-1,51
 616 261 616 261 616 355 c 0,52,53
 616 397 616 397 604 431 c 128,-1,54
 592 465 592 465 571 489.5 c 128,-1,55
 550 514 550 514 520 527 c 128,-1,56
 490 540 490 540 454 540 c 0,57,58
 412 540 412 540 381.5 525 c 128,-1,59
 351 510 351 510 329 482 c 0,60,61
 289 424 289 424 289 360 c 0,44,45
EndSplineSet
EndChar

StartChar: nine
Encoding: 57 57 549
Width: 915
Flags: W
LayerCount: 2
Fore
SplineSet
293 297 m 1,0,1
 302 231 302 231 335.5 199 c 128,-1,2
 369 167 369 167 425 167 c 0,3,4
 460 167 460 167 489 182 c 128,-1,5
 518 197 518 197 544 231 c 0,6,7
 568 263 568 263 584 329 c 128,-1,8
 600 395 600 395 606 498 c 1,9,10
 519 398 519 398 393 398 c 0,11,12
 252 398 252 398 153 506 c 0,13,14
 52 612 52 612 52 785 c 0,15,16
 52 875 52 875 78 946.5 c 128,-1,17
 104 1018 104 1018 159 1074 c 0,18,19
 262 1184 262 1184 429 1184 c 0,20,21
 608 1184 608 1184 724 1044 c 0,22,23
 839 907 839 907 839 588 c 0,24,25
 839 424 839 424 810 309 c 128,-1,26
 781 194 781 194 718 122 c 0,27,28
 597 -23 597 -23 408 -23 c 0,29,30
 269 -23 269 -23 184 51.5 c 128,-1,31
 99 126 99 126 74 273 c 1,32,-1
 293 297 l 1,0,1
586 764 m 0,33,34
 586 819 586 819 572.5 862 c 128,-1,35
 559 905 559 905 536 935 c 128,-1,36
 513 965 513 965 482.5 980.5 c 128,-1,37
 452 996 452 996 419 996 c 0,38,39
 387 996 387 996 361 984 c 128,-1,40
 335 972 335 972 315.5 946.5 c 128,-1,41
 296 921 296 921 285.5 881 c 128,-1,42
 275 841 275 841 275 785 c 0,43,44
 275 728 275 728 286.5 686 c 128,-1,45
 298 644 298 644 319 616.5 c 128,-1,46
 340 589 340 589 368.5 575.5 c 128,-1,47
 397 562 397 562 431 562 c 0,48,49
 463 562 463 562 491.5 575.5 c 128,-1,50
 520 589 520 589 541 614.5 c 128,-1,51
 562 640 562 640 574 677.5 c 128,-1,52
 586 715 586 715 586 764 c 0,33,34
EndSplineSet
EndChar

StartChar: numbersign
Encoding: 35 35 550
Width: 915
Flags: W
LayerCount: 2
Fore
SplineSet
14 293 m 1,0,-1
 14 471 l 1,1,-1
 161 471 l 1,2,-1
 207 709 l 1,3,-1
 14 709 l 1,4,-1
 14 885 l 1,5,-1
 243 885 l 1,6,-1
 307 1199 l 1,7,-1
 488 1199 l 1,8,-1
 423 885 l 1,9,-1
 600 885 l 1,10,-1
 662 1199 l 1,11,-1
 849 1199 l 1,12,-1
 785 885 l 1,13,-1
 895 885 l 1,14,-1
 895 709 l 1,15,-1
 749 709 l 1,16,-1
 701 471 l 1,17,-1
 895 471 l 1,18,-1
 895 293 l 1,19,-1
 664 293 l 1,20,-1
 600 -20 l 1,21,-1
 421 -20 l 1,22,-1
 484 293 l 1,23,-1
 307 293 l 1,24,-1
 243 -20 l 1,25,-1
 60 -20 l 1,26,-1
 124 293 l 1,27,-1
 14 293 l 1,0,-1
341 471 m 1,28,-1
 517 471 l 1,29,-1
 566 709 l 1,30,-1
 389 709 l 1,31,-1
 341 471 l 1,28,-1
EndSplineSet
EndChar

StartChar: dollar
Encoding: 36 36 551
Width: 915
Flags: W
LayerCount: 2
Fore
SplineSet
393 512 m 1,0,1
 235 557 235 557 161.5 648.5 c 128,-1,2
 88 740 88 740 88 869 c 0,3,4
 88 934 88 934 109 989.5 c 128,-1,5
 130 1045 130 1045 171 1090 c 0,6,7
 213 1136 213 1136 268.5 1161 c 128,-1,8
 324 1186 324 1186 393 1193 c 1,9,-1
 393 1272 l 1,10,-1
 510 1272 l 1,11,-1
 510 1193 l 1,12,13
 638 1179 638 1179 713.5 1106.5 c 128,-1,14
 789 1034 789 1034 808 913 c 1,15,-1
 606 887 l 1,16,17
 588 983 588 983 510 1015 c 1,18,-1
 510 701 l 1,19,20
 607 675 607 675 672 641.5 c 128,-1,21
 737 608 737 608 772 566 c 256,22,23
 807 524 807 524 825 471 c 128,-1,24
 843 418 843 418 843 351 c 0,25,26
 843 280 843 280 820 218 c 128,-1,27
 797 156 797 156 754.5 108.5 c 128,-1,28
 712 61 712 61 650 29 c 128,-1,29
 588 -3 588 -3 510 -14 c 1,30,-1
 510 -165 l 1,31,-1
 393 -165 l 1,32,-1
 393 -18 l 1,33,34
 253 -1 253 -1 166.5 85 c 128,-1,35
 80 171 80 171 56 331 c 1,36,-1
 267 351 l 1,37,38
 278 288 278 288 313 242 c 128,-1,39
 348 196 348 196 393 174 c 1,40,-1
 393 512 l 1,0,1
393 1019 m 1,41,42
 345 1003 345 1003 317 963.5 c 128,-1,43
 289 924 289 924 289 879 c 0,44,45
 289 835 289 835 314.5 798 c 128,-1,46
 340 761 340 761 393 741 c 1,47,-1
 393 1019 l 1,41,42
510 163 m 1,48,49
 540 169 540 169 564.5 183.5 c 128,-1,50
 589 198 589 198 607 219 c 128,-1,51
 625 240 625 240 634.5 267 c 128,-1,52
 644 294 644 294 644 325 c 0,53,54
 644 377 644 377 614 417 c 128,-1,55
 584 457 584 457 510 477 c 1,56,-1
 510 163 l 1,48,49
EndSplineSet
EndChar

StartChar: percent
Encoding: 37 37 552
Width: 1153
Flags: W
LayerCount: 2
Fore
SplineSet
278 22 m 2,0,1
 275 16 275 16 264 12 c 128,-1,2
 253 8 253 8 238 5 c 128,-1,3
 223 2 223 2 206 1 c 128,-1,4
 189 0 189 0 174 0 c 0,5,6
 143 0 143 0 135.5 11 c 128,-1,7
 128 22 128 22 140 39 c 2,8,-1
 859 1155 l 2,9,10
 870 1176 870 1176 924 1176 c 0,11,12
 939 1176 939 1176 955 1173.5 c 128,-1,13
 971 1171 971 1171 983 1165.5 c 128,-1,14
 995 1160 995 1160 1000.5 1153 c 128,-1,15
 1006 1146 1006 1146 1000 1137 c 2,16,-1
 278 22 l 2,0,1
190 988 m 0,17,18
 190 1016 190 1016 201 1041.5 c 128,-1,19
 212 1067 212 1067 231 1086 c 128,-1,20
 250 1105 250 1105 275 1116 c 128,-1,21
 300 1127 300 1127 329 1127 c 256,22,23
 358 1127 358 1127 383.5 1116 c 128,-1,24
 409 1105 409 1105 427.5 1086 c 128,-1,25
 446 1067 446 1067 457 1041.5 c 128,-1,26
 468 1016 468 1016 468 988 c 0,27,28
 468 959 468 959 457 933.5 c 128,-1,29
 446 908 446 908 427.5 889.5 c 128,-1,30
 409 871 409 871 383.5 860 c 128,-1,31
 358 849 358 849 329 849 c 256,32,33
 300 849 300 849 275 860 c 128,-1,34
 250 871 250 871 231 889.5 c 128,-1,35
 212 908 212 908 201 933.5 c 128,-1,36
 190 959 190 959 190 988 c 0,17,18
654 203 m 0,37,38
 654 231 654 231 665 256.5 c 128,-1,39
 676 282 676 282 694.5 301 c 128,-1,40
 713 320 713 320 738.5 331 c 128,-1,41
 764 342 764 342 793 342 c 0,42,43
 821 342 821 342 846.5 331 c 128,-1,44
 872 320 872 320 891 301 c 128,-1,45
 910 282 910 282 921 256.5 c 128,-1,46
 932 231 932 231 932 203 c 0,47,48
 932 174 932 174 921 148.5 c 128,-1,49
 910 123 910 123 891 104.5 c 128,-1,50
 872 86 872 86 846.5 75 c 128,-1,51
 821 64 821 64 793 64 c 0,52,53
 764 64 764 64 738.5 75 c 128,-1,54
 713 86 713 86 694.5 104.5 c 128,-1,55
 676 123 676 123 665 148.5 c 128,-1,56
 654 174 654 174 654 203 c 0,37,38
EndSplineSet
EndChar

StartChar: ampersand
Encoding: 38 38 553
Width: 1188
Flags: W
LayerCount: 2
Fore
SplineSet
1026 -32 m 1,0,1
 974 -6 974 -6 926 27 c 128,-1,2
 878 60 878 60 833 104 c 1,3,4
 797 72 797 72 759.5 48 c 128,-1,5
 722 24 722 24 681 8 c 128,-1,6
 640 -8 640 -8 592.5 -15.5 c 128,-1,7
 545 -23 545 -23 490 -23 c 0,8,9
 271 -23 271 -23 159 104 c 0,10,11
 114 153 114 153 93.5 207 c 128,-1,12
 73 261 73 261 73 323 c 0,13,14
 73 549 73 549 343 684 c 1,15,16
 220 826 220 826 220 944 c 0,17,18
 220 1049 220 1049 307 1124 c 0,19,20
 392 1199 392 1199 550 1199 c 0,21,22
 628 1199 628 1199 686 1179 c 128,-1,23
 744 1159 744 1159 789 1120 c 0,24,25
 873 1042 873 1042 873 929 c 0,26,27
 873 859 873 859 831 793 c 0,28,29
 810 761 810 761 767 725.5 c 128,-1,30
 724 690 724 690 661 649 c 1,31,-1
 823 433 l 1,32,33
 838 459 838 459 850 492 c 128,-1,34
 862 525 862 525 873 566 c 1,35,-1
 1078 519 l 1,36,37
 1063 465 1063 465 1050 427 c 128,-1,38
 1037 389 1037 389 1024.5 361.5 c 128,-1,39
 1012 334 1012 334 1000 314 c 128,-1,40
 988 294 988 294 975 277 c 1,41,42
 995 259 995 259 1019.5 239 c 128,-1,43
 1044 219 1044 219 1074 199 c 0,44,45
 1104 178 1104 178 1126 164 c 128,-1,46
 1148 150 1148 150 1162 142 c 1,47,-1
 1026 -32 l 1,0,1
609 831 m 2,48,49
 644 857 644 857 660 883.5 c 128,-1,50
 676 910 676 910 676 935 c 0,51,52
 676 978 676 978 643 1008 c 128,-1,53
 610 1038 610 1038 554 1038 c 0,54,55
 501 1038 501 1038 471.5 1012 c 128,-1,56
 442 986 442 986 442 950 c 0,57,58
 442 908 442 908 492 849 c 2,59,-1
 548 785 l 1,60,-1
 609 831 l 2,48,49
460 540 m 1,61,62
 379 501 379 501 342 445 c 128,-1,63
 305 389 305 389 305 331 c 0,64,65
 305 257 305 257 352 212 c 128,-1,66
 399 167 399 167 479 167 c 0,67,68
 534 167 534 167 582 187 c 128,-1,69
 630 207 630 207 688 255 c 1,70,-1
 460 540 l 1,61,62
EndSplineSet
EndChar

StartChar: zero
Encoding: 48 48 554
Width: 915
Flags: W
LayerCount: 2
Fore
SplineSet
452 1184 m 0,0,1
 536 1184 536 1184 603 1153 c 128,-1,2
 670 1122 670 1122 718 1061 c 0,3,4
 835 919 835 919 835 580 c 0,5,6
 835 414 835 414 806.5 293.5 c 128,-1,7
 778 173 778 173 718 100 c 0,8,9
 670 40 670 40 603 10 c 128,-1,10
 536 -20 536 -20 452 -20 c 0,11,12
 280 -20 280 -20 174 113 c 0,13,14
 121 178 121 178 95 295.5 c 128,-1,15
 69 413 69 413 69 582 c 0,16,17
 69 917 69 917 184 1063 c 0,18,19
 281 1184 281 1184 452 1184 c 0,0,1
452 996 m 256,20,21
 411 996 411 996 378.5 969.5 c 128,-1,22
 346 943 346 943 329 875 c 0,23,24
 319 833 319 833 313 758.5 c 128,-1,25
 307 684 307 684 307 580 c 0,26,27
 307 477 307 477 311.5 406 c 128,-1,28
 316 335 316 335 325 297 c 0,29,30
 349 219 349 219 379 193 c 0,31,32
 409 169 409 169 452 169 c 0,33,34
 472 169 472 169 490.5 175 c 128,-1,35
 509 181 509 181 524.5 194.5 c 128,-1,36
 540 208 540 208 552.5 230.5 c 128,-1,37
 565 253 565 253 574 287 c 0,38,39
 586 329 586 329 592 403 c 128,-1,40
 598 477 598 477 598 580 c 0,41,42
 598 684 598 684 592.5 755.5 c 128,-1,43
 587 827 587 827 576 865 c 0,44,45
 555 943 555 943 524 969 c 0,46,47
 493 996 493 996 452 996 c 256,20,21
EndSplineSet
EndChar

StartChar: one
Encoding: 49 49 555
Width: 915
Flags: W
LayerCount: 2
Fore
SplineSet
421 0 m 1,0,-1
 421 851 l 1,1,2
 359 791 359 791 287 750 c 128,-1,3
 215 709 215 709 130 680 c 1,4,-1
 130 885 l 1,5,6
 175 899 175 899 222.5 925.5 c 128,-1,7
 270 952 270 952 323 994 c 0,8,9
 374 1035 374 1035 410 1081.5 c 128,-1,10
 446 1128 446 1128 464 1184 c 1,11,-1
 649 1184 l 1,12,-1
 649 0 l 1,13,-1
 421 0 l 1,0,-1
EndSplineSet
EndChar

StartChar: colon
Encoding: 58 58 557
Width: 559
Flags: W
LayerCount: 2
Fore
SplineSet
188 125 m 0,0,1
 188 152 188 152 198 175 c 128,-1,2
 208 198 208 198 225.5 215 c 128,-1,3
 243 232 243 232 266 242 c 128,-1,4
 289 252 289 252 315 252 c 256,5,6
 341 252 341 252 364.5 242 c 128,-1,7
 388 232 388 232 405.5 215 c 128,-1,8
 423 198 423 198 433 175 c 128,-1,9
 443 152 443 152 443 125 c 0,10,11
 443 99 443 99 433 76 c 128,-1,12
 423 53 423 53 405.5 36 c 128,-1,13
 388 19 388 19 364.5 9 c 128,-1,14
 341 -1 341 -1 315 -1 c 256,15,16
 289 -1 289 -1 266 9 c 128,-1,17
 243 19 243 19 225.5 36 c 128,-1,18
 208 53 208 53 198 76 c 128,-1,19
 188 99 188 99 188 125 c 0,0,1
188 665 m 0,20,21
 188 692 188 692 198 715 c 128,-1,22
 208 738 208 738 225.5 755 c 128,-1,23
 243 772 243 772 266 782 c 128,-1,24
 289 792 289 792 315 792 c 256,25,26
 341 792 341 792 364.5 782 c 128,-1,27
 388 772 388 772 405.5 755 c 128,-1,28
 423 738 423 738 433 715 c 128,-1,29
 443 692 443 692 443 665 c 0,30,31
 443 639 443 639 433 616 c 128,-1,32
 423 593 423 593 405.5 576 c 128,-1,33
 388 559 388 559 364.5 549 c 128,-1,34
 341 539 341 539 315 539 c 256,35,36
 289 539 289 539 266 549 c 128,-1,37
 243 559 243 559 225.5 576 c 128,-1,38
 208 593 208 593 198 616 c 128,-1,39
 188 639 188 639 188 665 c 0,20,21
EndSplineSet
EndChar

StartChar: semicolon
Encoding: 59 59 558
Width: 367
Flags: W
LayerCount: 2
Fore
SplineSet
117 401 m 256,0,1
 117 445 117 445 148.5 477 c 128,-1,2
 180 509 180 509 224 509 c 0,3,4
 269 509 269 509 300.5 477 c 128,-1,5
 332 445 332 445 332 401 c 256,6,7
 332 357 332 357 300.5 325.5 c 128,-1,8
 269 294 269 294 224 294 c 0,9,10
 180 294 180 294 148.5 325.5 c 128,-1,11
 117 357 117 357 117 401 c 256,0,1
107 107 m 0,12,13
 107 152 107 152 139 184.5 c 128,-1,14
 171 217 171 217 217 217 c 0,15,16
 262 217 262 217 293 184.5 c 128,-1,17
 324 152 324 152 324 107 c 2,18,-1
 324 -47 l 2,19,20
 324 -179 324 -179 188 -179 c 2,21,-1
 130 -179 l 1,22,-1
 130 -91 l 1,23,24
 220 -91 220 -91 220 -26 c 0,25,26
 220 -14 220 -14 217 -2 c 1,27,28
 107 -2 107 -2 107 107 c 0,12,13
EndSplineSet
EndChar

StartChar: question
Encoding: 63 63 559
Width: 1005
Flags: W
LayerCount: 2
Fore
SplineSet
398 305 m 1,0,-1
 398 358 l 2,1,2
 398 409 398 409 406.5 449 c 128,-1,3
 415 489 415 489 431 521 c 0,4,5
 466 585 466 585 562 666 c 0,6,7
 612 707 612 707 641.5 733 c 128,-1,8
 671 759 671 759 680 772 c 0,9,10
 710 811 710 811 710 857 c 0,11,12
 710 891 710 891 696.5 920.5 c 128,-1,13
 683 950 683 950 658 972 c 128,-1,14
 633 994 633 994 596.5 1006.5 c 128,-1,15
 560 1019 560 1019 515 1019 c 0,16,17
 430 1019 430 1019 372 970 c 128,-1,18
 314 921 314 921 293 819 c 1,19,-1
 86 845 l 1,20,21
 89 918 89 918 119.5 978 c 128,-1,22
 150 1038 150 1038 207 1090 c 0,23,24
 322 1190 322 1190 508 1190 c 0,25,26
 701 1190 701 1190 814 1088 c 0,27,28
 872 1036 872 1036 900.5 979 c 128,-1,29
 929 922 929 922 929 853 c 0,30,31
 929 814 929 814 918.5 779 c 128,-1,32
 908 744 908 744 887 709 c 0,33,34
 866 675 866 675 822 631 c 128,-1,35
 778 587 778 587 709 528 c 0,36,37
 636 470 636 470 618 433 c 0,38,39
 611 414 611 414 606.5 382.5 c 128,-1,40
 602 351 602 351 604 305 c 1,41,-1
 398 305 l 1,0,-1
398 224 m 1,42,-1
 624 224 l 1,43,-1
 624 0 l 1,44,-1
 398 0 l 1,45,-1
 398 224 l 1,42,-1
EndSplineSet
EndChar

StartChar: afii57388
Encoding: 1548 1548 562
Width: 467
Flags: W
LayerCount: 2
Fore
SplineSet
396 106 m 0,0,1
 396 61 396 61 363 28.5 c 128,-1,2
 330 -4 330 -4 285 -4 c 0,3,4
 241 -4 241 -4 208.5 29 c 128,-1,5
 176 62 176 62 176 106 c 2,6,-1
 176 261 l 2,7,8
 176 394 176 394 314 394 c 2,9,-1
 373 394 l 1,10,-1
 373 306 l 1,11,12
 281 306 281 306 281 241 c 0,13,14
 281 228 281 228 285 216 c 1,15,16
 396 216 396 216 396 106 c 0,0,1
EndSplineSet
EndChar

StartChar: cent
Encoding: 162 162 563
Width: 1707
Flags: W
LayerCount: 2
Fore
SplineSet
918 -306 m 1,0,-1
 788 -306 l 1,1,-1
 788 1213 l 1,2,-1
 918 1213 l 1,3,-1
 918 -306 l 1,0,-1
EndSplineSet
EndChar

StartChar: sterling
Encoding: 163 163 564
Width: 1707
Flags: W
LayerCount: 2
Fore
SplineSet
1141 1213 m 1,0,-1
 565 1213 l 1,1,-1
 565 1335 l 1,2,-1
 1141 1335 l 1,3,-1
 1141 1213 l 1,0,-1
EndSplineSet
EndChar

StartChar: yen
Encoding: 165 165 566
Width: 1707
Flags: W
LayerCount: 2
Fore
SplineSet
1268 1486 m 1,0,-1
 439 1486 l 1,1,-1
 439 1606 l 1,2,-1
 1268 1606 l 1,3,-1
 1268 1486 l 1,0,-1
1268 1171 m 1,4,-1
 439 1171 l 1,5,-1
 439 1291 l 1,6,-1
 1268 1291 l 1,7,-1
 1268 1171 l 1,4,-1
EndSplineSet
EndChar

StartChar: afii57403
Encoding: 1563 1563 569
Width: 486
Flags: W
LayerCount: 2
Fore
SplineSet
389 107 m 256,0,1
 389 62 389 62 356.5 29.5 c 128,-1,2
 324 -3 324 -3 279 -3 c 256,3,4
 234 -3 234 -3 201.5 29.5 c 128,-1,5
 169 62 169 62 169 107 c 256,6,7
 169 152 169 152 201.5 184 c 128,-1,8
 234 216 234 216 279 216 c 256,9,10
 324 216 324 216 356.5 184 c 128,-1,11
 389 152 389 152 389 107 c 256,0,1
399 507 m 0,12,13
 399 461 399 461 366 428 c 128,-1,14
 333 395 333 395 287 395 c 256,15,16
 241 395 241 395 209 428 c 128,-1,17
 177 461 177 461 177 507 c 2,18,-1
 177 664 l 2,19,20
 177 799 177 799 316 799 c 2,21,-1
 375 799 l 1,22,-1
 375 709 l 1,23,24
 283 709 283 709 283 643 c 0,25,26
 283 630 283 630 287 618 c 1,27,28
 399 618 399 618 399 507 c 0,12,13
EndSplineSet
EndChar

StartChar: guilsinglright
Encoding: 8250 8250 570
Width: 1117
Flags: W
LayerCount: 2
Fore
SplineSet
966 444 m 1,0,-1
 160 58 l 1,1,-1
 160 192 l 1,2,-1
 786 489 l 1,3,-1
 160 784 l 1,4,-1
 160 918 l 1,5,-1
 966 534 l 1,6,-1
 966 444 l 1,0,-1
EndSplineSet
EndChar

StartChar: backslash
Encoding: 92 92 578
Width: 563
Flags: W
LayerCount: 2
Fore
SplineSet
541 -351 m 1,0,-1
 430 -351 l 1,1,-1
 53 867 l 1,2,-1
 166 867 l 1,3,-1
 541 -351 l 1,0,-1
EndSplineSet
EndChar

StartChar: Euro
Encoding: 8364 8364 581
Width: 1707
Flags: W
LayerCount: 2
Fore
SplineSet
1268 586 m 1,0,-1
 439 586 l 1,1,-1
 439 706 l 1,2,-1
 1268 706 l 1,3,-1
 1268 586 l 1,0,-1
1268 271 m 1,4,-1
 439 271 l 1,5,-1
 439 391 l 1,6,-1
 1268 391 l 1,7,-1
 1268 271 l 1,4,-1
EndSplineSet
EndChar

StartChar: afii62827
Encoding: 64427 64427 587
Width: 1310
GlyphClass: 2
Flags: W
AnchorPoint: "Anchor-1" 660 -495 basechar 0
AnchorPoint: "Anchor-0" 675 1050 basechar 0
LayerCount: 2
Fore
SplineSet
1310 0 m 1,0,-1
 -70 0 l 1,1,-1
 -70 216 l 1,2,-1
 226 216 l 1,3,-1
 226 483 l 2,4,5
 226 644 226 644 402 644 c 2,6,-1
 606 644 l 1,7,-1
 606 709 l 1,8,-1
 834 709 l 1,9,-1
 834 644 l 1,10,-1
 1039 644 l 2,11,12
 1214 644 1214 644 1214 483 c 2,13,-1
 1214 216 l 1,14,-1
 1310 216 l 1,15,-1
 1310 0 l 1,0,-1
992 269 m 2,16,-1
 992 380 l 2,17,18
 992 431 992 431 935 431 c 2,19,-1
 834 431 l 1,20,-1
 834 215 l 1,21,-1
 935 215 l 2,22,23
 992 215 992 215 992 269 c 2,16,-1
606 215 m 1,24,-1
 606 431 l 1,25,-1
 506 431 l 2,26,27
 448 431 448 431 448 380 c 2,28,-1
 448 269 l 2,29,30
 448 215 448 215 506 215 c 2,31,-1
 606 215 l 1,24,-1
EndSplineSet
EndChar

